<svg id="Layer_1" data-name="Layer 1" xmlns="http://www.w3.org/2000/svg" viewBox="0 0 192.75 197.58"><defs><style>.cls-1{fill:#efc07b;}.cls-2{font-size:27.29px;fill:#414042;font-family:OpenSans-Bold, Open Sans;font-weight:700;}.cls-3{fill:#5b7b91;}.cls-4{fill:#2a3652;}.cls-5{fill:#fbe4b7;}.cls-6{fill:#96b6c6;}</style></defs><path class="cls-1" d="M112.44,37.58S203.67,82.85,145,120c0,0-51.65,2.27-55.51-6.42Z" transform="translate(-3.25 -10.63)"/><text class="cls-2" transform="translate(23.38 147.36)">HOLIDAZE</text><polygon class="cls-3" points="73.93 102.32 45.48 102.32 40.65 62.18 77.82 62.18 73.93 102.32"/><path class="cls-3" d="M77.36,113.15H48.54l0-.18L43.67,72.61H81.29Zm-28.45-.4H77L80.84,73H44.13Z" transform="translate(-3.25 -10.63)"/><polygon class="cls-3" points="88.2 104.18 74.2 99.57 79.05 42.08 109.19 26.95 88.2 104.18"/><path class="cls-3" d="M91.58,115.07l-14.35-4.72L82.1,52.58l.1-.06,30.56-15.33Zm-13.92-5,13.64,4.49L112.12,38,82.48,52.84Z" transform="translate(-3.25 -10.63)"/><polygon class="cls-3" points="31.62 104.77 45.43 99.64 38.45 42.37 7.75 28.38 31.62 104.77"/><path class="cls-3" d="M34.73,115.67l-.06-.21-24-76.82L41.88,52.86V53l7,57.43ZM11.33,39.38,35,115.14l13.47-5-7-57Z" transform="translate(-3.25 -10.63)"/><path class="cls-4" d="M12.44,136.51a34,34,0,0,1,3-5A47.54,47.54,0,0,1,19.22,127a53.78,53.78,0,0,1,4.26-4.14,58.4,58.4,0,0,1,4.73-3.66,60.84,60.84,0,0,1,22.17-9.44,72.28,72.28,0,0,1,12.09-1.43c1-.06,2,0,3,0H67c.51,0,1,0,1.51.07l3,.19c1,.08,2,.21,3,.32A98.75,98.75,0,0,1,86.47,111c1,.24,1.93.54,2.89.8l2.87.82c1.78.5,3.54,1,5.32,1.52,3.57,1,7.15,1.84,10.77,2.53l2.71.56,2.73.46c1.82.34,3.65.53,5.47.82A165.27,165.27,0,0,0,141.39,120c3.71,0,7.44-.17,11.17-.42s7.46-.64,11.18-1.16,7.46-1.15,11.18-1.93,7.44-1.67,11.13-2.81a65.7,65.7,0,0,1-10.21,5.62,100.11,100.11,0,0,1-10.93,4.19l-2.82.86-2.83.79-2.86.7c-1,.23-1.92.42-2.88.63s-1.92.4-2.89.57-1.94.35-2.91.49l-2.93.44-2.93.34c-1,.12-2,.18-3,.27s-2,.18-2.95.22l-3,.14c-1,0-2,0-3,0-2,.06-4,0-5.94-.07-1,0-2-.1-3-.16s-2-.09-3-.2c-2-.17-3.94-.36-5.9-.64l-3-.4-2.93-.5c-3.91-.69-7.77-1.6-11.6-2.6-1.91-.52-3.8-1.12-5.7-1.69l-5.26-1.56-2.64-.68c-.88-.22-1.76-.47-2.65-.64-1.78-.36-3.55-.76-5.33-1-.89-.14-1.78-.32-2.68-.44L67.84,118c-.9-.12-1.8-.17-2.69-.23s-1.8-.16-2.7-.18l-2.69-.07c-.45,0-.9,0-1.35,0l-1.34,0-1.35,0c-.45,0-.9.06-1.35.09l-1.34.1c-.45,0-.9.06-1.34.12a65.47,65.47,0,0,0-20.89,5.73,63.57,63.57,0,0,0-9.65,5.53c-1.54,1.07-3.06,2.2-4.51,3.42A46.74,46.74,0,0,0,12.44,136.51Z" transform="translate(-3.25 -10.63)"/><polygon class="cls-1" points="122.15 23.67 130.57 0 126.49 24.79 122.15 23.67"/><polygon class="cls-1" points="153.62 46.02 173.71 30.94 156.61 49.35 153.62 46.02"/><polygon class="cls-1" points="167.64 85.43 192.75 84.59 168.19 89.88 167.64 85.43"/><path class="cls-5" d="M123.12,69.38s26.61,8.45,21.18,23.5-31.86,7.45-31.86,7.45Z" transform="translate(-3.25 -10.63)"/><path class="cls-1" d="M126.44,102.45h-.11a57.71,57.71,0,0,1-14-1.92l-.2-.06L123,69.12l.19.06c.16.06,16.21,5.24,20.81,14.56a11.41,11.41,0,0,1,.5,9.21C142.25,99.17,136,102.45,126.44,102.45Zm-13.74-2.26c2.49.67,26.35,6.62,31.41-7.38a11,11,0,0,0-.49-8.89c-4.25-8.62-18.56-13.67-20.37-14.28Z" transform="translate(-3.25 -10.63)"/><line class="cls-6" x1="58.42" y1="93.79" x2="58.42" y2="76.99"/><rect class="cls-3" x="57.61" y="76.99" width="1.63" height="16.8"/><path class="cls-6" d="M46.76,88.61l29.81-2-4,17.17a55.59,55.59,0,0,0-22.57.78Z" transform="translate(-3.25 -10.63)"/><line class="cls-3" x1="58.42" y1="70.52" x2="58.42" y2="93.98"/><rect class="cls-3" x="57.4" y="70.52" width="2.04" height="23.45"/></svg>