<svg id="Layer_1" data-name="Layer 1" xmlns="http://www.w3.org/2000/svg" viewBox="0 0 328.72 415.75"><defs><style>.cls-1{fill:#fff;}</style></defs><title>img_top_home</title><path class="cls-1" d="M383.86,263.08l-1.14,0c.85-12.47.72-34.33-5.7-56.79,0,0,19.94-9.38,9.47-30.06,0,0-4.23-1.35-4.43,2.88s5.84,14.09-8.66,22.55c0,0-2.79,8.46-12.57,5.24,0,0-19.25,3-23.48-11.88,0,0-5.07-3-5.07,3.22,0,0,4.47,18.52,25.61,14.7,0,0,7.61,31.15-7.2,53.46a164.51,164.51,0,1,0,33.17-3.35Zm-14.69-24.34,4.43,1s1.76,12.71.47,23.64c-4.05.24-8.06.65-12,1.17C365.47,257,369.52,246.28,369.17,238.74Z" transform="translate(-219.5 -176.05)"/><circle class="cls-1" cx="144.46" cy="20.2" r="9.99"/></svg>