<svg id="Layer_1" data-name="Layer 1" xmlns="http://www.w3.org/2000/svg" viewBox="0 0 524.12 509.16"><defs><style>.cls-1{fill:#fff;}.cls-2{fill:#dc2726;}.cls-3,.cls-4,.cls-5{fill:none;stroke:#fff;stroke-miterlimit:10;}.cls-3{stroke-width:10.25px;}.cls-4{stroke-width:21.23px;}.cls-5{stroke-width:32.22px;}</style></defs><title>img_top_live</title><path class="cls-1" d="M491.7,665.28l132,28.15L562.42,478.74l-97.65,92.11L444.84,501A16.89,16.89,0,0,0,424,489.37l-312.19,89a16.88,16.88,0,0,0-11.6,20.87L168,837a16.88,16.88,0,0,0,20.87,11.61l312.18-89a16.9,16.9,0,0,0,11.61-20.88Z" transform="translate(-99.52 -340.08)"/><circle class="cls-2" cx="217.34" cy="353.3" r="59.23"/><path class="cls-3" d="M406.42,457.94s31.94-8.95,46.06,19.81" transform="translate(-99.52 -340.08)"/><path class="cls-4" d="M394.33,418.58s66.16-18.54,95.42,41" transform="translate(-99.52 -340.08)"/><path class="cls-5" d="M383.89,359.07s112.08-24,156.48,66.38" transform="translate(-99.52 -340.08)"/></svg>