<svg id="Layer_1" data-name="Layer 1" xmlns="http://www.w3.org/2000/svg" viewBox="0 0 228.69 566.35"><defs><style>.cls-1{fill:#fff;}</style></defs><title>img_top_launches</title><path d="M114.42.59" transform="translate(0 -0.64)"/><path class="cls-1" d="M116.85,1.37c35.65,12.68,52.89,78.45,52.89,78.45V200.36H179V182.9s16.12-44.31,22.83-57.75l26.86,65.24a21.78,21.78,0,0,0,0,22.06V567H175l2.69-355.89-7.92,1.33v353H59.1v-353L51,211.07,53.73,567H0V212.45a21.78,21.78,0,0,0,0-22.06l26.86-65.24c6.7,13.44,22.84,57.75,22.84,57.75v17.46h9.4V79.81S76.34,14,112,1.36l2.14-.67a.88.88,0,0,1,.6,0Z" transform="translate(0 -0.64)"/></svg>