<svg id="Layer_1" data-name="Layer 1" xmlns="http://www.w3.org/2000/svg" viewBox="0 0 260.37 238.17"><defs><style>.cls-1{fill:#fff;}.cls-2{fill:#414042;}</style></defs><title>img_btm_launches</title><path class="cls-1" d="M374.15,387v75.05l-11.58,41.3s51.87,19.14,105.26,0L451.21,461l-2-62.45" transform="translate(-286.96 -363.83)"/><path class="cls-1" d="M482.81,368.37v75l-8,41.3s35.73,19.14,72.5,0L535.89,442.4,534.5,380" transform="translate(-286.96 -363.83)"/><path class="cls-1" d="M294.94,363.83v75.05l-8,41.3s35.74,19.14,72.51,0L348,437.87l-1.39-62.45" transform="translate(-286.96 -363.83)"/><path class="cls-1" d="M302.82,491.37s-25.52,55.06,16.12,106.1c0,0,53.72-48.35,22.83-106.1S302.82,491.37,302.82,491.37Z" transform="translate(-286.96 -363.83)"/><path class="cls-2" d="M310.49,509.87s-6.94,36.59,11,52.38c0,0,25.27-32.23,11.84-52.38S310.49,509.87,310.49,509.87Z" transform="translate(-286.96 -363.83)"/><path class="cls-1" d="M494.28,495.9S468.76,551,510.39,602c0,0,53.73-48.35,22.83-106.1S494.28,495.9,494.28,495.9Z" transform="translate(-286.96 -363.83)"/><path class="cls-2" d="M502,514.4s-6.94,36.59,11,52.38c0,0,25.27-32.23,11.84-52.38S502,514.4,502,514.4Z" transform="translate(-286.96 -363.83)"/></svg>