<svg id="Layer_1" data-name="Layer 1" xmlns="http://www.w3.org/2000/svg" viewBox="0 0 984.62 770.67"><defs><style>.cls-1{fill:#fff;}</style></defs><title>img_top_mars</title><path class="cls-1" d="M1042.65,482.28v19.05l-44.81-2.24-2.24,21.28-87.37-30.25L904.87,582,768.21,606.62l5.6-150.1H945.19L943,433H173.4V103.67H153.23v326L104,431.88V455.4H289.89l-5.6,19-57.13,17.92L223.81,526l63.84,15.68v14.56l-39.2,1.12L212.6,568.54v61.6l-31.36-5.6-4.48,21.29-26.89-6.72-1.12,12.32L167.8,657l-2.24,20.16,10.08,3.36-6.72,17.92,9.7,3.33a87.1,87.1,0,1,0,10.67,3.66h.05l7.58-19.32,14.56,2.24,3.36-15.68,68.33,16.8,5.6-11.2,49.29,12.32,7.84-13.44,45.93,1.12,59,54,.23-.23a88.24,88.24,0,1,0,18-17.13l.28-.27-50.6-49.77,13.45-9L751.4,657v9l84-3.36v17.92h10.65v17.92A88.31,88.31,0,1,0,869,701.59l.15,0V682.79h12.24V666h13.44V650.31H869.1V632.38h-23v-9h-9.52v11.2l-11.21-4.48v-6.72s154.59-52.64,217.32-45.92l-4.48,17.36h13.44v-107Z" transform="translate(-66.98 -103.67)"/></svg>