<svg id="Layer_1" data-name="Layer 1" xmlns="http://www.w3.org/2000/svg" viewBox="0 0 328.72 328.72"><defs><style>.cls-1{fill:#fff;}.cls-2,.cls-3,.cls-4,.cls-5{fill:none;stroke:#414042;stroke-miterlimit:10;}.cls-2{stroke-width:2.26px;}.cls-3{stroke-width:1.69px;}.cls-4{stroke-width:0.97px;}.cls-5{stroke-width:1.55px;}</style></defs><title>img_btm_home</title><circle class="cls-1" cx="164.36" cy="164.36" r="164.36"/><path class="cls-2" d="M364.72,537s-13.06,32.63,23.09,35.14,0-28.61,0-28.61" transform="translate(-332.15 -346.1)"/><path class="cls-3" d="M595.12,618.25s-18-19.26-31.22,4.47,19.42,9.13,19.42,9.13" transform="translate(-332.15 -346.1)"/><path class="cls-2" d="M446.47,565.89s-7,20.08,10.54,16.56,9.54-16.56,9.54-16.56" transform="translate(-332.15 -346.1)"/><path class="cls-2" d="M477.83,647.46s-7,20.08,10.54,16.57,9.54-16.57,9.54-16.57" transform="translate(-332.15 -346.1)"/><path class="cls-4" d="M513.69,555.25s4.67-7.9-3.06-7.9-5.43,6.2-5.43,6.2" transform="translate(-332.15 -346.1)"/><path class="cls-4" d="M534.92,556.44s9-1.53,4.05-7.44-8.24-.15-8.24-.15" transform="translate(-332.15 -346.1)"/><path class="cls-4" d="M482.56,610.89s2.19,8.91,7.71,3.5-.45-8.23-.45-8.23" transform="translate(-332.15 -346.1)"/><path class="cls-4" d="M473.31,616s-8.14-4.23-7.71,3.48,6.49,5.09,6.49,5.09" transform="translate(-332.15 -346.1)"/><path class="cls-5" d="M398.37,625.52s31.25-12.18,39-21.41c3.42-4.05,7.51-11.57,29-14a10.79,10.79,0,0,0,8.48-5.8,31.24,31.24,0,0,0,2.82-11.57c1.2-14.86,9.88-22.16,36-12.19a29.43,29.43,0,0,0,12.24,2c6.75-.42,18-2.32,35-8.62a42.45,42.45,0,0,1,13.69-2.61c8.06-.2,20.46-.07,27.79,2.13" transform="translate(-332.15 -346.1)"/><path class="cls-5" d="M408.39,627.91s31.7-4.08,45.89-17.64,20.48-7.38,29.45-9.44c2-.46,6.77-1.74,16.66-11.36s24.49.22,31-6.34,10.65-25.36,76.46-18.47c0,0,16.71,2.48,19.95-5.17" transform="translate(-332.15 -346.1)"/></svg>