<svg id="Layer_1" data-name="Layer 1" xmlns="http://www.w3.org/2000/svg" viewBox="0 0 1295.51 417.27"><defs><style>.cls-1{fill:#fff;}</style></defs><title>spaceShuttle</title><path id="spaceShuttle" class="cls-1" d="M1920,99.43,1867.26,122s32.13,111.36-58.41,97.34a.63.63,0,0,0-.73.61v29.81a1,1,0,0,1-1.06,1l-61.23-2.55a1.05,1.05,0,0,0-1.08.87l-47.06,261.46a1.54,1.54,0,0,1-1.17,1.24c-10.08,2.39-95.68,20.34-162.62-40.88L1358.43,310.44s-49.62-48-208.06-73.18C1001.83,213.7,618.43,159.9,624.56,98.82Z" transform="translate(-624.49 -98.82)"/></svg>