<svg id="Layer_1" data-name="Layer 1" xmlns="http://www.w3.org/2000/svg" viewBox="0 0 1206.22 417.24"><defs><style>.cls-1{fill:#aa9494;}.cls-2{fill:#fff;}</style></defs><path class="cls-1" d="M1206.22.57" transform="translate(0)"/><path class="cls-2" d="M1206.22.57,1206,121.43a87.4,87.4,0,0,1-21.59-.91.62.62,0,0,0-.72.52.28.28,0,0,0,0,.09v29.81a1,1,0,0,1-1,1h-.06l-61.23-2.55a1.05,1.05,0,0,0-1.08.87L1073.2,411.72A1.54,1.54,0,0,1,1072,413c-10.08,2.39-95.68,20.34-162.62-40.88L733.94,211.62s-49.62-48-208.06-73.18C377.34,114.88-6.06,61.08.07,0L1200.44.57h5.78" transform="translate(0)"/></svg>