<?xml version="1.0" encoding="utf-8"?>
<!-- Generator: Adobe Illustrator 24.0.2, SVG Export Plug-In . SVG Version: 6.00 Build 0)  -->
<svg version="1.1" id="Layer_1" xmlns="http://www.w3.org/2000/svg" xmlns:xlink="http://www.w3.org/1999/xlink" x="0px" y="0px"
	 viewBox="0 0 217.8 491.7" style="enable-background:new 0 0 217.8 491.7;" xml:space="preserve">
<style type="text/css">
	.st0{fill:#8C98A5;}
	.st1{fill:#3C2415;}
</style>
<title>arya</title>
<path class="st0" d="M201.5,107.7c0,52.1-42.2,94.3-94.3,94.3s-94.3-42.2-94.3-94.3c0-52.1,42.2-94.3,94.3-94.3l0,0
	C159.3,13.3,201.5,55.6,201.5,107.7z"/>
<path class="st0" d="M64.7,190.8l2.2,37.5c3.5,58.6-8.4,117.1-34.5,169.7L0.6,462.2C-2.4,475,5.6,488,18.5,491
	c1.8,0.4,3.7,0.6,5.5,0.6h167.5c13.3,0,24-10.7,24-24c0-1.8-0.2-3.6-0.6-5.4L200,432.5c-36.9-74-53.4-156.4-47.9-238.9l0.2-2.7"/>
<path class="st1" d="M76.5,37.6c0,0,28.3,112.3,119.5,101.8c-1.9,6.7-5,13.1-9.1,18.7c0,0,43.2-12.8,27.3-64.3S156.2-12.3,96.8,2.5
	c0,0-98.4-3.1-89,115.6c0,0,2,30.6,17,35.6c0,0-9.2-15.3-4.5-23.9C20.3,129.8,31.2,52.4,76.5,37.6z"/>
<path class="st1" d="M17.3,148.1c0,0,17.5,38.9,15.7,66.3c-0.2,2.2,1.5,4.2,3.7,4.4c1,0.1,1.9-0.2,2.7-0.8c6-4.4,13.4-14,12.6-33.8
	c0,0-27.1-23.8-32.8-39.8S17.3,148.1,17.3,148.1z"/>
<path class="st1" d="M195.1,149.8c0,0-17.5,38.9-15.7,66.3c0.2,2.2-1.5,4.2-3.7,4.4c-1,0.1-1.9-0.2-2.7-0.8
	c-6-4.4-13.4-14-12.6-33.8c0,0,27.1-23.8,32.8-39.8S195.1,149.8,195.1,149.8z"/>
</svg>
