<?xml version="1.0" encoding="utf-8"?>
<!-- Generator: Adobe Illustrator 24.0.2, SVG Export Plug-In . SVG Version: 6.00 Build 0)  -->
<svg version="1.1" id="Layer_1" xmlns="http://www.w3.org/2000/svg" xmlns:xlink="http://www.w3.org/1999/xlink" x="0px" y="0px"
	 viewBox="0 0 233.3 489.2" style="enable-background:new 0 0 233.3 489.2;" xml:space="preserve">
<style type="text/css">
	.st0{fill:#8C98A5;}
	.st1{fill:#3C2415;}
</style>
<title>bran</title>
<path class="st0" d="M208.9,116.3c0,50.5-40.9,91.5-91.4,91.5S26,167,25.9,116.4c0-50.5,40.9-91.5,91.4-91.5c0,0,0,0,0,0
	C168,24.9,208.9,65.8,208.9,116.3z"/>
<path class="st1" d="M195.4,99.8v72.8l22.7-56.3h15.1l-18.2-37.7l18.2-7.6c0,0-63.6-82-101.5-69.9c0,0-36.9-2.6-42.4,0
	c0,0-77.3,15.3-89.4,129l16.7-13.9l-3,47.2l18.9-13.1L44.7,183v-54.3c0,0-1.1-21.2,14.2-43.4l6.8,11.4c0,0,4-19.9,13.6-22.2
	s10.8,38.6,10.8,38.6s16.4-34.7,13.1-42.6c0,0,20.1,19.3,13.4,39.2s11-15.9,13.8-40.3s3.4,36.4,15.3,35.8c0,0-8-21,7.4-35.2
	c0,0,1.1,6.3,7.4,14.2c0,0-0.6-13.6,5.7-12.5s18.8,19.9,12.5,26.7s21-2.8,13.1-16.5L195.4,99.8z"/>
<path class="st0" d="M74.9,197.4L12.8,460.6c-3,12.5,4.8,25.1,17.3,28c1.8,0.4,3.6,0.6,5.4,0.6H198c12.9,0,23.3-10.4,23.3-23.3
	c0-1.8-0.2-3.5-0.6-5.2L160,197.4"/>
</svg>
