<?xml version="1.0" encoding="utf-8"?>
<!-- Generator: Adobe Illustrator 24.0.2, SVG Export Plug-In . SVG Version: 6.00 Build 0)  -->
<svg version="1.1" id="Layer_1" xmlns="http://www.w3.org/2000/svg" xmlns:xlink="http://www.w3.org/1999/xlink" x="0px" y="0px"
	 viewBox="0 0 212.7 483" style="enable-background:new 0 0 212.7 483;" xml:space="preserve">
<style type="text/css">
	.st0{fill:#8C98A5;}
	.st1{fill:#D3D1B9;}
</style>
<title>daenerys</title>
<path class="st0" d="M199.4,103.7c0,51.4-41.7,93.1-93.1,93.1s-93.1-41.7-93.1-93.1c0-51.4,41.7-93.1,93.1-93.1
	S199.4,52.3,199.4,103.7L199.4,103.7z"/>
<path class="st0" d="M63.8,186.1l2.2,37c3.4,57.8-8.3,115.5-34,167.4L0.6,453.8c-3,12.7,4.9,25.5,17.6,28.5c1.8,0.4,3.6,0.6,5.5,0.6
	H189c13.1,0,23.7-10.6,23.7-23.7c0-1.8-0.2-3.6-0.6-5.3l-14.7-29.4c-36.4-73-52.7-154.4-47.2-235.8l0.2-2.7"/>
<path class="st1" d="M106.4,40.8c0,0-26.4,20.8-49.6,16.2c0,0-26.3,39.4-20.2,129c0,0,6.9,110.8-8.1,116.6c0,0,11.6-53.2,0-75.1
	c0,0,2,134.1-28.5,133.5c0,0,38.3-74,16.9-148S-4.5,24.7,66.6,6.7c0,0,31.2-13,48-2.9c0,0,104-17.3,94.8,115.6
	s-13.3,135.2-13.3,135.2s-5.8,64.7,13.9,89c0,0-22.5-22.5-24.9-66.5c0,0-5.8-48,1.7-68.8c0,0-15,34.7-7.5,66.5
	c0,0-12.1-19.7-3.5-91.9S163.7,51.8,163.7,51.8S135.7,57.6,106.4,40.8z"/>
</svg>
