<?xml version="1.0" encoding="utf-8"?>
<!-- Generator: Adobe Illustrator 24.0.2, SVG Export Plug-In . SVG Version: 6.00 Build 0)  -->
<svg version="1.1" id="Layer_1" xmlns="http://www.w3.org/2000/svg" xmlns:xlink="http://www.w3.org/1999/xlink" x="0px" y="0px"
	 viewBox="0 0 208.6 481.9" style="enable-background:new 0 0 208.6 481.9;" xml:space="preserve">
<style type="text/css">
	.st0{fill:#8C98A5;}
	.st1{fill:#7A5A35;}
</style>
<title>jaime</title>
<path class="st0" d="M196.3,109.9c0,50.4-40.9,91.3-91.3,91.3s-91.3-40.9-91.3-91.3S54.6,18.6,105,18.6c0,0,0,0,0,0
	C155.4,18.6,196.3,59.5,196.3,109.9z"/>
<path class="st0" d="M62.6,190.8l-62,262.6c-2.9,12.5,4.8,25,17.3,27.9c1.7,0.4,3.5,0.6,5.3,0.6h162.1c12.8,0,23.2-10.4,23.2-23.2
	c0-1.8-0.2-3.5-0.6-5.2l-60.5-262.7"/>
<path class="st1" d="M98.3,37c0,0-25.5,5.1-31.7,32.3s-31.8,75.3-45.4,77.1S-36.1,26.8,95.5,6.4c0,0,10.3-0.9,8,6.3
	c0,0,31.7-31.7,70.3,4.8s47,124.3,6.2,128.9c0,0-18.6-29-17.6-83.1C162.3,63.3,162.3,21.1,98.3,37z"/>
</svg>
