<svg id="Layer_1" data-name="Layer 1" xmlns="http://www.w3.org/2000/svg" viewBox="0 0 223.39 462.83"><defs><style>.cls-1{fill:#8c98a5;}.cls-2{fill:#231f20;}</style></defs><title>jon</title><path class="cls-1" d="M333.48,130.5A85.08,85.08,0,1,1,248.4,45.42,85.08,85.08,0,0,1,333.48,130.5Z" transform="translate(-130.09 -11.12)"/><path class="cls-1" d="M203.47,202.59,145.73,447.33A21.65,21.65,0,0,0,166.8,474H317.89A21.65,21.65,0,0,0,339,447.44L282.55,202.59" transform="translate(-130.09 -11.12)"/><path class="cls-2" d="M312.16,120.58l1.44,8.09C317,148,318,169.26,308.8,186.6c-3.5,6.6,4.92-.52,4.92-.52,7.13-8.46,6.43-7.49,7.83-11.1l25.51-43.61a4.24,4.24,0,0,0,.59-4.59l-5-27.51c-1.05-2.18-.71-6.1,1-7.74V89.37a4.22,4.22,0,0,0,1.63-6.59c-13.2-16-60.06-69.36-90.13-60.75a3.91,3.91,0,0,1-1.36.16c-4.87-.32-34.07-2.14-38.75,0,0,0-66.87,13.28-81.7,109.09a4.24,4.24,0,0,0,6.88,3.93l2.53-2.1c1.24-1,1.63,2.95,1.89,7.23a23.88,23.88,0,0,0,6.11,14.55l20.56,31.34c1.15,3.26,16.58,9.51,18.54,6.66l-7.66-7.56c.39-.55-4.51-6.11-8.19-11.67a26.56,26.56,0,0,1-3.53-21.43l2.92-11.07a3.83,3.83,0,0,0,.08-.89c-.05-2.92.17-20.71,12.85-39.36a3.74,3.74,0,0,1,.91-1c2.19-1.65,10.73-7.81,18.48-9.63,7-1.66,18.67,1.57,21.79-.55a4,4,0,0,1,4.57.33c6.7,5,19.25,12,21.18-4.53,2.57-22.14,6.65,11.92,20.06,1.44a3.9,3.9,0,0,1,2.81-.75c2.29.23,6.47.7,10.4,1.42,5.81,1.06,31.17,22.18,23.77,9.51l.88,4.36Z" transform="translate(-130.09 -11.12)"/><path class="cls-2" d="M290.83,21.1a77.2,77.2,0,0,0-6.79,16,26.85,26.85,0,0,0-1.16,8.17A13.38,13.38,0,0,0,283.5,49a7.93,7.93,0,0,0,.73,1.62,8.43,8.43,0,0,0,1,1.42,12,12,0,0,0,6.32,3.43,33.06,33.06,0,0,0,8,.78,46.4,46.4,0,0,0,8.23-.71A18.43,18.43,0,0,0,314.88,53a6.29,6.29,0,0,0,3-5.06,12.47,12.47,0,0,0-2-6.76,23.14,23.14,0,0,0-5-6,15.93,15.93,0,0,0-6.6-3.52,6.21,6.21,0,0,0-3.19.11,5.39,5.39,0,0,0-2.54,1.89,17.7,17.7,0,0,0-1,1.65c-.34.6-.65,1.2-.93,1.81a12.16,12.16,0,0,0-1.08,3.73,5.48,5.48,0,0,0,.65,3.46,6.41,6.41,0,0,0,2.89,2.38,10.17,10.17,0,0,0,4,.82,7.19,7.19,0,0,0,2.07-.29c.64-.21,1.36-.61,1.35-1.4a1.27,1.27,0,0,1-.26,1.08,3,3,0,0,1-.9.73,7.32,7.32,0,0,1-2.18.75,11,11,0,0,1-4.63-.18,7.91,7.91,0,0,1-4.19-2.58,8,8,0,0,1-1.68-4.85,14.43,14.43,0,0,1,.82-4.82,22.45,22.45,0,0,1,.85-2.21,19.18,19.18,0,0,1,1.08-2.19,9.15,9.15,0,0,1,4.11-3.67,10.35,10.35,0,0,1,5.45-.71,19.59,19.59,0,0,1,9.08,4,26.88,26.88,0,0,1,6.55,7.13,19.85,19.85,0,0,1,2.16,4.55,15.12,15.12,0,0,1,.81,5.31,11.68,11.68,0,0,1-1.61,5.5,12.71,12.71,0,0,1-3.86,4,23.62,23.62,0,0,1-9.34,3.43,48.46,48.46,0,0,1-9.28.56,35.4,35.4,0,0,1-9.35-1.35,20.14,20.14,0,0,1-4.58-2,6.33,6.33,0,0,1-1.07-.73l-1-.8c-.33-.29-.62-.63-.93-.94a8.29,8.29,0,0,1-.87-1,11.77,11.77,0,0,1-1.35-2.29,12.43,12.43,0,0,1-.87-2.46,16.06,16.06,0,0,1-.36-5,29.32,29.32,0,0,1,2.26-9A57.64,57.64,0,0,1,290.83,21.1Z" transform="translate(-130.09 -11.12)"/><path class="cls-2" d="M310.74,47.41a76.74,76.74,0,0,0-6.79,16,26.48,26.48,0,0,0-1.16,8.16,13.32,13.32,0,0,0,.62,3.75,8.27,8.27,0,0,0,.73,1.63,7.81,7.81,0,0,0,1,1.41,12,12,0,0,0,6.32,3.43,33.06,33.06,0,0,0,8,.79,47.44,47.44,0,0,0,8.23-.71,18.49,18.49,0,0,0,7.06-2.58,6.32,6.32,0,0,0,3-5.07,12.49,12.49,0,0,0-2-6.76,23.1,23.1,0,0,0-5-6,15.81,15.81,0,0,0-6.6-3.52,6.2,6.2,0,0,0-3.19.11A5.39,5.39,0,0,0,318.51,60a17.7,17.7,0,0,0-1,1.65c-.34.59-.65,1.2-.93,1.81a12.1,12.1,0,0,0-1.08,3.72,5.47,5.47,0,0,0,.65,3.46A6.3,6.3,0,0,0,319,73a9.83,9.83,0,0,0,4,.82,6.56,6.56,0,0,0,2.07-.29c.64-.21,1.36-.61,1.35-1.4a1.32,1.32,0,0,1-.26,1.09,3,3,0,0,1-.9.72,7.32,7.32,0,0,1-2.18.75,11,11,0,0,1-4.63-.17,7.79,7.79,0,0,1-4.19-2.59,8,8,0,0,1-1.68-4.85,14.47,14.47,0,0,1,.82-4.82c.25-.75.53-1.49.84-2.21a22.22,22.22,0,0,1,1.09-2.19,9.19,9.19,0,0,1,4.11-3.66,10.15,10.15,0,0,1,5.45-.71,19.72,19.72,0,0,1,9.08,4,27,27,0,0,1,6.55,7.13,20,20,0,0,1,2.16,4.55,15.16,15.16,0,0,1,.81,5.31A11.75,11.75,0,0,1,341.92,80a12.63,12.63,0,0,1-3.87,4,23.58,23.58,0,0,1-9.33,3.43,48.46,48.46,0,0,1-9.28.56,35,35,0,0,1-9.35-1.36,20.36,20.36,0,0,1-4.59-2,7.24,7.24,0,0,1-1.07-.73l-1-.8c-.33-.29-.62-.63-.93-1a7,7,0,0,1-.87-1,11.22,11.22,0,0,1-1.35-2.28,12.43,12.43,0,0,1-.87-2.46,16.08,16.08,0,0,1-.36-5,29.38,29.38,0,0,1,2.26-9A57.81,57.81,0,0,1,310.74,47.41Z" transform="translate(-130.09 -11.12)"/><path class="cls-2" d="M337.66,86.85a76.8,76.8,0,0,0-16.34,5.91,26.62,26.62,0,0,0-6.77,4.7,13.39,13.39,0,0,0-2.33,3,8.05,8.05,0,0,0-.69,1.64,8.35,8.35,0,0,0-.36,1.69,12.1,12.1,0,0,0,1.79,7,33.09,33.09,0,0,0,4.9,6.43,46.14,46.14,0,0,0,6.12,5.54,18.29,18.29,0,0,0,6.69,3.42,6.3,6.3,0,0,0,5.78-1.21,12.58,12.58,0,0,0,3.62-6,22.89,22.89,0,0,0,.95-7.75,15.82,15.82,0,0,0-1.91-7.24,6.25,6.25,0,0,0-2.25-2.26,5.36,5.36,0,0,0-3.1-.57,16.42,16.42,0,0,0-1.93.36c-.66.15-1.32.34-2,.55a12,12,0,0,0-3.46,1.74,5.42,5.42,0,0,0-2.09,2.83,6.36,6.36,0,0,0,.22,3.74,10,10,0,0,0,2.15,3.51,6.47,6.47,0,0,0,1.62,1.33,1.61,1.61,0,0,0,1.94,0,1.27,1.27,0,0,1-1,.55,3,3,0,0,1-1.14-.17,7.34,7.34,0,0,1-2-1.08,11,11,0,0,1-3-3.52,7.88,7.88,0,0,1-1-4.83,8,8,0,0,1,2.42-4.52,14.35,14.35,0,0,1,4.09-2.69c.72-.33,1.45-.62,2.19-.88a21.93,21.93,0,0,1,2.34-.69,9.18,9.18,0,0,1,5.49.51,10.32,10.32,0,0,1,4.23,3.52,19.57,19.57,0,0,1,3.22,9.38,27,27,0,0,1-.76,9.66,20.07,20.07,0,0,1-1.87,4.68,15,15,0,0,1-3.34,4.2,11.59,11.59,0,0,1-5.13,2.57,12.71,12.71,0,0,1-5.6-.08,23.64,23.64,0,0,1-8.86-4.5,49.41,49.41,0,0,1-6.73-6.42,35.36,35.36,0,0,1-5.37-7.78,20.42,20.42,0,0,1-1.64-4.72,6.83,6.83,0,0,1-.2-1.28l-.11-1.31c0-.43,0-.88.05-1.32a7.21,7.21,0,0,1,.15-1.32,11,11,0,0,1,.76-2.55,12.68,12.68,0,0,1,1.21-2.31A15.87,15.87,0,0,1,312,94.65a29.31,29.31,0,0,1,8.14-4.47A57.55,57.55,0,0,1,337.66,86.85Z" transform="translate(-130.09 -11.12)"/><path class="cls-2" d="M292.42,45.16a76.89,76.89,0,0,0-16.35,5.91,26.88,26.88,0,0,0-6.77,4.7,13.92,13.92,0,0,0-2.33,3,8.89,8.89,0,0,0-.68,1.64,8.33,8.33,0,0,0-.37,1.7,12.09,12.09,0,0,0,1.79,7,33.19,33.19,0,0,0,4.9,6.43,46.86,46.86,0,0,0,6.12,5.55,18.26,18.26,0,0,0,6.69,3.41,6.3,6.3,0,0,0,5.78-1.21,12.53,12.53,0,0,0,3.62-6,23.15,23.15,0,0,0,1-7.75,15.91,15.91,0,0,0-1.92-7.23A6.18,6.18,0,0,0,291.62,60a5.47,5.47,0,0,0-3.11-.57,18.78,18.78,0,0,0-1.93.36c-.66.16-1.32.34-1.95.55a11.89,11.89,0,0,0-3.47,1.74,5.5,5.5,0,0,0-2.09,2.84,6.33,6.33,0,0,0,.22,3.73,9.9,9.9,0,0,0,2.15,3.52,6.84,6.84,0,0,0,1.62,1.32,1.62,1.62,0,0,0,1.95,0,1.37,1.37,0,0,1-1,.55,3.18,3.18,0,0,1-1.15-.17,7.36,7.36,0,0,1-2-1.09,10.94,10.94,0,0,1-3-3.51,7.83,7.83,0,0,1-.95-4.83,8,8,0,0,1,2.41-4.53,14.59,14.59,0,0,1,4.09-2.68c.72-.33,1.46-.63,2.19-.89a21.47,21.47,0,0,1,2.35-.69,9.16,9.16,0,0,1,5.48.52,10.31,10.31,0,0,1,4.23,3.51,19.57,19.57,0,0,1,3.22,9.39,26.77,26.77,0,0,1-.76,9.66,20.43,20.43,0,0,1-1.87,4.68,15.16,15.16,0,0,1-3.34,4.2,11.68,11.68,0,0,1-5.13,2.56,12.67,12.67,0,0,1-5.59-.07,23.78,23.78,0,0,1-8.87-4.51,48.81,48.81,0,0,1-6.73-6.42,34.76,34.76,0,0,1-5.36-7.78,19.83,19.83,0,0,1-1.65-4.72,6.58,6.58,0,0,1-.2-1.28l-.11-1.3c0-.44,0-.89.05-1.33a8.47,8.47,0,0,1,.15-1.32,11.34,11.34,0,0,1,.76-2.55,12.59,12.59,0,0,1,1.21-2.3A16.14,16.14,0,0,1,266.79,53a29.45,29.45,0,0,1,8.14-4.47A57.92,57.92,0,0,1,292.42,45.16Z" transform="translate(-130.09 -11.12)"/><path class="cls-2" d="M278.33,13.35A77.35,77.35,0,0,0,262,19.26,26.71,26.71,0,0,0,255.21,24a13.51,13.51,0,0,0-2.32,3,8.13,8.13,0,0,0-.69,1.65,7.49,7.49,0,0,0-.36,1.69,12,12,0,0,0,1.78,7,33,33,0,0,0,4.91,6.43,46.22,46.22,0,0,0,6.12,5.55,18.26,18.26,0,0,0,6.69,3.41,6.27,6.27,0,0,0,5.78-1.21,12.54,12.54,0,0,0,3.62-6,23.24,23.24,0,0,0,.95-7.76,15.78,15.78,0,0,0-1.91-7.23,6.2,6.2,0,0,0-2.25-2.27,5.46,5.46,0,0,0-3.11-.57,19.13,19.13,0,0,0-1.92.36c-.67.16-1.33.34-2,.55a12.09,12.09,0,0,0-3.46,1.74,5.51,5.51,0,0,0-2.1,2.84,6.37,6.37,0,0,0,.23,3.74,9.78,9.78,0,0,0,2.14,3.51A6.47,6.47,0,0,0,269,41.65a1.61,1.61,0,0,0,1.94,0,1.32,1.32,0,0,1-1,.55,3.18,3.18,0,0,1-1.15-.17,7.24,7.24,0,0,1-2-1.09,10.92,10.92,0,0,1-3-3.51,7.83,7.83,0,0,1-1-4.83,7.94,7.94,0,0,1,2.42-4.53,14.4,14.4,0,0,1,4.08-2.68c.73-.33,1.46-.62,2.2-.88a19.78,19.78,0,0,1,2.34-.7,9.14,9.14,0,0,1,5.48.52,10.24,10.24,0,0,1,4.23,3.51,19.62,19.62,0,0,1,3.23,9.39,27,27,0,0,1-.77,9.66,20,20,0,0,1-1.86,4.68,15.2,15.2,0,0,1-3.34,4.2,11.61,11.61,0,0,1-5.14,2.56,12.67,12.67,0,0,1-5.59-.07,23.51,23.51,0,0,1-8.86-4.51,48.77,48.77,0,0,1-6.73-6.41,35.6,35.6,0,0,1-5.37-7.78,20.36,20.36,0,0,1-1.65-4.73,6.58,6.58,0,0,1-.19-1.28l-.12-1.3c0-.44,0-.89.06-1.33a7.42,7.42,0,0,1,.15-1.32,11.61,11.61,0,0,1,.75-2.54,12.72,12.72,0,0,1,1.22-2.31,15.9,15.9,0,0,1,3.38-3.64,29.31,29.31,0,0,1,8.14-4.47A57.86,57.86,0,0,1,278.33,13.35Z" transform="translate(-130.09 -11.12)"/><path class="cls-2" d="M252.59,11.12A77.71,77.71,0,0,0,236.25,17a27,27,0,0,0-6.78,4.71,13.87,13.87,0,0,0-2.33,3,8.7,8.7,0,0,0-.68,1.65,8.09,8.09,0,0,0-.37,1.69,12.09,12.09,0,0,0,1.79,7,32.89,32.89,0,0,0,4.9,6.43A46.86,46.86,0,0,0,238.9,47a18.33,18.33,0,0,0,6.69,3.41,6.27,6.27,0,0,0,5.78-1.21,12.51,12.51,0,0,0,3.63-6,23.5,23.5,0,0,0,.95-7.76A15.9,15.9,0,0,0,254,28.2a6.28,6.28,0,0,0-2.25-2.27,5.56,5.56,0,0,0-3.11-.57c-.56.06-1.25.22-1.93.36s-1.32.34-1.95.56A11.89,11.89,0,0,0,241.33,28a5.43,5.43,0,0,0-2.09,2.83,6.28,6.28,0,0,0,.23,3.74,9.78,9.78,0,0,0,2.14,3.51,6.61,6.61,0,0,0,1.62,1.32,1.62,1.62,0,0,0,2,0,1.31,1.31,0,0,1-1,.55,3.18,3.18,0,0,1-1.15-.17,7.34,7.34,0,0,1-2-1.08,11.22,11.22,0,0,1-3-3.52,7.83,7.83,0,0,1-.95-4.83,8,8,0,0,1,2.41-4.53,14.59,14.59,0,0,1,4.09-2.68c.72-.33,1.46-.62,2.2-.88a21.19,21.19,0,0,1,2.34-.7,9.14,9.14,0,0,1,5.48.52,10.31,10.31,0,0,1,4.23,3.51A19.73,19.73,0,0,1,261,35a27,27,0,0,1-.77,9.66,20.85,20.85,0,0,1-1.86,4.68,15.39,15.39,0,0,1-3.34,4.2,11.79,11.79,0,0,1-5.14,2.57,12.82,12.82,0,0,1-5.59-.08,23.51,23.51,0,0,1-8.86-4.51,48.21,48.21,0,0,1-6.73-6.41,35.26,35.26,0,0,1-5.37-7.78,19.91,19.91,0,0,1-1.65-4.73,6.58,6.58,0,0,1-.2-1.28l-.11-1.3a11.84,11.84,0,0,1,.06-1.33,6.6,6.6,0,0,1,.15-1.32,11.61,11.61,0,0,1,.75-2.54,13.33,13.33,0,0,1,1.21-2.31A16.36,16.36,0,0,1,227,18.92a29.86,29.86,0,0,1,8.14-4.47A58,58,0,0,1,252.59,11.12Z" transform="translate(-130.09 -11.12)"/><path class="cls-2" d="M203.28,13.35a58,58,0,0,1,17.49,3.33,29.6,29.6,0,0,1,8.14,4.47,16.09,16.09,0,0,1,3.37,3.64,12.72,12.72,0,0,1,1.22,2.31,11.61,11.61,0,0,1,.75,2.54A6.6,6.6,0,0,1,234.4,31c0,.44.08.89.06,1.33l-.12,1.3a5.9,5.9,0,0,1-.19,1.28,19.91,19.91,0,0,1-1.65,4.73,35.6,35.6,0,0,1-5.37,7.78,48.21,48.21,0,0,1-6.73,6.41,23.51,23.51,0,0,1-8.86,4.51,12.67,12.67,0,0,1-5.59.07,11.61,11.61,0,0,1-5.14-2.56,15.2,15.2,0,0,1-3.34-4.2,20,20,0,0,1-1.86-4.68,27,27,0,0,1-.77-9.66,19.73,19.73,0,0,1,3.23-9.39,10.24,10.24,0,0,1,4.23-3.51,9.14,9.14,0,0,1,5.48-.52,19.78,19.78,0,0,1,2.34.7c.74.26,1.48.55,2.2.88a14.59,14.59,0,0,1,4.09,2.68,8,8,0,0,1,2.41,4.53,7.83,7.83,0,0,1-.95,4.83,11.08,11.08,0,0,1-3,3.51,7.11,7.11,0,0,1-2,1.09,3.18,3.18,0,0,1-1.15.17,1.32,1.32,0,0,1-1-.55,1.62,1.62,0,0,0,1.95,0,6.61,6.61,0,0,0,1.62-1.32,9.78,9.78,0,0,0,2.14-3.51,6.37,6.37,0,0,0,.23-3.74,5.46,5.46,0,0,0-2.1-2.84,12.09,12.09,0,0,0-3.46-1.74c-.63-.21-1.29-.39-2-.55a19.13,19.13,0,0,0-1.92-.36,5.47,5.47,0,0,0-3.11.57,6.28,6.28,0,0,0-2.25,2.27,15.9,15.9,0,0,0-1.91,7.23,23.5,23.5,0,0,0,1,7.76,12.62,12.62,0,0,0,3.62,6,6.29,6.29,0,0,0,5.79,1.21A18.33,18.33,0,0,0,217,49.25a47.51,47.51,0,0,0,6.12-5.55,32.89,32.89,0,0,0,4.9-6.43,12,12,0,0,0,1.78-7,7.49,7.49,0,0,0-.36-1.69,8.13,8.13,0,0,0-.69-1.65,13.51,13.51,0,0,0-2.32-3,26.71,26.71,0,0,0-6.78-4.71A77.35,77.35,0,0,0,203.28,13.35Z" transform="translate(-130.09 -11.12)"/><path class="cls-2" d="M180,13.35a57.92,57.92,0,0,1,17.48,3.33,29.45,29.45,0,0,1,8.14,4.47A16.36,16.36,0,0,1,209,24.79a12.68,12.68,0,0,1,1.21,2.31,11.11,11.11,0,0,1,.76,2.54,7.42,7.42,0,0,1,.15,1.32c0,.44.07.89.05,1.33l-.11,1.3a6.58,6.58,0,0,1-.2,1.28,20.34,20.34,0,0,1-1.64,4.73,35.6,35.6,0,0,1-5.37,7.78,49.34,49.34,0,0,1-6.73,6.41,23.66,23.66,0,0,1-8.86,4.51,12.72,12.72,0,0,1-5.6.07,11.58,11.58,0,0,1-5.13-2.56,15,15,0,0,1-3.34-4.2,20.43,20.43,0,0,1-1.87-4.68,27,27,0,0,1-.76-9.66,19.61,19.61,0,0,1,3.22-9.39A10.37,10.37,0,0,1,179,24.37a9.18,9.18,0,0,1,5.49-.52,19.78,19.78,0,0,1,2.34.7c.74.26,1.47.55,2.19.88a14.31,14.31,0,0,1,4.09,2.68,8.06,8.06,0,0,1,2.42,4.53,7.9,7.9,0,0,1-1,4.83,10.83,10.83,0,0,1-3,3.51,7.11,7.11,0,0,1-2,1.09,3.16,3.16,0,0,1-1.14.17,1.3,1.3,0,0,1-1-.55,1.61,1.61,0,0,0,1.94,0A6.43,6.43,0,0,0,191,40.33a10,10,0,0,0,2.15-3.51,6.37,6.37,0,0,0,.22-3.74,5.44,5.44,0,0,0-2.09-2.84,12.22,12.22,0,0,0-3.46-1.74c-.64-.21-1.3-.39-2-.55a18.78,18.78,0,0,0-1.93-.36,5.49,5.49,0,0,0-3.11.57,6.18,6.18,0,0,0-2.24,2.27,15.78,15.78,0,0,0-1.91,7.23,23,23,0,0,0,1,7.76,12.54,12.54,0,0,0,3.62,6A6.27,6.27,0,0,0,187,52.66a18.26,18.26,0,0,0,6.69-3.41,46.22,46.22,0,0,0,6.12-5.55,32.5,32.5,0,0,0,4.9-6.43,12.09,12.09,0,0,0,1.79-7,8.07,8.07,0,0,0-.36-1.69,8.74,8.74,0,0,0-.69-1.65,13.56,13.56,0,0,0-2.33-3,26.65,26.65,0,0,0-6.77-4.71A77.35,77.35,0,0,0,180,13.35Z" transform="translate(-130.09 -11.12)"/><path class="cls-2" d="M180,32.33a58.22,58.22,0,0,1,17.48,3.33,29.49,29.49,0,0,1,8.14,4.48A16.09,16.09,0,0,1,209,43.77a12.68,12.68,0,0,1,1.21,2.31,11,11,0,0,1,.76,2.55,7.2,7.2,0,0,1,.15,1.31c0,.45.07.89.05,1.33l-.11,1.31a6.83,6.83,0,0,1-.2,1.28,20.42,20.42,0,0,1-1.64,4.72,35.6,35.6,0,0,1-5.37,7.78,48.74,48.74,0,0,1-6.73,6.41,23.51,23.51,0,0,1-8.86,4.51,12.87,12.87,0,0,1-5.6.08,11.7,11.7,0,0,1-5.13-2.57,15,15,0,0,1-3.34-4.2,20.25,20.25,0,0,1-1.87-4.68,27,27,0,0,1-.76-9.66,19.54,19.54,0,0,1,3.22-9.38A10.32,10.32,0,0,1,179,43.35a9.18,9.18,0,0,1,5.49-.51,21.93,21.93,0,0,1,2.34.69c.74.26,1.47.55,2.19.88a14.31,14.31,0,0,1,4.09,2.68,8.06,8.06,0,0,1,2.42,4.53,7.9,7.9,0,0,1-1,4.83,11,11,0,0,1-3,3.52,7.34,7.34,0,0,1-2,1.08,3,3,0,0,1-1.14.17,1.27,1.27,0,0,1-1-.55,1.62,1.62,0,0,0,1.94,0A6.69,6.69,0,0,0,191,59.31a10,10,0,0,0,2.15-3.51,6.36,6.36,0,0,0,.22-3.74,5.38,5.38,0,0,0-2.09-2.83,12,12,0,0,0-3.46-1.74c-.64-.22-1.3-.4-2-.56a18.58,18.58,0,0,0-1.93-.35,5.49,5.49,0,0,0-3.11.56,6.33,6.33,0,0,0-2.24,2.27,15.78,15.78,0,0,0-1.91,7.23,23,23,0,0,0,1,7.76,12.5,12.5,0,0,0,3.62,6A6.3,6.3,0,0,0,187,71.65a18.44,18.44,0,0,0,6.69-3.42,46.22,46.22,0,0,0,6.12-5.55,32.5,32.5,0,0,0,4.9-6.43,12.07,12.07,0,0,0,1.79-7,8.07,8.07,0,0,0-.36-1.69,9,9,0,0,0-.69-1.65,13.56,13.56,0,0,0-2.33-3,26.91,26.91,0,0,0-6.77-4.71A77.91,77.91,0,0,0,180,32.33Z" transform="translate(-130.09 -11.12)"/><path class="cls-2" d="M151.39,34.56a58.17,58.17,0,0,1,17.48,3.33A29.57,29.57,0,0,1,177,42.36,15.9,15.9,0,0,1,180.39,46a12.72,12.72,0,0,1,1.22,2.31,11.61,11.61,0,0,1,.75,2.54,7.42,7.42,0,0,1,.15,1.32c0,.44.07.89.06,1.33l-.12,1.3a6.58,6.58,0,0,1-.19,1.28,19.91,19.91,0,0,1-1.65,4.73,35.6,35.6,0,0,1-5.37,7.78A48.77,48.77,0,0,1,168.51,75a23.37,23.37,0,0,1-8.86,4.51,12.82,12.82,0,0,1-5.59.08A11.73,11.73,0,0,1,148.92,77a15.2,15.2,0,0,1-3.34-4.2,20,20,0,0,1-1.86-4.68,27,27,0,0,1-.77-9.66,19.55,19.55,0,0,1,3.23-9.38,10.19,10.19,0,0,1,4.23-3.52,9.14,9.14,0,0,1,5.48-.52,21.86,21.86,0,0,1,2.34.7c.74.26,1.47.55,2.2.88a14.4,14.4,0,0,1,4.08,2.68,7.94,7.94,0,0,1,2.42,4.53,7.83,7.83,0,0,1-1,4.83,11.07,11.07,0,0,1-3,3.52,7.48,7.48,0,0,1-2,1.08,3.18,3.18,0,0,1-1.15.17,1.29,1.29,0,0,1-1-.55,1.62,1.62,0,0,0,1.94,0,6.74,6.74,0,0,0,1.63-1.33A9.78,9.78,0,0,0,164.51,58a6.36,6.36,0,0,0,.23-3.74,5.45,5.45,0,0,0-2.1-2.83,11.84,11.84,0,0,0-3.46-1.74,20.18,20.18,0,0,0-2-.56c-.67-.14-1.37-.3-1.92-.36a5.54,5.54,0,0,0-3.11.57,6.28,6.28,0,0,0-2.25,2.27A15.78,15.78,0,0,0,148,58.87a23.24,23.24,0,0,0,.95,7.76,12.5,12.5,0,0,0,3.62,6,6.27,6.27,0,0,0,5.78,1.21,18.26,18.26,0,0,0,6.69-3.41,46.93,46.93,0,0,0,6.13-5.55,33.28,33.28,0,0,0,4.9-6.43,12,12,0,0,0,1.78-7,7.49,7.49,0,0,0-.36-1.69,8.37,8.37,0,0,0-.69-1.65,13.51,13.51,0,0,0-2.32-3,27,27,0,0,0-6.78-4.71A77.91,77.91,0,0,0,151.39,34.56Z" transform="translate(-130.09 -11.12)"/><path class="cls-2" d="M157.21,55.77a58.17,58.17,0,0,1,17.48,3.33,29.35,29.35,0,0,1,8.14,4.48,15.87,15.87,0,0,1,3.38,3.63,12.72,12.72,0,0,1,1.22,2.31,11.53,11.53,0,0,1,.75,2.55,7.21,7.21,0,0,1,.15,1.32c0,.44.07.89.06,1.32L188.27,76a7.75,7.75,0,0,1-.19,1.28A20.92,20.92,0,0,1,186.43,82a35.6,35.6,0,0,1-5.37,7.78,49.41,49.41,0,0,1-6.73,6.42,23.49,23.49,0,0,1-8.86,4.5,12.86,12.86,0,0,1-5.6.08,11.64,11.64,0,0,1-5.13-2.57A15.2,15.2,0,0,1,151.4,94a20.25,20.25,0,0,1-1.87-4.68,27,27,0,0,1-.76-9.66A19.48,19.48,0,0,1,152,70.31a10.19,10.19,0,0,1,4.23-3.52,9.14,9.14,0,0,1,5.48-.51,21.93,21.93,0,0,1,2.34.69c.74.26,1.47.55,2.19.88a14.14,14.14,0,0,1,4.09,2.69,7.45,7.45,0,0,1,1.46,9.35,11,11,0,0,1-3,3.52,7.42,7.42,0,0,1-2,1.08,3,3,0,0,1-1.15.17,1.27,1.27,0,0,1-1-.55,1.62,1.62,0,0,0,1.94,0,6.94,6.94,0,0,0,1.63-1.33,10.07,10.07,0,0,0,2.14-3.51,6.36,6.36,0,0,0,.22-3.74,5.42,5.42,0,0,0-2.09-2.83A12,12,0,0,0,165,70.93c-.64-.22-1.29-.4-2-.56a18.91,18.91,0,0,0-1.92-.35,5.38,5.38,0,0,0-3.11.57,6.25,6.25,0,0,0-2.25,2.26,15.78,15.78,0,0,0-1.91,7.23,23,23,0,0,0,1,7.76,12.5,12.5,0,0,0,3.62,6,6.3,6.3,0,0,0,5.78,1.22,18.44,18.44,0,0,0,6.69-3.42A46.22,46.22,0,0,0,177,86.12a32.5,32.5,0,0,0,4.9-6.43,12,12,0,0,0,1.79-7,7.73,7.73,0,0,0-.36-1.69,8.37,8.37,0,0,0-.69-1.65,13.56,13.56,0,0,0-2.33-3,26.91,26.91,0,0,0-6.77-4.71A77.91,77.91,0,0,0,157.21,55.77Z" transform="translate(-130.09 -11.12)"/><path class="cls-2" d="M225.77,62.31a57.82,57.82,0,0,1,4.74,17.16,29.38,29.38,0,0,1-.41,9.27,16,16,0,0,1-1.77,4.64,12.45,12.45,0,0,1-1.53,2.11,11.11,11.11,0,0,1-2,1.8,7.35,7.35,0,0,1-1.12.72c-.39.21-.77.46-1.16.64l-1.22.47a6.35,6.35,0,0,1-1.24.39,20.22,20.22,0,0,1-5,.61,35.38,35.38,0,0,1-9.35-1.37,49.39,49.39,0,0,1-8.74-3.2,23.78,23.78,0,0,1-8-6,12.86,12.86,0,0,1-2.54-5,11.85,11.85,0,0,1,0-5.74,15.26,15.26,0,0,1,2.3-4.86,20.51,20.51,0,0,1,3.37-3.74,27,27,0,0,1,8.32-5,19.67,19.67,0,0,1,9.85-1.25,10.24,10.24,0,0,1,5,2.24A9.17,9.17,0,0,1,218.34,71a21.72,21.72,0,0,1,.41,2.41,22.79,22.79,0,0,1,.18,2.35,14.58,14.58,0,0,1-.6,4.86,7.94,7.94,0,0,1-3,4.17,7.84,7.84,0,0,1-4.76,1.27,10.94,10.94,0,0,1-4.49-1.16,7.27,7.27,0,0,1-1.87-1.34,3.17,3.17,0,0,1-.66-1,1.32,1.32,0,0,1,.07-1.12c-.24.76.34,1.35.89,1.73a6.56,6.56,0,0,0,1.9.87,9.9,9.9,0,0,0,4.1.37A6.35,6.35,0,0,0,214,83a5.45,5.45,0,0,0,1.61-3.13,11.94,11.94,0,0,0,0-3.87,19.53,19.53,0,0,0-.37-2,16.23,16.23,0,0,0-.53-1.89,5.44,5.44,0,0,0-1.88-2.54,6.27,6.27,0,0,0-3-1A15.82,15.82,0,0,0,202.48,70a23.27,23.27,0,0,0-6.54,4.28,12.66,12.66,0,0,0-3.81,5.92A6.31,6.31,0,0,0,193.6,86a18.16,18.16,0,0,0,6,4.49,45.65,45.65,0,0,0,7.68,3A32.7,32.7,0,0,0,215.24,95a12,12,0,0,0,7-1.47,7.82,7.82,0,0,0,1.36-1.07,8.47,8.47,0,0,0,1.17-1.35,13.7,13.7,0,0,0,1.67-3.41,26.9,26.9,0,0,0,1.22-8.16A77.28,77.28,0,0,0,225.77,62.31Z" transform="translate(-130.09 -11.12)"/><path class="cls-2" d="M245.8,53.54a57.61,57.61,0,0,1,4.74,17.16,29.44,29.44,0,0,1-.41,9.28,16.23,16.23,0,0,1-1.76,4.64,12.93,12.93,0,0,1-1.54,2.11,11.94,11.94,0,0,1-2,1.8,7.64,7.64,0,0,1-1.12.72c-.38.21-.76.45-1.16.63l-1.22.48a8.08,8.08,0,0,1-1.24.39,20.22,20.22,0,0,1-5,.61A35,35,0,0,1,225.83,90a48.52,48.52,0,0,1-8.73-3.2,23.42,23.42,0,0,1-8-6,12.65,12.65,0,0,1-2.54-5,11.62,11.62,0,0,1,0-5.74,15.18,15.18,0,0,1,2.29-4.85,20.58,20.58,0,0,1,3.37-3.75,27,27,0,0,1,8.33-5,19.63,19.63,0,0,1,9.84-1.26,10.33,10.33,0,0,1,5,2.24,9.21,9.21,0,0,1,2.88,4.69,20.42,20.42,0,0,1,.42,2.41c.09.78.15,1.57.17,2.36a14.27,14.27,0,0,1-.6,4.85,7.48,7.48,0,0,1-7.74,5.45,11.18,11.18,0,0,1-4.49-1.16,7.52,7.52,0,0,1-1.87-1.34,2.89,2.89,0,0,1-.66-1,1.3,1.3,0,0,1,.06-1.11c-.23.75.34,1.34.89,1.73a6.74,6.74,0,0,0,1.91.87,9.89,9.89,0,0,0,4.1.37A6.35,6.35,0,0,0,234,74.24a5.42,5.42,0,0,0,1.61-3.13,11.72,11.72,0,0,0,0-3.88c-.09-.66-.21-1.33-.36-2s-.34-1.36-.53-1.88a5.52,5.52,0,0,0-1.89-2.54,6.14,6.14,0,0,0-3-1,15.7,15.7,0,0,0-7.33,1.48A23.14,23.14,0,0,0,216,65.56a12.51,12.51,0,0,0-3.82,5.92,6.31,6.31,0,0,0,1.47,5.72,18.54,18.54,0,0,0,6,4.49,47.41,47.41,0,0,0,7.68,3,33.28,33.28,0,0,0,7.94,1.55,12,12,0,0,0,7-1.48,7.65,7.65,0,0,0,1.35-1.07,7.92,7.92,0,0,0,1.17-1.34A13.6,13.6,0,0,0,246.5,79a26.83,26.83,0,0,0,1.23-8.15A77.45,77.45,0,0,0,245.8,53.54Z" transform="translate(-130.09 -11.12)"/><path class="cls-2" d="M271.72,57.11a58.06,58.06,0,0,1,4.74,17.15,29.45,29.45,0,0,1-.42,9.28,15.94,15.94,0,0,1-1.76,4.64,13.48,13.48,0,0,1-1.53,2.11,12,12,0,0,1-2,1.8,8.11,8.11,0,0,1-1.11.72c-.39.21-.77.46-1.17.64l-1.22.47a6.48,6.48,0,0,1-1.23.39,20.36,20.36,0,0,1-5,.61,35.1,35.1,0,0,1-9.35-1.38,48.52,48.52,0,0,1-8.73-3.2,23.42,23.42,0,0,1-8-6,12.79,12.79,0,0,1-2.54-5,11.62,11.62,0,0,1,0-5.74,15.18,15.18,0,0,1,2.29-4.85,19.89,19.89,0,0,1,3.38-3.74,26.72,26.72,0,0,1,8.32-5,19.55,19.55,0,0,1,9.85-1.25,10.21,10.21,0,0,1,5,2.24,9.1,9.1,0,0,1,2.88,4.69,19.93,19.93,0,0,1,.42,2.4c.09.78.15,1.57.18,2.36a14.52,14.52,0,0,1-.6,4.85,8,8,0,0,1-3,4.17,7.85,7.85,0,0,1-4.76,1.28A11.06,11.06,0,0,1,252,79.69a7.52,7.52,0,0,1-1.87-1.34,3,3,0,0,1-.66-1,1.3,1.3,0,0,1,.06-1.11,1.62,1.62,0,0,0,.89,1.73,6.74,6.74,0,0,0,1.91.87,9.89,9.89,0,0,0,4.1.37,6.32,6.32,0,0,0,3.45-1.45,5.49,5.49,0,0,0,1.62-3.13,12,12,0,0,0,0-3.88c-.09-.66-.22-1.33-.37-2a19,19,0,0,0-.53-1.88,5.45,5.45,0,0,0-1.89-2.54,6.24,6.24,0,0,0-3-1,15.89,15.89,0,0,0-7.34,1.48,23.14,23.14,0,0,0-6.53,4.28A12.53,12.53,0,0,0,238.08,75a6.28,6.28,0,0,0,1.47,5.72,18.35,18.35,0,0,0,6,4.49,47.16,47.16,0,0,0,7.69,3,33.2,33.2,0,0,0,7.93,1.55,12.11,12.11,0,0,0,7-1.47,8.72,8.72,0,0,0,1.36-1.08A8.92,8.92,0,0,0,270.75,86a13.58,13.58,0,0,0,1.66-3.42,26.83,26.83,0,0,0,1.23-8.15A77.28,77.28,0,0,0,271.72,57.11Z" transform="translate(-130.09 -11.12)"/><path class="cls-2" d="M320.81,76.19a58.14,58.14,0,0,1,4.74,17.15,29.43,29.43,0,0,1-.41,9.28,16,16,0,0,1-1.77,4.64,13,13,0,0,1-1.53,2.11,11.11,11.11,0,0,1-1.95,1.8,7.35,7.35,0,0,1-1.12.72c-.39.21-.77.46-1.17.64l-1.22.47a6.48,6.48,0,0,1-1.23.39,20.24,20.24,0,0,1-5,.61,35.1,35.1,0,0,1-9.35-1.38,48,48,0,0,1-8.73-3.2,23.61,23.61,0,0,1-8-6,12.83,12.83,0,0,1-2.54-5,11.62,11.62,0,0,1,0-5.74,15.29,15.29,0,0,1,2.29-4.85,20.2,20.2,0,0,1,3.38-3.74,27,27,0,0,1,8.32-5,19.55,19.55,0,0,1,9.85-1.25,10.21,10.21,0,0,1,5,2.24,9.12,9.12,0,0,1,2.89,4.69,22,22,0,0,1,.41,2.4c.09.78.16,1.57.18,2.36a14.58,14.58,0,0,1-.6,4.86,8,8,0,0,1-3,4.16,7.85,7.85,0,0,1-4.76,1.28,10.94,10.94,0,0,1-4.49-1.16,7.27,7.27,0,0,1-1.87-1.34,3,3,0,0,1-.66-1,1.36,1.36,0,0,1,.06-1.12,1.61,1.61,0,0,0,.9,1.73,6.56,6.56,0,0,0,1.9.87,9.9,9.9,0,0,0,4.1.37A6.32,6.32,0,0,0,309,96.88a5.43,5.43,0,0,0,1.62-3.13,11.94,11.94,0,0,0,0-3.87c-.09-.67-.22-1.34-.37-2a19,19,0,0,0-.53-1.88,5.5,5.5,0,0,0-1.88-2.54,6.31,6.31,0,0,0-3-1,15.82,15.82,0,0,0-7.33,1.48A23.27,23.27,0,0,0,291,88.2a12.58,12.58,0,0,0-3.81,5.92,6.28,6.28,0,0,0,1.47,5.72,18.16,18.16,0,0,0,6,4.49,46.51,46.51,0,0,0,7.68,3,32.71,32.71,0,0,0,7.93,1.55,12,12,0,0,0,7-1.47,7.78,7.78,0,0,0,1.36-1.08,8.45,8.45,0,0,0,1.17-1.34,13.7,13.7,0,0,0,1.67-3.41,26.9,26.9,0,0,0,1.22-8.16A77.28,77.28,0,0,0,320.81,76.19Z" transform="translate(-130.09 -11.12)"/><path class="cls-2" d="M325.45,67.68a57.92,57.92,0,0,1,4.75,17.16,29.39,29.39,0,0,1-.42,9.27A15.94,15.94,0,0,1,328,98.75a13,13,0,0,1-1.53,2.11,11.18,11.18,0,0,1-2,1.8,6.58,6.58,0,0,1-1.11.72c-.39.22-.77.46-1.17.64l-1.22.47a6.48,6.48,0,0,1-1.23.39,20.36,20.36,0,0,1-5,.61,35.5,35.5,0,0,1-9.35-1.37,49.3,49.3,0,0,1-8.73-3.2,23.68,23.68,0,0,1-8-6,12.65,12.65,0,0,1-2.54-5,11.61,11.61,0,0,1,0-5.74,15.24,15.24,0,0,1,2.29-4.86A20.2,20.2,0,0,1,292,75.64a26.69,26.69,0,0,1,8.32-5,19.55,19.55,0,0,1,9.85-1.26,10.21,10.21,0,0,1,5,2.24A9.14,9.14,0,0,1,318,76.36a20.07,20.07,0,0,1,.42,2.41c.09.77.15,1.56.17,2.36A14.28,14.28,0,0,1,318,86a8,8,0,0,1-3,4.17,7.8,7.8,0,0,1-4.75,1.27,10.9,10.9,0,0,1-4.49-1.16,7.27,7.27,0,0,1-1.87-1.34,3,3,0,0,1-.66-1,1.3,1.3,0,0,1,.06-1.11,1.61,1.61,0,0,0,.89,1.72,6.74,6.74,0,0,0,1.91.87,9.89,9.89,0,0,0,4.1.37,6.32,6.32,0,0,0,3.45-1.45,5.46,5.46,0,0,0,1.62-3.13,11.94,11.94,0,0,0,0-3.87c-.09-.67-.22-1.34-.37-2a18.47,18.47,0,0,0-.53-1.89A5.42,5.42,0,0,0,312.52,75a6.24,6.24,0,0,0-3-1,15.89,15.89,0,0,0-7.34,1.48,23.17,23.17,0,0,0-6.53,4.29,12.5,12.5,0,0,0-3.81,5.91,6.29,6.29,0,0,0,1.46,5.72,18.36,18.36,0,0,0,6,4.49,45.42,45.42,0,0,0,7.69,3,33.23,33.23,0,0,0,7.93,1.56,12,12,0,0,0,7-1.48,9.66,9.66,0,0,0,2.53-2.42,13.67,13.67,0,0,0,1.66-3.41A26.9,26.9,0,0,0,327.38,85,76.72,76.72,0,0,0,325.45,67.68Z" transform="translate(-130.09 -11.12)"/><path class="cls-2" d="M305.42,29.76a57.61,57.61,0,0,1,4.74,17.16,29.45,29.45,0,0,1-.41,9.28A16,16,0,0,1,308,60.83a12.06,12.06,0,0,1-1.53,2.11,11.11,11.11,0,0,1-1.95,1.8,6.28,6.28,0,0,1-1.12.72,13.1,13.1,0,0,1-1.16.64l-1.22.47a6.35,6.35,0,0,1-1.24.39,19.75,19.75,0,0,1-5,.61,35.38,35.38,0,0,1-9.35-1.37,49.3,49.3,0,0,1-8.73-3.2,23.55,23.55,0,0,1-8-6,12.65,12.65,0,0,1-2.54-5,11.61,11.61,0,0,1,0-5.74,15.24,15.24,0,0,1,2.29-4.86,20.51,20.51,0,0,1,3.37-3.74,26.86,26.86,0,0,1,8.33-4.95,19.63,19.63,0,0,1,9.84-1.26,10.33,10.33,0,0,1,5,2.24A9.21,9.21,0,0,1,298,38.44a22.71,22.71,0,0,1,.42,2.41c.09.77.15,1.56.17,2.36a14.3,14.3,0,0,1-.6,4.85,7.48,7.48,0,0,1-7.74,5.45,11.12,11.12,0,0,1-4.5-1.17A7.63,7.63,0,0,1,283.87,51a3,3,0,0,1-.65-1,1.3,1.3,0,0,1,.06-1.11,1.61,1.61,0,0,0,.89,1.72,6.92,6.92,0,0,0,1.91.88,9.88,9.88,0,0,0,4.1.36,6.35,6.35,0,0,0,3.45-1.45,5.45,5.45,0,0,0,1.61-3.13,11.94,11.94,0,0,0,0-3.87,19.53,19.53,0,0,0-.37-2,18.6,18.6,0,0,0-.52-1.89A5.49,5.49,0,0,0,292.49,37a6.28,6.28,0,0,0-3-1,15.71,15.71,0,0,0-7.33,1.49,22.79,22.79,0,0,0-6.53,4.28,12.53,12.53,0,0,0-3.82,5.91,6.3,6.3,0,0,0,1.47,5.72,18.42,18.42,0,0,0,6,4.5,46.48,46.48,0,0,0,7.68,3,33.3,33.3,0,0,0,7.94,1.56,12,12,0,0,0,7-1.48A7.37,7.37,0,0,0,303.28,60a7.62,7.62,0,0,0,1.17-1.35,13.7,13.7,0,0,0,1.67-3.41A26.54,26.54,0,0,0,307.34,47,76.7,76.7,0,0,0,305.42,29.76Z" transform="translate(-130.09 -11.12)"/><path class="cls-2" d="M280.21,12.11A58.21,58.21,0,0,1,285,29.27a29.45,29.45,0,0,1-.41,9.28,16.31,16.31,0,0,1-1.77,4.63,12.6,12.6,0,0,1-1.53,2.11,10.83,10.83,0,0,1-2,1.8,6.2,6.2,0,0,1-1.11.72c-.39.22-.77.46-1.17.64l-1.22.47a6.48,6.48,0,0,1-1.23.39,19.88,19.88,0,0,1-5,.61,35.5,35.5,0,0,1-9.35-1.37,49.58,49.58,0,0,1-8.73-3.2,23.55,23.55,0,0,1-8-6,12.79,12.79,0,0,1-2.54-5,11.61,11.61,0,0,1,0-5.74,15.24,15.24,0,0,1,2.29-4.86,20.2,20.2,0,0,1,3.38-3.74,26.81,26.81,0,0,1,8.32-5,19.66,19.66,0,0,1,9.85-1.26,10.3,10.3,0,0,1,5,2.24,9.16,9.16,0,0,1,2.89,4.69,22.53,22.53,0,0,1,.41,2.41c.09.77.16,1.56.18,2.36a14.55,14.55,0,0,1-.6,4.85,8,8,0,0,1-3,4.17A7.92,7.92,0,0,1,265,35.86a11.07,11.07,0,0,1-4.49-1.17,7,7,0,0,1-1.87-1.34,3,3,0,0,1-.66-1,1.34,1.34,0,0,1,.06-1.11c-.23.75.34,1.34.9,1.72a6.86,6.86,0,0,0,1.9.88,9.89,9.89,0,0,0,4.1.36,6.32,6.32,0,0,0,3.45-1.45A5.4,5.4,0,0,0,270,29.67a11.94,11.94,0,0,0,0-3.87c-.09-.67-.22-1.34-.37-2a18.47,18.47,0,0,0-.53-1.89,5.42,5.42,0,0,0-1.89-2.53,6.24,6.24,0,0,0-3-1,15.78,15.78,0,0,0-7.34,1.49,22.93,22.93,0,0,0-6.53,4.28A12.5,12.5,0,0,0,246.57,30,6.27,6.27,0,0,0,248,35.76a18.31,18.31,0,0,0,6,4.5,46.48,46.48,0,0,0,7.68,3,33.23,33.23,0,0,0,7.93,1.56,12,12,0,0,0,7-1.48,8.1,8.1,0,0,0,1.36-1.07A8.54,8.54,0,0,0,279.24,41a13.34,13.34,0,0,0,1.66-3.41,26.85,26.85,0,0,0,1.23-8.16A77.28,77.28,0,0,0,280.21,12.11Z" transform="translate(-130.09 -11.12)"/><path class="cls-2" d="M245.8,12.11a57.61,57.61,0,0,1,4.74,17.16,29.45,29.45,0,0,1-.41,9.28,16.28,16.28,0,0,1-1.76,4.63,12.12,12.12,0,0,1-1.54,2.11,11.11,11.11,0,0,1-2,1.8,6.28,6.28,0,0,1-1.12.72,13.1,13.1,0,0,1-1.16.64l-1.22.47a6.35,6.35,0,0,1-1.24.39,19.75,19.75,0,0,1-5,.61,35.38,35.38,0,0,1-9.35-1.37,49.3,49.3,0,0,1-8.73-3.2,23.55,23.55,0,0,1-8-6,12.65,12.65,0,0,1-2.54-5,11.61,11.61,0,0,1,0-5.74,15.24,15.24,0,0,1,2.29-4.86,20.51,20.51,0,0,1,3.37-3.74,26.86,26.86,0,0,1,8.33-5,19.63,19.63,0,0,1,9.84-1.26,10.33,10.33,0,0,1,5,2.24,9.21,9.21,0,0,1,2.88,4.69,20.42,20.42,0,0,1,.42,2.41c.09.77.15,1.56.17,2.36a14.3,14.3,0,0,1-.6,4.85,7.48,7.48,0,0,1-7.74,5.45,11,11,0,0,1-4.49-1.17,7,7,0,0,1-1.87-1.34,2.85,2.85,0,0,1-.66-1,1.3,1.3,0,0,1,.06-1.11,1.61,1.61,0,0,0,.89,1.72,7.05,7.05,0,0,0,1.91.88,9.88,9.88,0,0,0,4.1.36A6.35,6.35,0,0,0,234,32.8a5.39,5.39,0,0,0,1.61-3.13,11.66,11.66,0,0,0,0-3.87c-.09-.67-.21-1.34-.36-2s-.34-1.37-.53-1.89a5.49,5.49,0,0,0-1.89-2.53,6.25,6.25,0,0,0-3-1,15.71,15.71,0,0,0-7.33,1.49A22.93,22.93,0,0,0,216,24.13,12.53,12.53,0,0,0,212.16,30a6.3,6.3,0,0,0,1.47,5.72,18.42,18.42,0,0,0,6,4.5,46.48,46.48,0,0,0,7.68,3,33.3,33.3,0,0,0,7.94,1.56,12,12,0,0,0,7-1.48A9.42,9.42,0,0,0,244.83,41a13.7,13.7,0,0,0,1.67-3.41,26.85,26.85,0,0,0,1.23-8.16A77.3,77.3,0,0,0,245.8,12.11Z" transform="translate(-130.09 -11.12)"/><path class="cls-2" d="M348.55,98.2a57.76,57.76,0,0,1,4.74,17.15,29.44,29.44,0,0,1-.41,9.28,16,16,0,0,1-1.77,4.64,12.86,12.86,0,0,1-1.53,2.11,11.51,11.51,0,0,1-1.95,1.8,8.21,8.21,0,0,1-1.12.72c-.38.21-.76.46-1.16.64l-1.22.47a6.35,6.35,0,0,1-1.24.39,20.22,20.22,0,0,1-5,.61,35,35,0,0,1-9.35-1.38,48.14,48.14,0,0,1-8.74-3.2,23.48,23.48,0,0,1-7.95-6,12.78,12.78,0,0,1-2.55-5,11.73,11.73,0,0,1,0-5.74,15.18,15.18,0,0,1,2.29-4.85,20.51,20.51,0,0,1,3.37-3.74,26.88,26.88,0,0,1,8.33-5,19.51,19.51,0,0,1,9.84-1.25,10.24,10.24,0,0,1,5,2.24,9.17,9.17,0,0,1,2.88,4.69,22,22,0,0,1,.41,2.4,23.2,23.2,0,0,1,.18,2.36,14.27,14.27,0,0,1-.6,4.85,7.48,7.48,0,0,1-7.74,5.45,11.11,11.11,0,0,1-4.5-1.16,7.52,7.52,0,0,1-1.87-1.34,3.22,3.22,0,0,1-.66-1,1.3,1.3,0,0,1,.07-1.11c-.24.75.34,1.35.89,1.73a6.56,6.56,0,0,0,1.9.87,9.92,9.92,0,0,0,4.1.37,6.35,6.35,0,0,0,3.46-1.45,5.48,5.48,0,0,0,1.61-3.13,12,12,0,0,0,0-3.88c-.09-.66-.21-1.33-.37-2a16.6,16.6,0,0,0-.53-1.88,5.44,5.44,0,0,0-1.88-2.54,6.27,6.27,0,0,0-3-1,15.82,15.82,0,0,0-7.33,1.48,23,23,0,0,0-6.53,4.28,12.6,12.6,0,0,0-3.82,5.92,6.31,6.31,0,0,0,1.47,5.72,18.26,18.26,0,0,0,6,4.49,47.41,47.41,0,0,0,7.68,3,33.18,33.18,0,0,0,7.94,1.55,12.08,12.08,0,0,0,7-1.47,7.87,7.87,0,0,0,1.36-1.08,8.39,8.39,0,0,0,1.17-1.34,13.6,13.6,0,0,0,1.67-3.42,26.83,26.83,0,0,0,1.22-8.15A77.28,77.28,0,0,0,348.55,98.2Z" transform="translate(-130.09 -11.12)"/><path class="cls-2" d="M335.08,121.44a57.46,57.46,0,0,1,4.74,17.15,29.44,29.44,0,0,1-.41,9.28,16,16,0,0,1-1.77,4.64,12.3,12.3,0,0,1-1.53,2.11,11.94,11.94,0,0,1-1.95,1.8,7.64,7.64,0,0,1-1.12.72c-.38.21-.76.45-1.16.63l-1.22.48a8.08,8.08,0,0,1-1.24.39,20.22,20.22,0,0,1-5,.61,35,35,0,0,1-9.35-1.38,48.52,48.52,0,0,1-8.73-3.2,23.42,23.42,0,0,1-8-6,12.65,12.65,0,0,1-2.54-5,11.62,11.62,0,0,1,0-5.74,15.18,15.18,0,0,1,2.29-4.85,20.58,20.58,0,0,1,3.37-3.75,27,27,0,0,1,8.33-4.95,19.52,19.52,0,0,1,9.84-1.25,10.24,10.24,0,0,1,5,2.24,9.14,9.14,0,0,1,2.88,4.68,20.42,20.42,0,0,1,.42,2.41c.09.78.15,1.57.17,2.36a14.27,14.27,0,0,1-.6,4.85,7.48,7.48,0,0,1-7.74,5.45,11,11,0,0,1-4.49-1.16,7.52,7.52,0,0,1-1.87-1.34,2.89,2.89,0,0,1-.66-1,1.3,1.3,0,0,1,.06-1.11,1.62,1.62,0,0,0,.89,1.73,6.74,6.74,0,0,0,1.91.87,9.89,9.89,0,0,0,4.1.37,6.35,6.35,0,0,0,3.45-1.45A5.42,5.42,0,0,0,324.9,139a11.72,11.72,0,0,0,0-3.88c-.09-.66-.21-1.33-.36-2s-.34-1.36-.53-1.88a5.52,5.52,0,0,0-1.89-2.54,6.14,6.14,0,0,0-3-1,15.82,15.82,0,0,0-7.33,1.48,23.14,23.14,0,0,0-6.53,4.28,12.55,12.55,0,0,0-3.82,5.92,6.31,6.31,0,0,0,1.47,5.72,18.4,18.4,0,0,0,6,4.49,47.41,47.41,0,0,0,7.68,3,33.28,33.28,0,0,0,7.94,1.55,12.06,12.06,0,0,0,7-1.47,9.68,9.68,0,0,0,2.53-2.42,13.6,13.6,0,0,0,1.67-3.42,26.83,26.83,0,0,0,1.23-8.15A77.3,77.3,0,0,0,335.08,121.44Z" transform="translate(-130.09 -11.12)"/><path class="cls-2" d="M337.08,156.08a40.67,40.67,0,0,1-9,8.72,20.9,20.9,0,0,1-5.88,2.88,10.06,10.06,0,0,1-7.06-.38,11.27,11.27,0,0,1-5-5.05,25.8,25.8,0,0,1-2.3-6.25,29.14,29.14,0,0,1-.62-3.2c-.07-.54-.16-1.08-.21-1.63l-.11-1.66a16.88,16.88,0,0,1,1-6.94,7.82,7.82,0,0,1,.92-1.7,7.93,7.93,0,0,1,1.31-1.54,8.14,8.14,0,0,1,3.55-1.9,10.78,10.78,0,0,1,1.92-.3,14.34,14.34,0,0,1,1.86.06,12.83,12.83,0,0,1,1.77.31,12.07,12.07,0,0,1,1.68.51,19,19,0,0,1,5.87,3.5,13.34,13.34,0,0,1,4.09,5.67,8.68,8.68,0,0,1,.42,1.86,6.65,6.65,0,0,1-.12,2,6.07,6.07,0,0,1-1.92,3.35,9.58,9.58,0,0,1-1.34,1.09c-.45.32-.91.63-1.4.91a10.15,10.15,0,0,1-3.21,1.26,5.6,5.6,0,0,1-3.59-.45,5.46,5.46,0,0,1-2.39-2.51,7.78,7.78,0,0,1-.8-3.18,5.51,5.51,0,0,1,.2-1.61,2.29,2.29,0,0,1,.37-.73.93.93,0,0,1,.71-.33c-.54.11-.72.66-.77,1.13a4.94,4.94,0,0,0,.11,1.48,7,7,0,0,0,1.15,2.66,4.46,4.46,0,0,0,2.06,1.65,3.84,3.84,0,0,0,2.48-.05,8.59,8.59,0,0,0,2.42-1.29q.57-.42,1.11-.9a7.42,7.42,0,0,0,1-1,3.64,3.64,0,0,0,.95-2,4,4,0,0,0-.39-2.22,11.17,11.17,0,0,0-3.39-4.05,15.27,15.27,0,0,0-4.85-2.59,8.75,8.75,0,0,0-4.95-.38,4.41,4.41,0,0,0-3,2.86,13.08,13.08,0,0,0-.78,5.24l.07,1.43c0,.48.12,1,.18,1.45.09,1,.31,1.93.47,2.9a22.15,22.15,0,0,0,1.71,5.44,8.65,8.65,0,0,0,3.29,3.87,6.22,6.22,0,0,0,2.36.74,9.7,9.7,0,0,0,2.67-.12,18.65,18.65,0,0,0,5.47-2A54.36,54.36,0,0,0,337.08,156.08Z" transform="translate(-130.09 -11.12)"/><path class="cls-2" d="M143,65.52a58.12,58.12,0,0,1,16.76,6,29.09,29.09,0,0,1,7.35,5.67,16.07,16.07,0,0,1,2.78,4.11,12.83,12.83,0,0,1,.84,2.47,11,11,0,0,1,.35,2.63,6.55,6.55,0,0,1-.05,1.33c-.05.44-.07.89-.15,1.32l-.32,1.27a7.14,7.14,0,0,1-.38,1.24A20.67,20.67,0,0,1,167.82,96a35.11,35.11,0,0,1-6.51,6.85,48.07,48.07,0,0,1-7.64,5.3,23.54,23.54,0,0,1-9.45,3.09,12.81,12.81,0,0,1-5.54-.79,11.64,11.64,0,0,1-4.67-3.33,15.12,15.12,0,0,1-2.66-4.67,20.5,20.5,0,0,1-1.12-4.91,27,27,0,0,1,.74-9.66,19.54,19.54,0,0,1,4.64-8.77,10.15,10.15,0,0,1,4.72-2.82,9,9,0,0,1,5.49.34,20,20,0,0,1,2.21,1c.69.37,1.37.77,2,1.21a14.46,14.46,0,0,1,3.63,3.29A8,8,0,0,1,155.38,87a7.89,7.89,0,0,1-1.69,4.62,11.18,11.18,0,0,1-3.54,3,7.28,7.28,0,0,1-2.17.76,3.23,3.23,0,0,1-1.16,0,1.33,1.33,0,0,1-.87-.69,1.61,1.61,0,0,0,1.92.26,6.69,6.69,0,0,0,1.81-1.05,10,10,0,0,0,2.66-3.15,6.28,6.28,0,0,0,.8-3.66A5.46,5.46,0,0,0,151.51,84a12,12,0,0,0-3.15-2.25c-.6-.31-1.22-.59-1.85-.85a18.11,18.11,0,0,0-1.85-.65,5.44,5.44,0,0,0-3.16.08,6.29,6.29,0,0,0-2.57,1.89,15.87,15.87,0,0,0-3,6.86,23,23,0,0,0-.26,7.8,12.51,12.51,0,0,0,2.65,6.52,6.26,6.26,0,0,0,5.52,2.09,18.46,18.46,0,0,0,7.14-2.33,47.15,47.15,0,0,0,6.9-4.54,33.12,33.12,0,0,0,5.84-5.6,12.06,12.06,0,0,0,2.84-6.6,9.47,9.47,0,0,0-.53-3.46,13.33,13.33,0,0,0-1.83-3.33,26.58,26.58,0,0,0-6-5.69A77.07,77.07,0,0,0,143,65.52Z" transform="translate(-130.09 -11.12)"/><path class="cls-2" d="M148.26,86.94a58.2,58.2,0,0,1,16.76,6,29.36,29.36,0,0,1,7.35,5.68,16.07,16.07,0,0,1,2.78,4.11,12.83,12.83,0,0,1,.84,2.47,11,11,0,0,1,.35,2.63,7.37,7.37,0,0,1-.05,1.33c0,.44-.07.89-.15,1.32l-.32,1.27a6.3,6.3,0,0,1-.39,1.23,20.48,20.48,0,0,1-2.35,4.42,35.41,35.41,0,0,1-6.51,6.85,48.07,48.07,0,0,1-7.64,5.3,23.59,23.59,0,0,1-9.45,3.09,12.79,12.79,0,0,1-5.54-.79,11.74,11.74,0,0,1-4.68-3.33,15.09,15.09,0,0,1-2.65-4.67,20.5,20.5,0,0,1-1.12-4.91,27,27,0,0,1,.74-9.66,19.54,19.54,0,0,1,4.64-8.77,10.15,10.15,0,0,1,4.72-2.82,9.12,9.12,0,0,1,5.49.33,21.9,21.9,0,0,1,2.21,1c.69.37,1.37.77,2,1.21a14.61,14.61,0,0,1,3.63,3.28,8,8,0,0,1,1.68,4.85,7.75,7.75,0,0,1-1.69,4.62,11,11,0,0,1-3.53,3,7.28,7.28,0,0,1-2.17.76,3.23,3.23,0,0,1-1.16,0,1.37,1.37,0,0,1-.88-.69,1.63,1.63,0,0,0,1.93.26,6.47,6.47,0,0,0,1.81-1.06,10,10,0,0,0,2.66-3.14,6.28,6.28,0,0,0,.8-3.66,5.46,5.46,0,0,0-1.63-3.12,12.14,12.14,0,0,0-3.15-2.25c-.6-.31-1.22-.59-1.85-.85a16,16,0,0,0-1.85-.65,5.44,5.44,0,0,0-3.16.08,6.29,6.29,0,0,0-2.57,1.89,16,16,0,0,0-3,6.85,23.34,23.34,0,0,0-.25,7.81,12.5,12.5,0,0,0,2.64,6.52,6.29,6.29,0,0,0,5.53,2.09,18.37,18.37,0,0,0,7.13-2.33,46.71,46.71,0,0,0,6.91-4.54,32.71,32.71,0,0,0,5.83-5.6,12,12,0,0,0,2.85-6.6,8.38,8.38,0,0,0-.1-1.73,8.26,8.26,0,0,0-.43-1.73,13.33,13.33,0,0,0-1.83-3.33,26.79,26.79,0,0,0-6-5.69A77.35,77.35,0,0,0,148.26,86.94Z" transform="translate(-130.09 -11.12)"/><path class="cls-2" d="M166.33,138.36A36.69,36.69,0,0,1,177,142.18a18.69,18.69,0,0,1,4.69,3.61,9.12,9.12,0,0,1,2.53,5.88,10.15,10.15,0,0,1-2.08,6.09,23,23,0,0,1-4.14,4.38,27.34,27.34,0,0,1-2.35,1.78c-.41.28-.81.57-1.23.83l-1.31.75a15.13,15.13,0,0,1-6,2,7.38,7.38,0,0,1-1.75-.06,7,7,0,0,1-1.77-.44,7.39,7.39,0,0,1-3-2.12,8.77,8.77,0,0,1-1-1.44,11.59,11.59,0,0,1-.69-1.53,10.72,10.72,0,0,1-.46-1.56,10.49,10.49,0,0,1-.26-1.57,17,17,0,0,1,.48-6.15,12,12,0,0,1,3-5.59,6.22,6.22,0,0,1,3-1.79,5.52,5.52,0,0,1,3.49.21,8.91,8.91,0,0,1,1.42.65c.43.23.87.49,1.29.77a9.14,9.14,0,0,1,2.31,2.09,5.11,5.11,0,0,1,1.08,3.1,5,5,0,0,1-1.08,2.94,6.92,6.92,0,0,1-2.26,1.92,4.71,4.71,0,0,1-1.38.48,1.84,1.84,0,0,1-.74,0,.85.85,0,0,1-.56-.43,1,1,0,0,0,1.23.17,4.06,4.06,0,0,0,1.15-.68,6.24,6.24,0,0,0,1.7-2,4.08,4.08,0,0,0,.51-2.34,3.48,3.48,0,0,0-1-2,7.44,7.44,0,0,0-2-1.43c-.38-.2-.77-.38-1.18-.55a7.63,7.63,0,0,0-1.17-.39,3.3,3.3,0,0,0-2,0,3.55,3.55,0,0,0-1.64,1.2,10.12,10.12,0,0,0-1.92,4.37,13.7,13.7,0,0,0-.16,5,8,8,0,0,0,1.68,4.16,4,4,0,0,0,3.54,1.32,11.89,11.89,0,0,0,4.55-1.48l1.14-.63c.37-.22.73-.48,1.1-.72.75-.46,1.44-1,2.16-1.55a19.77,19.77,0,0,0,3.73-3.56,7.85,7.85,0,0,0,1.81-4.22,5.65,5.65,0,0,0-.34-2.21,8.94,8.94,0,0,0-1.18-2.12,17.09,17.09,0,0,0-3.8-3.63A49.35,49.35,0,0,0,166.33,138.36Z" transform="translate(-130.09 -11.12)"/><path class="cls-2" d="M313.56,166.84a20.94,20.94,0,0,1,6.09,2.17,11,11,0,0,1,2.68,2.07,5.18,5.18,0,0,1,1.44,3.35,5.81,5.81,0,0,1-1.19,3.47,13.08,13.08,0,0,1-2.36,2.5c-.43.35-.87.71-1.34,1a14.8,14.8,0,0,1-1.45.9,8.74,8.74,0,0,1-3.43,1.13,4.21,4.21,0,0,1-1,0,3.65,3.65,0,0,1-1-.25A4.21,4.21,0,0,1,310.3,182a6.33,6.33,0,0,1-1.38-3.48,9.85,9.85,0,0,1,.27-3.51,6.81,6.81,0,0,1,1.69-3.18,3.51,3.51,0,0,1,1.71-1,3.2,3.2,0,0,1,2,.13,7.58,7.58,0,0,1,1.55.81,5.08,5.08,0,0,1,1.31,1.19,2.9,2.9,0,0,1,.62,1.76,2.85,2.85,0,0,1-.62,1.68,4.08,4.08,0,0,1-1.28,1.1,2.84,2.84,0,0,1-.79.27c-.27.05-.62,0-.74-.25a.59.59,0,0,0,.7.1,2.45,2.45,0,0,0,.66-.39,3.61,3.61,0,0,0,1-1.14,2.23,2.23,0,0,0,.29-1.33,2,2,0,0,0-.59-1.14,5.82,5.82,0,0,0-2.49-1.35,1.9,1.9,0,0,0-2.09.71,7.24,7.24,0,0,0-1.18,5.33,4.5,4.5,0,0,0,1,2.37,2.27,2.27,0,0,0,2,.75c1.69-.12,3.52-1.29,5.1-2.49s3-2.75,3.16-4.44-1.39-3.36-3-4.54A27.74,27.74,0,0,0,313.56,166.84Z" transform="translate(-130.09 -11.12)"/><path class="cls-2" d="M322.15,163.76a21.26,21.26,0,0,1,6.09,2.18,10.91,10.91,0,0,1,2.68,2.06,5.2,5.2,0,0,1,1.44,3.35,5.86,5.86,0,0,1-1.19,3.48,13.08,13.08,0,0,1-2.36,2.5,14.68,14.68,0,0,1-1.34,1,11.77,11.77,0,0,1-1.45.9,8.58,8.58,0,0,1-3.43,1.13,4.22,4.22,0,0,1-1,0,4.52,4.52,0,0,1-1-.25,4.23,4.23,0,0,1-1.69-1.22,6.27,6.27,0,0,1-1.38-3.47,9.85,9.85,0,0,1,.27-3.51,6.84,6.84,0,0,1,1.69-3.19,3.57,3.57,0,0,1,1.71-1,3.2,3.2,0,0,1,2,.12,8.11,8.11,0,0,1,1.55.81,5.31,5.31,0,0,1,1.31,1.2,2.9,2.9,0,0,1,.62,1.76,2.85,2.85,0,0,1-.62,1.68,3.92,3.92,0,0,1-1.28,1.09,2.87,2.87,0,0,1-.79.28c-.27,0-.62,0-.74-.25a.59.59,0,0,0,.7.09,2.41,2.41,0,0,0,.66-.38,3.52,3.52,0,0,0,1-1.15,2.23,2.23,0,0,0,.29-1.33,1.92,1.92,0,0,0-.59-1.13,5.71,5.71,0,0,0-2.49-1.35,1.9,1.9,0,0,0-2.09.7,7.31,7.31,0,0,0-1.18,5.33,4.57,4.57,0,0,0,1,2.38,2.3,2.3,0,0,0,2,.75c1.69-.12,3.52-1.29,5.1-2.5s3-2.75,3.16-4.44-1.39-3.35-3-4.54A28.78,28.78,0,0,0,322.15,163.76Z" transform="translate(-130.09 -11.12)"/><path class="cls-2" d="M156.6,152a37,37,0,0,1,10.69,3.82,18.73,18.73,0,0,1,4.69,3.62,9.07,9.07,0,0,1,2.53,5.87,10.18,10.18,0,0,1-2.08,6.1,23.66,23.66,0,0,1-4.14,4.38,27.34,27.34,0,0,1-2.35,1.78c-.41.27-.81.56-1.23.82l-1.31.76a15.45,15.45,0,0,1-6,2,7.38,7.38,0,0,1-1.75-.06,7,7,0,0,1-1.77-.45,7.3,7.3,0,0,1-3-2.12,9.14,9.14,0,0,1-1-1.43,12.2,12.2,0,0,1-.69-1.53,11.5,11.5,0,0,1-.46-1.56,10.94,10.94,0,0,1-.26-1.57,17,17,0,0,1,.48-6.16,11.94,11.94,0,0,1,3-5.59,6.3,6.3,0,0,1,3-1.79,5.56,5.56,0,0,1,3.48.21,10.68,10.68,0,0,1,1.43.65c.43.24.87.49,1.29.77a9.18,9.18,0,0,1,2.31,2.1,4.76,4.76,0,0,1,0,6,6.89,6.89,0,0,1-2.26,1.91,4.28,4.28,0,0,1-1.38.48,2,2,0,0,1-.74,0,.87.87,0,0,1-.56-.44,1,1,0,0,0,1.23.17,4.28,4.28,0,0,0,1.15-.67,6.27,6.27,0,0,0,1.7-2,4.06,4.06,0,0,0,.51-2.33,3.48,3.48,0,0,0-1-2,7.26,7.26,0,0,0-2-1.44,11.5,11.5,0,0,0-1.18-.54,6,6,0,0,0-1.18-.39,3.27,3.27,0,0,0-2,0,3.58,3.58,0,0,0-1.64,1.21,10,10,0,0,0-1.92,4.36,13.71,13.71,0,0,0-.16,5,7.92,7.92,0,0,0,1.68,4.16,4,4,0,0,0,3.54,1.32A11.87,11.87,0,0,0,161.7,176l1.14-.63c.37-.23.73-.49,1.1-.73.75-.46,1.44-1,2.16-1.54a20.13,20.13,0,0,0,3.73-3.57,7.85,7.85,0,0,0,1.81-4.22,5.7,5.7,0,0,0-.34-2.21,8.94,8.94,0,0,0-1.18-2.12,17.09,17.09,0,0,0-3.8-3.63A49.35,49.35,0,0,0,156.6,152Z" transform="translate(-130.09 -11.12)"/><path class="cls-2" d="M165,164.52a27,27,0,0,1,7.81,2.79,13.77,13.77,0,0,1,3.42,2.64,6.6,6.6,0,0,1,1.84,4.29,7.37,7.37,0,0,1-1.51,4.45,17.43,17.43,0,0,1-3,3.2c-.55.45-1.11.9-1.71,1.3a19.16,19.16,0,0,1-1.85,1.15,11.15,11.15,0,0,1-4.4,1.44,6.17,6.17,0,0,1-2.57-.36,5.37,5.37,0,0,1-2.16-1.55,8.12,8.12,0,0,1-1.78-4.45,12.59,12.59,0,0,1,.35-4.5,8.77,8.77,0,0,1,2.16-4.08,4.64,4.64,0,0,1,2.19-1.31,4.09,4.09,0,0,1,2.55.16,9.28,9.28,0,0,1,2,1,6.6,6.6,0,0,1,1.69,1.53,3.47,3.47,0,0,1,0,4.41,5.14,5.14,0,0,1-1.65,1.4,3.56,3.56,0,0,1-1,.35.85.85,0,0,1-1-.33.74.74,0,0,0,.9.13,2.75,2.75,0,0,0,.84-.5,4.44,4.44,0,0,0,1.24-1.46,2.93,2.93,0,0,0,.37-1.7,2.58,2.58,0,0,0-.75-1.46,7.63,7.63,0,0,0-3.19-1.73,2.42,2.42,0,0,0-2.67.91,7.38,7.38,0,0,0-1.41,3.19,10.09,10.09,0,0,0-.11,3.63,5.77,5.77,0,0,0,1.23,3,2.9,2.9,0,0,0,2.58,1,8.74,8.74,0,0,0,3.33-1.07,25.06,25.06,0,0,0,3.21-2.12c2-1.54,3.89-3.52,4-5.69a4.87,4.87,0,0,0-1.11-3.16,12.56,12.56,0,0,0-2.78-2.65A35.71,35.71,0,0,0,165,164.52Z" transform="translate(-130.09 -11.12)"/><path class="cls-2" d="M173.41,122.05a27.25,27.25,0,0,1,7.81,2.79,13.68,13.68,0,0,1,3.42,2.65,6.58,6.58,0,0,1,1.85,4.29,7.44,7.44,0,0,1-1.52,4.45,20.35,20.35,0,0,1-4.74,4.49,19.23,19.23,0,0,1-1.85,1.16,11.1,11.1,0,0,1-4.4,1.44,5,5,0,0,1-1.28,0,5.56,5.56,0,0,1-1.29-.33,5.28,5.28,0,0,1-2.16-1.55,8.09,8.09,0,0,1-1.78-4.44,12.82,12.82,0,0,1,.35-4.5,8.77,8.77,0,0,1,2.16-4.08,4.67,4.67,0,0,1,2.2-1.31,4.06,4.06,0,0,1,2.54.16,9.73,9.73,0,0,1,2,1,7,7,0,0,1,1.69,1.53,3.47,3.47,0,0,1,0,4.41,5.14,5.14,0,0,1-1.65,1.4,3.28,3.28,0,0,1-1,.35.84.84,0,0,1-.95-.32.76.76,0,0,0,.9.13,3.22,3.22,0,0,0,.84-.5,4.54,4.54,0,0,0,1.24-1.46,3.05,3.05,0,0,0,.38-1.71,2.57,2.57,0,0,0-.76-1.45,7.36,7.36,0,0,0-3.19-1.73,2.43,2.43,0,0,0-2.67.9,7.3,7.3,0,0,0-1.4,3.19,9.93,9.93,0,0,0-.12,3.64,5.81,5.81,0,0,0,1.23,3,2.93,2.93,0,0,0,2.58,1,8.77,8.77,0,0,0,3.33-1.08,24,24,0,0,0,3.21-2.11c2-1.54,3.89-3.53,4-5.69a4.91,4.91,0,0,0-1.1-3.16,12.54,12.54,0,0,0-2.78-2.65A36.34,36.34,0,0,0,173.41,122.05Z" transform="translate(-130.09 -11.12)"/><path class="cls-2" d="M176.62,100.15a27,27,0,0,1,7.81,2.79,13.41,13.41,0,0,1,3.42,2.64,6.61,6.61,0,0,1,1.85,4.29,7.42,7.42,0,0,1-1.52,4.45,17.38,17.38,0,0,1-3,3.2c-.56.45-1.11.9-1.72,1.3a19.16,19.16,0,0,1-1.85,1.15,11.27,11.27,0,0,1-4.4,1.45,5.53,5.53,0,0,1-1.28,0,5.08,5.08,0,0,1-1.29-.32,5.37,5.37,0,0,1-2.16-1.55,8.12,8.12,0,0,1-1.78-4.45,12.82,12.82,0,0,1,.35-4.5,8.77,8.77,0,0,1,2.16-4.08,4.67,4.67,0,0,1,2.2-1.31,4.06,4.06,0,0,1,2.54.16,9.28,9.28,0,0,1,2,1,6.6,6.6,0,0,1,1.69,1.53,3.47,3.47,0,0,1,0,4.41,5.14,5.14,0,0,1-1.65,1.4,3.56,3.56,0,0,1-1,.35c-.33.06-.79,0-.95-.33a.74.74,0,0,0,.9.13,2.75,2.75,0,0,0,.84-.5,4.44,4.44,0,0,0,1.24-1.46,2.94,2.94,0,0,0,.38-1.7,2.59,2.59,0,0,0-.76-1.46A7.57,7.57,0,0,0,177.4,107a2.44,2.44,0,0,0-2.67.91,7.25,7.25,0,0,0-1.4,3.19,10.09,10.09,0,0,0-.12,3.63,5.77,5.77,0,0,0,1.23,3,2.9,2.9,0,0,0,2.58,1,8.74,8.74,0,0,0,3.33-1.07,25.06,25.06,0,0,0,3.21-2.12c2-1.54,3.89-3.52,4-5.69a4.91,4.91,0,0,0-1.1-3.16,12.79,12.79,0,0,0-2.78-2.65A35.79,35.79,0,0,0,176.62,100.15Z" transform="translate(-130.09 -11.12)"/><path class="cls-2" d="M134.3,85a27,27,0,0,1,6.52-5.12,13.78,13.78,0,0,1,4.06-1.48,6.62,6.62,0,0,1,4.62.73,7.44,7.44,0,0,1,2.95,3.66A16.91,16.91,0,0,1,153.54,87a19.08,19.08,0,0,1,.18,2.15,17.64,17.64,0,0,1,0,2.18,11.09,11.09,0,0,1-1.12,4.48,5.66,5.66,0,0,1-.72,1.06,5,5,0,0,1-1,.92,5.35,5.35,0,0,1-2.46,1,8.11,8.11,0,0,1-4.71-.88,12.66,12.66,0,0,1-3.62-2.69,8.79,8.79,0,0,1-2.29-4,4.53,4.53,0,0,1,.06-2.55,4,4,0,0,1,1.49-2.07,9.82,9.82,0,0,1,1.94-1.12,6.59,6.59,0,0,1,2.19-.61,3.49,3.49,0,0,1,3.73,2.35,5.27,5.27,0,0,1,.3,2.14,3.35,3.35,0,0,1-.24,1c-.13.32-.41.68-.78.63.37,0,.52-.38.59-.69a3.57,3.57,0,0,0,0-1,4.79,4.79,0,0,0-.58-1.83,3,3,0,0,0-1.24-1.22,2.55,2.55,0,0,0-1.64-.14A7.46,7.46,0,0,0,140.51,88a2.41,2.41,0,0,0-.66,2.74,7.3,7.3,0,0,0,2,2.89,10,10,0,0,0,3,2,5.78,5.78,0,0,0,3.22.59,2.94,2.94,0,0,0,2.2-1.67,8.86,8.86,0,0,0,.86-3.39,23.66,23.66,0,0,0-.07-3.85c-.23-2.53-.91-5.17-2.65-6.45a4.93,4.93,0,0,0-3.27-.75,12.05,12.05,0,0,0-3.72.94A35.17,35.17,0,0,0,134.3,85Z" transform="translate(-130.09 -11.12)"/><path class="cls-2" d="M328,90.58a26.82,26.82,0,0,1,6.53-5.11A13.69,13.69,0,0,1,338.59,84a6.64,6.64,0,0,1,4.61.73,7.45,7.45,0,0,1,3,3.66,16.85,16.85,0,0,1,1.08,4.27,19.11,19.11,0,0,1,.19,2.14,19.83,19.83,0,0,1,0,2.18,11.36,11.36,0,0,1-1.13,4.49,6.23,6.23,0,0,1-1.68,2,5.44,5.44,0,0,1-2.47,1,8.12,8.12,0,0,1-4.71-.87,12.51,12.51,0,0,1-3.61-2.7,8.74,8.74,0,0,1-2.3-4,4.66,4.66,0,0,1,.06-2.56,4.13,4.13,0,0,1,1.5-2.07A9.47,9.47,0,0,1,335,91.11a6.66,6.66,0,0,1,2.19-.61,3.48,3.48,0,0,1,3.73,2.36,5.07,5.07,0,0,1,.31,2.14,3.44,3.44,0,0,1-.25,1c-.12.32-.4.68-.78.63.37,0,.53-.39.59-.7a3.15,3.15,0,0,0,0-1,4.56,4.56,0,0,0-.57-1.83A3,3,0,0,0,339,91.94a2.58,2.58,0,0,0-1.63-.13,7.41,7.41,0,0,0-3.17,1.77,2.45,2.45,0,0,0-.66,2.75,7.56,7.56,0,0,0,1.95,2.88,10.27,10.27,0,0,0,3,2,5.81,5.81,0,0,0,3.23.58,2.9,2.9,0,0,0,2.19-1.67,8.68,8.68,0,0,0,.87-3.38,23.67,23.67,0,0,0-.08-3.85c-.22-2.53-.9-5.17-2.65-6.46a4.91,4.91,0,0,0-3.26-.75,12.78,12.78,0,0,0-3.73.94A36,36,0,0,0,328,90.58Z" transform="translate(-130.09 -11.12)"/><path class="cls-2" d="M329.38,100a27,27,0,0,1,6.52-5.11A13.75,13.75,0,0,1,340,93.37a6.61,6.61,0,0,1,4.61.74,7.36,7.36,0,0,1,2.95,3.65,17,17,0,0,1,1.09,4.27,19.1,19.1,0,0,1,.18,2.14,17.63,17.63,0,0,1,0,2.18,11.17,11.17,0,0,1-1.12,4.49,5.66,5.66,0,0,1-.72,1.06,5,5,0,0,1-1,.92,5.34,5.34,0,0,1-2.46,1,8.12,8.12,0,0,1-4.71-.87,12.69,12.69,0,0,1-3.62-2.7,8.71,8.71,0,0,1-2.29-4,4.53,4.53,0,0,1,.06-2.55,4,4,0,0,1,1.49-2.07,9.87,9.87,0,0,1,1.94-1.13,6.91,6.91,0,0,1,2.19-.61,3.78,3.78,0,0,1,2.33.54,3.65,3.65,0,0,1,1.4,1.82,5.08,5.08,0,0,1,.3,2.14,3.42,3.42,0,0,1-.24,1c-.13.32-.41.68-.78.63.37,0,.52-.39.59-.69a3.58,3.58,0,0,0,0-1,4.74,4.74,0,0,0-.58-1.83,2.91,2.91,0,0,0-1.24-1.22,2.55,2.55,0,0,0-1.64-.14,7.54,7.54,0,0,0-3.16,1.77,2.43,2.43,0,0,0-.66,2.75,7.34,7.34,0,0,0,1.95,2.88,10,10,0,0,0,3,2,5.77,5.77,0,0,0,3.22.58,2.89,2.89,0,0,0,2.2-1.67,8.81,8.81,0,0,0,.86-3.38,23.66,23.66,0,0,0-.07-3.85c-.22-2.53-.91-5.17-2.65-6.45a4.82,4.82,0,0,0-3.27-.75,12.32,12.32,0,0,0-3.72.93A36,36,0,0,0,329.38,100Z" transform="translate(-130.09 -11.12)"/><path class="cls-2" d="M328,132.41a26.82,26.82,0,0,1,6.53-5.11,13.69,13.69,0,0,1,4.06-1.49,6.64,6.64,0,0,1,4.61.73,7.45,7.45,0,0,1,3,3.66,16.88,16.88,0,0,1,1.08,4.26,19.5,19.5,0,0,1,.19,2.15,19.84,19.84,0,0,1,0,2.18,11.36,11.36,0,0,1-1.13,4.49,6.23,6.23,0,0,1-1.68,2,5.44,5.44,0,0,1-2.47,1,8.12,8.12,0,0,1-4.71-.87,12.51,12.51,0,0,1-3.61-2.7,8.72,8.72,0,0,1-2.3-4,4.62,4.62,0,0,1,.06-2.55,4.13,4.13,0,0,1,1.5-2.07,9.47,9.47,0,0,1,1.93-1.12,6.66,6.66,0,0,1,2.19-.61,3.48,3.48,0,0,1,3.73,2.36,5,5,0,0,1,.31,2.13,3.43,3.43,0,0,1-.25,1.05c-.12.31-.4.68-.78.62.37,0,.53-.38.59-.69a3.16,3.16,0,0,0,0-1,4.56,4.56,0,0,0-.57-1.83,3,3,0,0,0-1.25-1.23,2.51,2.51,0,0,0-1.63-.13,7.41,7.41,0,0,0-3.17,1.77,2.44,2.44,0,0,0-.66,2.74A7.52,7.52,0,0,0,335.5,141a10.27,10.27,0,0,0,3,2,5.9,5.9,0,0,0,3.23.58,2.9,2.9,0,0,0,2.19-1.67,8.68,8.68,0,0,0,.87-3.39,23.57,23.57,0,0,0-.08-3.84c-.22-2.53-.9-5.17-2.65-6.46a4.91,4.91,0,0,0-3.26-.75,12.78,12.78,0,0,0-3.73.94A36,36,0,0,0,328,132.41Z" transform="translate(-130.09 -11.12)"/><path class="cls-2" d="M153.23,58.9a27,27,0,0,1,6.52-5.11,13.69,13.69,0,0,1,4.06-1.49,6.64,6.64,0,0,1,4.61.73,7.45,7.45,0,0,1,3,3.66A17.34,17.34,0,0,1,172.47,61c.08.71.17,1.43.18,2.15a17.64,17.64,0,0,1,0,2.18,11.17,11.17,0,0,1-1.12,4.49,5.28,5.28,0,0,1-.73,1.06,4.94,4.94,0,0,1-1,.92,5.45,5.45,0,0,1-2.46,1,8,8,0,0,1-4.71-.88A12.48,12.48,0,0,1,159,69.18a8.9,8.9,0,0,1-2.3-4,4.63,4.63,0,0,1,.07-2.55,4.07,4.07,0,0,1,1.49-2.07,9.54,9.54,0,0,1,1.94-1.12,6.59,6.59,0,0,1,2.19-.61,3.72,3.72,0,0,1,2.33.54,3.67,3.67,0,0,1,1.4,1.81,5.27,5.27,0,0,1,.3,2.14,3.42,3.42,0,0,1-.24,1c-.13.31-.41.68-.78.62.36,0,.52-.38.58-.69a2.88,2.88,0,0,0,0-1,4.56,4.56,0,0,0-.57-1.83,3,3,0,0,0-1.24-1.23,2.55,2.55,0,0,0-1.64-.13,7.43,7.43,0,0,0-3.16,1.77,2.42,2.42,0,0,0-.66,2.74,7.3,7.3,0,0,0,1.95,2.89,10,10,0,0,0,3,2,5.86,5.86,0,0,0,3.22.58,2.92,2.92,0,0,0,2.19-1.67,8.68,8.68,0,0,0,.87-3.39,22.5,22.5,0,0,0-.08-3.84c-.22-2.53-.9-5.17-2.64-6.46A4.93,4.93,0,0,0,164,54a12.64,12.64,0,0,0-3.72.94A35.67,35.67,0,0,0,153.23,58.9Z" transform="translate(-130.09 -11.12)"/><path class="cls-2" d="M134.18,130.09a27,27,0,0,1,6.53-5.12,13.67,13.67,0,0,1,4.06-1.48,6.59,6.59,0,0,1,4.61.73,7.4,7.4,0,0,1,3,3.66,17.34,17.34,0,0,1,1.09,4.26c.08.71.17,1.42.18,2.15a19.85,19.85,0,0,1,0,2.18,11.27,11.27,0,0,1-1.13,4.48,4.84,4.84,0,0,1-.72,1.06,5.24,5.24,0,0,1-1,.92,5.35,5.35,0,0,1-2.47,1,8.12,8.12,0,0,1-4.71-.88,12.48,12.48,0,0,1-3.61-2.69,8.81,8.81,0,0,1-2.3-4,4.72,4.72,0,0,1,.06-2.55,4,4,0,0,1,1.5-2.07,9.75,9.75,0,0,1,1.93-1.12,6.65,6.65,0,0,1,2.2-.61,3.48,3.48,0,0,1,3.72,2.35,5.11,5.11,0,0,1,.31,2.14,3.37,3.37,0,0,1-.25,1c-.12.32-.4.68-.77.63.36,0,.52-.38.58-.69a2.93,2.93,0,0,0,0-1,4.61,4.61,0,0,0-.57-1.83,3,3,0,0,0-1.25-1.22,2.51,2.51,0,0,0-1.63-.14,7.43,7.43,0,0,0-3.17,1.78,2.43,2.43,0,0,0-.66,2.74,7.52,7.52,0,0,0,2,2.89,10.24,10.24,0,0,0,3,2,5.83,5.83,0,0,0,3.23.59,2.92,2.92,0,0,0,2.19-1.67,8.68,8.68,0,0,0,.87-3.39,23.67,23.67,0,0,0-.08-3.85c-.22-2.53-.9-5.17-2.65-6.45a4.91,4.91,0,0,0-3.26-.75,12.18,12.18,0,0,0-3.73.94A35.44,35.44,0,0,0,134.18,130.09Z" transform="translate(-130.09 -11.12)"/><path class="cls-2" d="M165.69,181.26a26.78,26.78,0,0,1,6.15-5.56,13.48,13.48,0,0,1,3.95-1.77,6.63,6.63,0,0,1,4.65.4,7.47,7.47,0,0,1,3.2,3.44A17,17,0,0,1,185,182a18.87,18.87,0,0,1,.33,2.13,17.32,17.32,0,0,1,.14,2.17,11,11,0,0,1-.8,4.56,5.9,5.9,0,0,1-.64,1.11,5.54,5.54,0,0,1-.9,1,5.33,5.33,0,0,1-2.39,1.18,8.15,8.15,0,0,1-4.76-.54,12.57,12.57,0,0,1-3.79-2.44,8.77,8.77,0,0,1-2.58-3.83,4.58,4.58,0,0,1-.11-2.55,4,4,0,0,1,1.34-2.17,9.47,9.47,0,0,1,1.85-1.26,6.74,6.74,0,0,1,2.14-.76,3.72,3.72,0,0,1,2.36.37,3.67,3.67,0,0,1,1.53,1.72,5.16,5.16,0,0,1,.45,2.11,3.39,3.39,0,0,1-.17,1.05c-.1.33-.35.71-.73.69.36-.06.5-.42.54-.74a3.51,3.51,0,0,0,0-1,4.55,4.55,0,0,0-.7-1.78,3,3,0,0,0-1.33-1.14,2.55,2.55,0,0,0-1.64,0,7.39,7.39,0,0,0-3,2,2.43,2.43,0,0,0-.47,2.79,7.52,7.52,0,0,0,2.15,2.74,10.36,10.36,0,0,0,3.15,1.82,5.76,5.76,0,0,0,3.25.35,2.88,2.88,0,0,0,2.07-1.82,8.69,8.69,0,0,0,.63-3.44,23.92,23.92,0,0,0-.35-3.83c-.4-2.51-1.26-5.09-3.09-6.25a4.89,4.89,0,0,0-3.31-.52,12.22,12.22,0,0,0-3.65,1.2A35.38,35.38,0,0,0,165.69,181.26Z" transform="translate(-130.09 -11.12)"/><path class="cls-2" d="M149.79,132a37.09,37.09,0,0,1,10.69,3.82,18.91,18.91,0,0,1,4.69,3.62,9.06,9.06,0,0,1,2.52,5.87,10.17,10.17,0,0,1-2.07,6.1,23.41,23.41,0,0,1-4.15,4.38,27.34,27.34,0,0,1-2.35,1.78c-.41.27-.8.56-1.23.83l-1.3.75a15.4,15.4,0,0,1-6,2,7.37,7.37,0,0,1-1.75-.06,7,7,0,0,1-1.77-.45,7.33,7.33,0,0,1-3-2.12,9.26,9.26,0,0,1-1-1.43,13.12,13.12,0,0,1-.7-1.53,11.5,11.5,0,0,1-.46-1.56,12.24,12.24,0,0,1-.26-1.57,17.46,17.46,0,0,1,.48-6.16,12,12,0,0,1,3-5.59,6.35,6.35,0,0,1,3-1.79,5.58,5.58,0,0,1,3.49.22,9.43,9.43,0,0,1,1.42.64c.44.24.87.5,1.3.78a9.29,9.29,0,0,1,2.31,2.09,5.08,5.08,0,0,1,1.07,3.09,4.94,4.94,0,0,1-1.08,2.95,7.11,7.11,0,0,1-2.25,1.92,4.88,4.88,0,0,1-1.39.48,2,2,0,0,1-.73,0,.84.84,0,0,1-.56-.44,1,1,0,0,0,1.23.18,4.59,4.59,0,0,0,1.15-.68,6.4,6.4,0,0,0,1.7-2,4,4,0,0,0,.51-2.33,3.48,3.48,0,0,0-1-2,7.87,7.87,0,0,0-2-1.44,12.57,12.57,0,0,0-1.18-.54,6,6,0,0,0-1.18-.39,3.22,3.22,0,0,0-2,0,3.58,3.58,0,0,0-1.64,1.2,10.25,10.25,0,0,0-1.92,4.37,13.87,13.87,0,0,0-.15,5,7.92,7.92,0,0,0,1.68,4.16,4,4,0,0,0,3.53,1.32,11.86,11.86,0,0,0,4.56-1.47l1.13-.63c.38-.23.74-.48,1.11-.72.75-.47,1.44-1,2.16-1.55a20.07,20.07,0,0,0,3.72-3.57,7.81,7.81,0,0,0,1.82-4.22,5.82,5.82,0,0,0-.34-2.2,8.9,8.9,0,0,0-1.18-2.12,16.92,16.92,0,0,0-3.81-3.63A48.79,48.79,0,0,0,149.79,132Z" transform="translate(-130.09 -11.12)"/><path class="cls-2" d="M172.5,140.52a36.91,36.91,0,0,1-11.19,1.92,18.93,18.93,0,0,1-5.86-.84,9.06,9.06,0,0,1-5.09-3.88,10.21,10.21,0,0,1-1.19-6.33,23.89,23.89,0,0,1,1.46-5.85,27.86,27.86,0,0,1,1.17-2.7c.23-.44.43-.89.67-1.33l.76-1.3a15.43,15.43,0,0,1,4.27-4.68,7.43,7.43,0,0,1,1.56-.81,7.26,7.26,0,0,1,1.76-.48,7.36,7.36,0,0,1,3.62.39,10.1,10.1,0,0,1,1.59.75,14,14,0,0,1,1.36,1,11.38,11.38,0,0,1,1.16,1.14,9,9,0,0,1,1,1.24,17,17,0,0,1,2.61,5.59,12.08,12.08,0,0,1,.17,6.33,6.29,6.29,0,0,1-1.73,3,5.54,5.54,0,0,1-3.15,1.53,8.68,8.68,0,0,1-1.55.13c-.5,0-1,0-1.51,0a9.43,9.43,0,0,1-3-.69,5.13,5.13,0,0,1-2.46-2.17,5,5,0,0,1-.51-3.09,7.07,7.07,0,0,1,1-2.78,4.62,4.62,0,0,1,1-1.1,1.92,1.92,0,0,1,.64-.36.85.85,0,0,1,.7.11,1,1,0,0,0-1.15.45,4.33,4.33,0,0,0-.67,1.16,6.28,6.28,0,0,0-.5,2.58,4,4,0,0,0,.71,2.28A3.48,3.48,0,0,0,162,133a7.92,7.92,0,0,0,2.46.26,11.42,11.42,0,0,0,1.29-.11,6.63,6.63,0,0,0,1.22-.23,3.35,3.35,0,0,0,1.74-1,3.68,3.68,0,0,0,.84-1.85,10.21,10.21,0,0,0-.48-4.75,13.78,13.78,0,0,0-2.31-4.41,7.89,7.89,0,0,0-3.51-2.8,4,4,0,0,0-3.72.59,11.79,11.79,0,0,0-3.25,3.52l-.68,1.11c-.21.38-.4.78-.6,1.17-.43.77-.75,1.6-1.13,2.41a20.27,20.27,0,0,0-1.49,4.94,7.79,7.79,0,0,0,.5,4.56,5.63,5.63,0,0,0,1.38,1.76,8.67,8.67,0,0,0,2.06,1.26,17.3,17.3,0,0,0,5.1,1.3A49.64,49.64,0,0,0,172.5,140.52Z" transform="translate(-130.09 -11.12)"/><path class="cls-2" d="M179.57,140.52a36.86,36.86,0,0,1-11.19,1.92,19,19,0,0,1-5.86-.84,9.09,9.09,0,0,1-5.09-3.88,10.21,10.21,0,0,1-1.18-6.33,23.43,23.43,0,0,1,1.45-5.85,27.94,27.94,0,0,1,1.18-2.7c.22-.44.42-.89.66-1.33l.77-1.3a15.43,15.43,0,0,1,4.27-4.68,7.11,7.11,0,0,1,1.55-.81,7.26,7.26,0,0,1,1.76-.48,7.42,7.42,0,0,1,3.63.39,10,10,0,0,1,1.58.75,14,14,0,0,1,1.36,1,12.63,12.63,0,0,1,1.17,1.14,10.85,10.85,0,0,1,1,1.24,17.17,17.17,0,0,1,2.6,5.59,12,12,0,0,1,.17,6.33,6.29,6.29,0,0,1-1.73,3,5.51,5.51,0,0,1-3.14,1.53,8.78,8.78,0,0,1-1.56.13c-.5,0-1,0-1.51,0a9.49,9.49,0,0,1-3-.69,5.11,5.11,0,0,1-2.45-2.17,5,5,0,0,1-.51-3.09,6.91,6.91,0,0,1,1-2.78,4.62,4.62,0,0,1,1-1.1,2,2,0,0,1,.65-.36.86.86,0,0,1,.7.11,1,1,0,0,0-1.16.45,4.33,4.33,0,0,0-.67,1.16,6.27,6.27,0,0,0-.49,2.58,4,4,0,0,0,.7,2.28,3.48,3.48,0,0,0,1.88,1.23,7.92,7.92,0,0,0,2.46.26,11.22,11.22,0,0,0,1.29-.11,6.63,6.63,0,0,0,1.22-.23,3.35,3.35,0,0,0,1.74-1,3.68,3.68,0,0,0,.84-1.85,10.21,10.21,0,0,0-.48-4.75,13.78,13.78,0,0,0-2.31-4.41,7.92,7.92,0,0,0-3.5-2.8,4,4,0,0,0-3.73.59,11.92,11.92,0,0,0-3.25,3.52l-.67,1.11c-.22.38-.41.78-.61,1.17-.43.77-.75,1.6-1.12,2.41a20.3,20.3,0,0,0-1.5,4.94,7.87,7.87,0,0,0,.5,4.56,5.78,5.78,0,0,0,1.38,1.76,8.54,8.54,0,0,0,2.07,1.26,17.22,17.22,0,0,0,5.1,1.3A49.56,49.56,0,0,0,179.57,140.52Z" transform="translate(-130.09 -11.12)"/><path class="cls-2" d="M156.33,127.7a37.12,37.12,0,0,1-11.19,1.93,18.69,18.69,0,0,1-5.86-.85,9,9,0,0,1-5.08-3.88,10.11,10.11,0,0,1-1.19-6.32,23.22,23.22,0,0,1,1.45-5.85,27.07,27.07,0,0,1,1.18-2.71c.22-.44.42-.89.66-1.32l.77-1.3a15.21,15.21,0,0,1,4.27-4.68,7.11,7.11,0,0,1,1.55-.81,6.94,6.94,0,0,1,1.76-.48,7.42,7.42,0,0,1,3.63.39,8.49,8.49,0,0,1,1.58.75,11.27,11.27,0,0,1,1.36,1,12.53,12.53,0,0,1,1.17,1.13,10.64,10.64,0,0,1,1,1.24,17.36,17.36,0,0,1,2.61,5.6,12.05,12.05,0,0,1,.16,6.32,6.32,6.32,0,0,1-1.73,3,5.53,5.53,0,0,1-3.14,1.52,8.85,8.85,0,0,1-1.56.14c-.5,0-1,0-1.51,0a9.29,9.29,0,0,1-3-.69,4.77,4.77,0,0,1-3-5.26,7.06,7.06,0,0,1,1-2.78,4.82,4.82,0,0,1,1-1.1,2.14,2.14,0,0,1,.65-.35.86.86,0,0,1,.7.1,1,1,0,0,0-1.16.46,4.28,4.28,0,0,0-.67,1.15,6.3,6.3,0,0,0-.49,2.58,4.06,4.06,0,0,0,.7,2.29,3.51,3.51,0,0,0,1.88,1.22,7.39,7.39,0,0,0,2.46.26c.43,0,.86,0,1.29-.1a7.32,7.32,0,0,0,1.22-.24,3.27,3.27,0,0,0,1.74-1,3.71,3.71,0,0,0,.84-1.86,10.22,10.22,0,0,0-.48-4.75,14,14,0,0,0-2.3-4.41,8,8,0,0,0-3.51-2.8,4,4,0,0,0-3.73.59,11.81,11.81,0,0,0-3.24,3.53l-.68,1.1c-.22.38-.41.78-.61,1.17-.42.78-.75,1.61-1.12,2.41a20,20,0,0,0-1.49,4.94,7.79,7.79,0,0,0,.49,4.56,5.67,5.67,0,0,0,1.38,1.76,8.89,8.89,0,0,0,2.07,1.27,16.92,16.92,0,0,0,5.1,1.29A49,49,0,0,0,156.33,127.7Z" transform="translate(-130.09 -11.12)"/><path class="cls-2" d="M190.89,67.7a57.54,57.54,0,0,1,10.43,14.42A29.38,29.38,0,0,1,204.17,91a16.2,16.2,0,0,1,0,5,12.51,12.51,0,0,1-.7,2.51,11.23,11.23,0,0,1-1.2,2.37,6.93,6.93,0,0,1-.8,1.07c-.28.33-.55.69-.87,1l-1,.87a7.62,7.62,0,0,1-1,.8,20.45,20.45,0,0,1-4.45,2.3,35.35,35.35,0,0,1-9.24,2,48.93,48.93,0,0,1-9.3,0,23.58,23.58,0,0,1-9.54-2.81,12.71,12.71,0,0,1-4.11-3.78,11.71,11.71,0,0,1-2-5.39,15.21,15.21,0,0,1,.46-5.35,20.28,20.28,0,0,1,1.85-4.69,27,27,0,0,1,6.08-7.54,19.47,19.47,0,0,1,8.79-4.61,10.15,10.15,0,0,1,5.49.34A9.22,9.22,0,0,1,187,78.42a23,23,0,0,1,1.22,2.11,23.27,23.27,0,0,1,1,2.15,14.43,14.43,0,0,1,1.13,4.76,8,8,0,0,1-1.35,5,7.78,7.78,0,0,1-4,2.85,10.84,10.84,0,0,1-4.61.48,7.46,7.46,0,0,1-2.22-.6,3,3,0,0,1-1-.67,1.29,1.29,0,0,1-.33-1.06c0,.79.79,1.14,1.44,1.31a7,7,0,0,0,2.09.15,10.11,10.11,0,0,0,4-1.08,6.37,6.37,0,0,0,2.73-2.57,5.5,5.5,0,0,0,.42-3.5,12,12,0,0,0-1.32-3.64q-.48-.89-1-1.74A17.87,17.87,0,0,0,184,80.73,5.52,5.52,0,0,0,181.31,79a6.22,6.22,0,0,0-3.19.11,15.74,15.74,0,0,0-6.36,3.95,23.26,23.26,0,0,0-4.63,6.29,12.54,12.54,0,0,0-1.51,6.87,6.26,6.26,0,0,0,3.37,4.85,18.23,18.23,0,0,0,7.21,2.11,46.32,46.32,0,0,0,8.26.17,33.29,33.29,0,0,0,8-1.31,12.1,12.1,0,0,0,6.08-3.84,7.9,7.9,0,0,0,.9-1.48,8.88,8.88,0,0,0,.62-1.66,13.41,13.41,0,0,0,.38-3.79,26.91,26.91,0,0,0-1.7-8.07A77.6,77.6,0,0,0,190.89,67.7Z" transform="translate(-130.09 -11.12)"/></svg>