<?xml version="1.0" encoding="utf-8"?>
<!-- Generator: Adobe Illustrator 24.0.2, SVG Export Plug-In . SVG Version: 6.00 Build 0)  -->
<svg version="1.1" id="Layer_1" xmlns="http://www.w3.org/2000/svg" xmlns:xlink="http://www.w3.org/1999/xlink" x="0px" y="0px"
	 viewBox="0 0 209.8 473.2" style="enable-background:new 0 0 209.8 473.2;" xml:space="preserve">
<style type="text/css">
	.st0{fill:#A7A9AC;}
	.st1{fill:#603913;}
	.st2{fill:#8C98A5;}
	.st3{fill:#AF5426;}
</style>
<title>margaery</title>
<path class="st0" d="M197.3,101.9c0,50.4-40.9,91.3-91.3,91.3s-91.3-40.9-91.3-91.3s40.9-91.3,91.3-91.3c0,0,0,0,0,0
	C156.5,10.6,197.3,51.5,197.3,101.9z"/>
<path class="st1" d="M176.7,161.7l10.5-20.7c0,0,3.3,25.6-4.2,37.3s-9.4,19.8-10.7,16s2.6-18.3,2.1-26.2"/>
<path class="st1" d="M40,110.7c0,0-7.1,49.1-2.5,77.9c0,0-7.3,13.6-9-26"/>
<path class="st2" d="M62.9,180.4l2.2,36.5c3.4,57-8.2,113.9-33.5,165.1L0.6,444.5c-3,12.6,4.8,25.1,17.4,28.1
	c1.8,0.4,3.6,0.6,5.4,0.6h163c12.9,0,23.4-10.5,23.4-23.4c0-1.8-0.2-3.5-0.6-5.2l-14.5-29c-35.9-72-52-152.2-46.6-232.5l0.2-2.7"/>
<path class="st3" d="M11,75.1c0,0-9.9,131.4,8.3,189.2c0,0,6.5,20.5-5.5,19c0,0,20.7,17.9,15-26.6s1-107.3,1-107.3
	S17,121.8,15.1,93.6S11,75.1,11,75.1z"/>
<path class="st3" d="M46.7,168.9c0,0,13.1,153.9-27.7,153.1c0,0-14.6-3.4-3.9-13.3c0,0-2,10.9,3.9,7.7c5.9-3.2,10.9-60.5,7.5-82.5
	s3.3-84.5,3.3-84.5S44.1,166.7,46.7,168.9z"/>
<path class="st3" d="M199.7,75.5c0,0,11.9,131-6.3,188.7c0,0-6.5,20.5,5.5,19c0,0-20.7,17.9-15-26.6s-1-107.3-1-107.3
	s12.8-27.6,14.7-55.7S199.7,75.5,199.7,75.5z"/>
<path class="st3" d="M166,168.9c0,0-13.1,153.9,27.7,153.1c0,0,14.6-3.4,3.9-13.3c0,0,2,10.9-3.9,7.7c-5.9-3.2-10.9-60.5-7.5-82.5
	s-3.3-84.5-3.3-84.5S168.6,166.7,166,168.9z"/>
<path class="st2" d="M198.7,99.6c0,50.7-41.1,91.8-91.8,91.8s-91.8-41.1-91.8-91.8S56.2,7.8,106.9,7.8c0,0,0,0,0,0
	C157.6,7.8,198.7,48.9,198.7,99.6z"/>
<path class="st3" d="M106.9,34.4c0,0-48.1,58.5-88.7,53.6c0,0-3.1,2.7-3.1,5.7c0,0-22.4-52,35.3-76.8c0,0,44.5-29.9,58.9-9.1
	c0,0,54.3-32,77.8,33.4c0,0,19.4,37.9,11,49.4l-1.1-5.7C197.1,84.9,157.3,79.2,106.9,34.4z"/>
</svg>
