<?xml version="1.0" encoding="utf-8"?>
<!-- Generator: Adobe Illustrator 24.0.2, SVG Export Plug-In . SVG Version: 6.00 Build 0)  -->
<svg version="1.1" id="Layer_1" xmlns="http://www.w3.org/2000/svg" xmlns:xlink="http://www.w3.org/1999/xlink" x="0px" y="0px"
	 viewBox="0 0 207.9 462.6" style="enable-background:new 0 0 207.9 462.6;" xml:space="preserve">
<style type="text/css">
	.st0{fill:#A7A9AC;}
	.st1{fill:#603913;}
	.st2{fill:#8C98A5;}
</style>
<title>sandor</title>
<path class="st0" d="M196.3,91.2c0,50.4-40.9,91.3-91.3,91.3s-91.3-40.9-91.3-91.3S54.6,0,105,0c0,0,0,0,0,0
	C155.4,0,196.3,40.8,196.3,91.2z"/>
<path class="st1" d="M175.6,151.1l10.5-20.7c0,0,3.3,25.6-4.2,37.3s-9.4,19.8-10.7,16s2.6-18.3,2.1-26.2"/>
<path class="st1" d="M177.3,149.1c0,0-12.1,27.3-8,49.3c0.2,1.1-0.5,2.3-1.7,2.5c-0.8,0.2-1.7-0.2-2.2-0.9c-4-6-7.8-16.9-4.4-35.7"
	/>
<path class="st1" d="M32.5,152c0,0,12.1,27.3,8,49.3c-0.2,1.2,0.6,2.3,1.7,2.5c0.8,0.2,1.7-0.2,2.1-0.9c4-6,7.8-16.9,4.4-35.7"/>
<path class="st2" d="M194.9,95c0,50.3-40.7,91-91,91s-91-40.7-91-91s40.7-91,91-91S194.9,44.7,194.9,95z"/>
<path class="st2" d="M62.4,172.4L0.6,434.1C-2.3,446.6,5.4,459,17.8,462c1.7,0.4,3.5,0.6,5.3,0.6h161.6c12.8,0,23.2-10.4,23.2-23.2
	c0-1.7-0.2-3.5-0.6-5.2L147,172.4"/>
<path class="st1" d="M178.2,210.7c-2.9-16.7,33.2-114.6,16.8-141.3c0,0,0-0.1-0.1-0.1c-0.4-2.3-15.6-75.2-91-68.1l0,0
	c-0.7-0.1-77.3-7.3-93.6,67.8l0,0c0,0.2-9.5,65.4,2.6,137.5c0,0.1,0,0.2,0,0.3c-0.5,1.1-4.1,9.3-11.4,1.7c-0.2-0.2-0.5-0.2-0.7-0.1
	c-0.2,0.1-0.2,0.3-0.2,0.5c1.7,5.6,7.1,18.6,17.3,6.6c0.2-0.2,0.5-0.3,0.7-0.1c0,0,0,0,0,0c1.3,1.1,5.1,4.8,2.3,8.9
	c-0.2,0.2-0.2,0.6,0.1,0.8c0.2,0.2,0.4,0.2,0.6,0c3.4-2.1,8.4-7.2,5.7-18.5c0,0-7.3-46.4,4.9-54.7c0.1-0.1,0.2-0.2,0.2-0.3
	c0.5-5.2,10.5-110.1,26.4-115.5c0.1,0,0.2,0,0.3,0c1.2,0.2,10.1,2.5,3.3,32.8c0,0.1,0,0.1-0.1,0.2c-0.7,1.2-10.3,18.4-2.3,35.2
	c0,0.1,0.1,0.1,0.1,0.2c0,0,16.4,11.8,16.6,2.2c0.1-6.8-0.4-3.9-0.8-1.7c-0.2,1.1-1.1,1.9-2.2,1.9c-2.8,0-7.7-0.8-9.8-6.4
	c-3.5-9.2,4-31.1,10.7-36.2c6.7-5.1,6.2-25.4,4.5-33.3S85.5,8,99.7,9.7s54.4,0.9,74.6,37.8s13.3,38.3,11.8,86.9c0,0,0,0.1,0,0.1
	c-0.4,1.2-11.8,38.8-12.3,51.5c-0.6,12.9-2.3,12.9,0,28.7C173.6,214.7,184.9,249.7,178.2,210.7z"/>
<path class="st1" d="M38.9,100.1c0,0-7.1,49.1-2.5,77.9c0,0-7.3,13.6-9-26"/>
</svg>
