<?xml version="1.0" encoding="utf-8"?>
<!-- Generator: Adobe Illustrator 24.0.2, SVG Export Plug-In . SVG Version: 6.00 Build 0)  -->
<svg version="1.1" id="Layer_1" xmlns="http://www.w3.org/2000/svg" xmlns:xlink="http://www.w3.org/1999/xlink" x="0px" y="0px"
	 viewBox="0 0 235.3 490.5" style="enable-background:new 0 0 235.3 490.5;" xml:space="preserve">
<style type="text/css">
	.st0{fill:#8C98A5;}
	.st1{fill:#562D17;}
</style>
<title>theon</title>
<path class="st0" d="M207,123.8c0,49.7-40.3,90-90,90s-90-40.3-90-90s40.3-90,90-90S207,74.1,207,123.8z"/>
<path class="st1" d="M193.7,123.6v-8.3c0-5.2-0.5-10.3-1.5-15.4l-2-10c7.8,13.4-19,22.9-12.9,16.2S171.2,81,165,79.9
	s-5.6,12.3-5.6,12.3c-6.1-7.8-7.3-14-7.3-14c-5.3,4.9-5.1,11.9-8.8,16.1c-8.1,9.3-2.9,12.4-2.9,12.4c8.8-1.3,6.4-3.1,5.2-3.5
	s0,1.1,0,1.1c-1.4,0.1-3.6-4.8,0.8-2.1s-0.3,3.8-5.7,6.7s-5-13.3-5-13.3c-3.3-15.3-3.8-32.9-5.9-18c-5.9,41.2-15.7,36.6-21.1,35.9
	s-2.2-14.7,4.8-12.7s0.9,5.4,0.9,5.4c2.4-3.3-0.9-3.5-0.9-3.5c-8.4,7.8-0.6,8-0.6,8c16.4-14.5-10-31.9-10-31.9
	c1.5,3.6-3,12.3-8.3,20.6c-1.9,3-7.9,4.3-9.8,7c-2.6,3.6-4,8-4.1,12.4c0,0-3.4-9.5,4.5-18.9c5.9-7-1.1-18.3-5.8-17.2
	c-4.8,1.1-10,8.6-6.8,17.2c2.1,5.5-1.9,13.5-4.9,18.4c-1.7,2.7-2.8-2.3-2.8-2.3l1.8,1.8c7.1-16.5-2.4-16.6-6.7-23.5l-0.6-1
	c-15.1,21.8-14,42.7-14,42.7l1.8,32.5c0,0.7,0.1,1.4,0.1,2c0.2,7.3-2.3,14.4-7,19.9l0,0c2.6-6.4,2.5-13.5-0.3-19.8
	c-0.6-1.4-1.3-2.8-2-4.1l-4.5-9.1l-2,0.3c-6.6,0.8-10.9-1.8-16.3-4.5c-2.4-1.2-3.6-3.9-2.9-6.5l0.3-1v1.3c-0.1,1.5,1,2.9,2.5,3.3
	c3,0.6,6-1.4,6.6-4.4c0.1-0.3,0.1-0.6,0.1-0.8c0.2-6.8-4.5-16.6-5.5-24.2l1.6,3.1l-3.3,3.5l-0.1,0.1c-0.8,0.8-1.5,1.6-2.3,2.2
	c-3.2,2.7-8.1,2.3-10.8-0.9c-0.7-0.8-1.2-1.8-1.5-2.8l0,0c4.2,8,11.7,4.1,7.4-11c-0.5-2.9-0.6-5.8-0.4-8.7
	c21.1-83.4,82.4-95.6,82.4-95.6c5.4-2.5,41.7,0,41.7,0c23.3-7.5,56.5,21.3,78.1,43.9c0,0,17.4,12.6,16.8,24.9s10.6,4.9,5.7,0.1
	c0,0,6.8,3.9,1.2,8c0,0,0.7,3.1-9.3,7.8c0,0-10.3,22.8,3.4,28.5s0.8-10.9,1.1-7c0,0,5.7-3.1,7,7c0,0,0.1,17.1-20.7,9
	c0,0-16.3,28.2-7.9,51.4c0,0-10.9-12-10.9-26c0-4.7-0.3-9.4-0.8-14C194.1,137.4,193.7,130.5,193.7,123.6z"/>
<path class="st0" d="M75.2,203.5L14.2,462.3c-2.9,12.3,4.7,24.6,17,27.5c1.7,0.4,3.5,0.6,5.3,0.6h159.8c12.6,0,22.9-10.3,22.9-22.9
	c0-1.7-0.2-3.4-0.6-5.1l-59.7-259"/>
<path class="st1" d="M27.1,63.8c0,0-14.8,17.6-21.2,5.6s10.6-8.9,10.6-8.9s-19-10.1-13.7,8.7s17.9,16,19.8,10.6"/>
<path class="st1" d="M70.6,24.4c0,0-21.4,9.5-15.7-4.4s12.5-3.4,12.5-3.4s-2.5-17.7-14,1.8S51,41,56.1,37"/>
<path class="st1" d="M32.1,57.7c0,0-19.5-6.3-9.5-20.5c0,0,1.1,18.3,21.8,6.5"/>
<path class="st1" d="M194.1,54.6c0,0,14.8,17.6,21.2,5.6s-10.6-8.9-10.6-8.9s19-10.1,13.6,8.7s-17.9,16-19.8,10.6"/>
<path class="st1" d="M150.5,15.2c0,0,21.4,9.5,15.7-4.4s-12.5-3.4-12.5-3.4s2.5-17.7,14,1.8s2.6,22.6-2.6,18.6"/>
<path class="st1" d="M189,48.5c0,0,19.6-6.3,9.5-20.5c0,0-1.1,18.3-21.8,6.5"/>
</svg>
