<?xml version="1.0" encoding="utf-8"?>
<!-- Generator: Adobe Illustrator 24.0.2, SVG Export Plug-In . SVG Version: 6.00 Build 0)  -->
<svg version="1.1" id="Layer_1" xmlns="http://www.w3.org/2000/svg" xmlns:xlink="http://www.w3.org/1999/xlink" x="0px" y="0px"
	 viewBox="0 0 240.6 354.5" style="enable-background:new 0 0 240.6 354.5;" xml:space="preserve">
<style type="text/css">
	.st0{fill:#8C98A5;}
	.st1{fill:#CA452E;}
	.st2{fill:#9E3721;}
</style>
<title>tyrion</title>
<path class="st0" d="M211.2,127.2c0,50.6-41,91.6-91.6,91.6c-50.6,0-91.6-41-91.6-91.6c0-50.6,41-91.6,91.6-91.6c0,0,0,0,0,0
	C170.2,35.6,211.2,76.6,211.2,127.2C211.2,127.2,211.2,127.2,211.2,127.2z"/>
<path class="st1" d="M197.7,110.9l4.1,44c0.2,2.5,2.4,4.3,4.9,4.1c1.2-0.1,2.3-0.7,3.1-1.6l23.9-27.9c1.2-1.4,1.4-3.3,0.6-4.9
	l-14.8-30.7c-1.1-2.3-0.1-5,2.1-6.1c0.1,0,0.1-0.1,0.2-0.1l8.2-3.4c2.3-1,3.4-3.6,2.5-5.9c-0.2-0.4-0.4-0.8-0.7-1.2
	C217.6,60,167.1,2.5,134.7,11.8c-0.5,0.1-1,0.2-1.5,0.2c-5.3-0.3-36.7-2.3-41.7,0c0,0-72,14.3-88,117.5c-0.4,2.5,1.3,4.8,3.8,5.2
	c1.3,0.2,2.6-0.2,3.6-1l2.7-2.3c1.3-1.1,1.8,3.2,2,7.8c0.4,5.8,2.7,11.3,6.6,15.7l10,11.1c0.9,2.4,3.5,3.6,5.9,2.7
	c0.9-0.3,1.6-0.9,2.1-1.6l0,0c0.8-1.1,1.3-2.4,1.6-3.8l4.8-23.2c0.1-0.3,0.1-0.7,0.1-1c0-3.1,0.2-22.3,13.8-42.4
	c0.3-0.4,0.6-0.8,1-1.1c2.4-1.8,11.6-8.4,19.9-10.3c7.6-1.8,20.1,1.7,23.5-0.6c1.6-0.9,3.5-0.8,4.9,0.4c7.2,5.4,20.7,12.9,22.8-4.9
	c2.8-23.8,7.2,12.8,21.6,1.6c0.9-0.7,2-0.9,3.1-0.8c2.5,0.3,6.9,0.8,11.2,1.5c6.3,1.1,33.6,23.9,25.6,10.2l3.6,17.7
	C197.6,110.6,197.6,110.7,197.7,110.9z"/>
<path class="st0" d="M77,208.3L14.8,340.1c-3.5,7.3,7.7,14.3,22.7,14.3h162.7c15,0,26.1-7,22.7-14.3l-60.8-131.8"/>
<path class="st2" d="M173.1,10.7c-3.1,5.4-5.5,11.2-7.3,17.2c-0.9,2.8-1.3,5.8-1.3,8.8c0,1.4,0.3,2.7,0.6,4c0.2,0.6,0.5,1.2,0.8,1.8
	c0.3,0.6,0.7,1.1,1.1,1.5c0.2,0.2,0.4,0.5,0.7,0.7c0.2,0.2,0.4,0.4,0.7,0.6l0.8,0.5c0.3,0.2,0.5,0.4,0.8,0.5
	c1.2,0.6,2.5,1.1,3.8,1.4c2.8,0.6,5.8,0.9,8.7,0.8c3,0,5.9-0.3,8.9-0.8c2.7-0.4,5.3-1.3,7.6-2.8c1.9-1.2,3.2-3.2,3.3-5.4
	c0-2.6-0.7-5.1-2.1-7.3c-1.4-2.4-3.2-4.6-5.4-6.4c-1.1-0.9-2.2-1.7-3.4-2.4c-1.1-0.6-2.4-1.1-3.7-1.4c-1.1-0.3-2.3-0.2-3.4,0.1
	c-1.1,0.4-2,1.1-2.7,2.1c-0.4,0.6-0.8,1.2-1.1,1.8c-0.4,0.6-0.7,1.3-1,1.9c-0.6,1.3-1,2.6-1.2,4c-0.2,1.3,0.1,2.6,0.7,3.7
	c0.8,1.2,1.8,2,3.1,2.6c1.4,0.6,2.9,0.9,4.4,0.9c0.8,0,1.5-0.1,2.2-0.3c0.7-0.2,1.5-0.7,1.4-1.5c0.1,0.4,0,0.8-0.3,1.2
	c-0.3,0.3-0.6,0.6-1,0.8c-0.7,0.4-1.5,0.7-2.3,0.8c-1.7,0.3-3.4,0.2-5-0.2c-1.8-0.4-3.3-1.4-4.5-2.8c-1.2-1.5-1.8-3.3-1.8-5.2
	c0-1.8,0.3-3.5,0.9-5.2c0.3-0.8,0.6-1.6,0.9-2.4c0.3-0.8,0.7-1.6,1.2-2.4c1-1.7,2.6-3.1,4.4-3.9c1.8-0.8,3.9-1,5.9-0.8
	c3.6,0.6,6.9,2.1,9.8,4.3c2.8,2.1,5.2,4.7,7.1,7.7c1,1.5,1.8,3.2,2.3,4.9c0.6,1.8,0.9,3.8,0.9,5.7c-0.1,2.1-0.7,4.1-1.7,5.9
	c-1,1.7-2.5,3.2-4.2,4.4c-1.6,1-3.2,1.8-5,2.4c-1.6,0.6-3.3,1-5.1,1.3c-3.3,0.5-6.7,0.7-10,0.6c-3.4-0.1-6.8-0.6-10.1-1.5
	c-1.7-0.5-3.4-1.2-4.9-2.1c-0.4-0.2-0.8-0.5-1.1-0.8l-1.1-0.9c-0.4-0.3-0.7-0.7-1-1c-0.3-0.3-0.7-0.7-0.9-1.1
	c-0.6-0.8-1.1-1.6-1.5-2.5c-0.4-0.9-0.7-1.7-0.9-2.6c-0.1-0.4-0.2-0.9-0.3-1.3c-0.1-0.4-0.1-0.9-0.2-1.3c-0.1-0.9-0.1-1.8,0-2.6
	c0.3-3.3,1.1-6.6,2.4-9.7C165.4,21.1,168.8,15.6,173.1,10.7z"/>
<path class="st2" d="M194.5,39.1c-3.1,5.4-5.5,11.2-7.3,17.2c-0.9,2.9-1.3,5.8-1.3,8.8c0,1.4,0.3,2.7,0.6,4c0.2,0.6,0.5,1.2,0.8,1.8
	c0.3,0.6,0.7,1.1,1.1,1.5c0.2,0.2,0.4,0.5,0.7,0.7c0.2,0.2,0.4,0.4,0.7,0.6l0.8,0.5c0.3,0.2,0.5,0.4,0.8,0.5
	c1.2,0.6,2.5,1.1,3.8,1.4c2.8,0.6,5.8,0.9,8.7,0.8c3,0,5.9-0.3,8.9-0.8c2.7-0.4,5.3-1.3,7.6-2.8c1.9-1.2,3.2-3.2,3.3-5.4
	c0-2.6-0.7-5.1-2.1-7.3c-1.4-2.4-3.2-4.6-5.4-6.4c-1.1-0.9-2.2-1.7-3.4-2.4c-1.1-0.7-2.4-1.1-3.7-1.4c-1.1-0.3-2.3-0.2-3.4,0.1
	c-1.1,0.4-2,1.1-2.7,2.1c-0.4,0.6-0.8,1.2-1.1,1.8c-0.4,0.6-0.7,1.3-1,1.9c-0.6,1.3-1,2.6-1.2,4c-0.2,1.3,0.1,2.6,0.7,3.7
	c0.8,1.2,1.8,2,3.1,2.6c1.4,0.6,2.9,0.9,4.4,0.9c0.8,0,1.5-0.1,2.2-0.3c0.7-0.2,1.5-0.7,1.4-1.5c0.1,0.4,0,0.8-0.3,1.2
	c-0.3,0.3-0.6,0.6-1,0.8c-0.7,0.4-1.5,0.7-2.3,0.8c-1.7,0.3-3.4,0.2-5-0.2c-1.8-0.4-3.4-1.4-4.5-2.8c-1.2-1.5-1.8-3.3-1.8-5.2
	c0-1.8,0.3-3.5,0.9-5.2c0.3-0.8,0.6-1.6,0.9-2.4c0.3-0.8,0.7-1.6,1.2-2.4c1-1.7,2.6-3.1,4.4-3.9c1.8-0.8,3.9-1,5.9-0.8
	c3.6,0.6,6.9,2.1,9.8,4.3c2.8,2.1,5.2,4.7,7.1,7.7c1,1.5,1.8,3.2,2.3,4.9c0.6,1.8,0.9,3.8,0.9,5.7c-0.1,2.1-0.7,4.1-1.7,5.9
	c-1,1.7-2.5,3.2-4.2,4.4c-1.6,1-3.2,1.8-5,2.4c-1.6,0.6-3.3,1-5.1,1.3c-3.3,0.5-6.7,0.7-10,0.6c-3.4-0.1-6.8-0.5-10.1-1.5
	c-1.7-0.5-3.4-1.2-4.9-2.1c-0.4-0.2-0.8-0.5-1.1-0.8l-1.1-0.9c-0.4-0.3-0.7-0.7-1-1c-0.3-0.3-0.6-0.7-0.9-1.1
	c-0.6-0.8-1.1-1.6-1.5-2.4c-0.4-0.8-0.7-1.7-0.9-2.6c-0.1-0.4-0.2-0.9-0.3-1.3c-0.1-0.4-0.1-0.9-0.2-1.3c-0.1-0.9-0.1-1.8,0-2.6
	c0.3-3.3,1.1-6.6,2.4-9.7C186.8,49.4,190.3,43.9,194.5,39.1z"/>
<path class="st2" d="M223.5,81.5c-6.1,1.5-12,3.6-17.6,6.4c-2.7,1.3-5.1,3-7.3,5.1c-1,1-1.8,2-2.5,3.2c-0.3,0.6-0.6,1.1-0.8,1.8
	c-0.2,0.6-0.3,1.2-0.4,1.8c0,0.3,0,0.6,0,0.9c0,0.3,0,0.6,0,0.9l0.2,0.9c0,0.3,0.1,0.6,0.2,0.9c0.4,1.3,0.9,2.6,1.6,3.8
	c1.5,2.5,3.2,4.8,5.3,6.9c2,2.2,4.2,4.2,6.6,6c2.1,1.7,4.6,3,7.2,3.7c2.2,0.6,4.5,0.1,6.2-1.3c1.9-1.8,3.3-4,3.9-6.5
	c0.8-2.7,1.2-5.5,1-8.4c-0.1-1.4-0.3-2.8-0.6-4.1c-0.3-1.3-0.8-2.5-1.4-3.7c-0.6-1-1.4-1.9-2.4-2.4c-1-0.5-2.2-0.7-3.4-0.6
	c-0.7,0.1-1.4,0.2-2.1,0.4c-0.7,0.2-1.4,0.4-2.1,0.6c-1.3,0.4-2.6,1.1-3.7,1.9c-1.1,0.7-1.9,1.8-2.3,3.1c-0.3,1.3-0.2,2.7,0.2,4
	c0.5,1.4,1.3,2.7,2.3,3.8c0.5,0.6,1.1,1,1.7,1.4c0.6,0.5,1.5,0.5,2.1,0c-0.2,0.3-0.6,0.5-1,0.6c-0.4,0-0.8,0-1.2-0.2
	c-0.8-0.3-1.5-0.7-2.2-1.2c-1.3-1-2.5-2.3-3.3-3.8c-0.9-1.6-1.2-3.4-1-5.2c0.3-1.9,1.2-3.6,2.6-4.9c1.3-1.2,2.8-2.2,4.4-2.9
	c0.8-0.4,1.6-0.7,2.4-0.9c0.8-0.3,1.7-0.5,2.5-0.8c2-0.4,4-0.2,5.9,0.6c1.8,0.8,3.4,2.1,4.5,3.8c2,3,3.2,6.5,3.5,10.1
	c0.3,3.5,0.1,7-0.8,10.4c-0.5,1.7-1.1,3.4-2,5c-0.9,1.7-2.1,3.2-3.6,4.5c-1.6,1.4-3.5,2.3-5.5,2.8c-2,0.4-4,0.4-6-0.1
	c-1.8-0.4-3.5-1.1-5.2-2c-1.5-0.8-3-1.8-4.4-2.9c-2.6-2.1-5.1-4.4-7.2-6.9c-2.3-2.5-4.2-5.3-5.8-8.4c-0.8-1.6-1.4-3.3-1.8-5.1
	c-0.1-0.5-0.2-0.9-0.2-1.4l-0.1-1.4c0-0.5,0-1,0.1-1.4c0-0.5,0.1-1,0.2-1.4c0.2-0.9,0.4-1.9,0.8-2.7c0.3-0.9,0.8-1.7,1.3-2.5
	c0.3-0.4,0.5-0.8,0.8-1.1c0.3-0.4,0.6-0.7,0.9-1c0.6-0.6,1.2-1.2,1.9-1.8c2.6-2,5.6-3.7,8.7-4.8C210.8,83,217.1,81.8,223.5,81.5z"/>
<path class="st2" d="M174.8,36.6c-6.1,1.5-12,3.6-17.6,6.4c-2.7,1.3-5.1,3-7.3,5.1c-1,1-1.8,2-2.5,3.2c-0.3,0.6-0.6,1.2-0.8,1.8
	c-0.2,0.6-0.3,1.2-0.4,1.8c0,0.3,0,0.6,0,0.9c0,0.3,0,0.6,0,0.9l0.2,1c0,0.3,0.1,0.6,0.2,0.9c0.4,1.3,0.9,2.6,1.6,3.8
	c1.5,2.5,3.2,4.8,5.3,6.9c2,2.2,4.2,4.2,6.6,6c2.1,1.7,4.6,3,7.2,3.7c2.2,0.6,4.5,0.1,6.2-1.3c1.9-1.8,3.3-4,3.9-6.5
	c0.8-2.7,1.2-5.5,1-8.4c-0.1-1.4-0.3-2.8-0.6-4.1c-0.3-1.3-0.8-2.5-1.4-3.7c-0.6-1-1.4-1.9-2.4-2.4c-1-0.5-2.2-0.7-3.4-0.6
	c-0.7,0.1-1.4,0.2-2.1,0.4c-0.7,0.2-1.4,0.4-2.1,0.6c-1.3,0.4-2.6,1.1-3.7,1.9c-1.1,0.7-1.9,1.8-2.3,3.1c-0.3,1.3-0.2,2.7,0.2,4
	c0.5,1.4,1.3,2.7,2.3,3.8c0.5,0.5,1.1,1,1.8,1.3c0.6,0.5,1.5,0.5,2.1,0c-0.2,0.3-0.6,0.5-1,0.6c-0.4,0-0.8,0-1.2-0.2
	c-0.8-0.3-1.5-0.7-2.2-1.2c-1.3-1-2.4-2.3-3.3-3.8c-0.9-1.6-1.2-3.4-1-5.2c0.3-1.9,1.2-3.6,2.6-4.9c1.3-1.2,2.8-2.2,4.4-2.9
	c0.8-0.4,1.6-0.7,2.4-1c0.8-0.3,1.7-0.5,2.5-0.8c2-0.4,4-0.2,5.9,0.6c1.8,0.8,3.4,2.1,4.6,3.8c2,3,3.2,6.5,3.5,10.1
	c0.3,3.5,0.1,7-0.8,10.4c-0.5,1.7-1.1,3.4-2,5c-0.9,1.7-2.1,3.2-3.6,4.5c-1.6,1.4-3.5,2.4-5.6,2.9c-2,0.4-4,0.4-6-0.1
	c-1.8-0.4-3.5-1.1-5.2-2c-1.5-0.8-3-1.8-4.4-2.9c-2.6-2.1-5.1-4.4-7.2-6.9c-2.3-2.5-4.2-5.3-5.8-8.4c-0.8-1.6-1.4-3.3-1.8-5.1
	c-0.1-0.5-0.2-0.9-0.2-1.4l-0.1-1.4c0-0.5,0-1,0.1-1.4c0-0.5,0.1-1,0.2-1.4c0.2-0.9,0.4-1.9,0.8-2.7c0.3-0.9,0.8-1.7,1.3-2.5
	c0.2-0.4,0.5-0.8,0.8-1.1c0.3-0.4,0.6-0.7,0.9-1c0.6-0.6,1.3-1.2,1.9-1.8c2.6-2.1,5.6-3.7,8.8-4.8C162,38.1,168.4,36.9,174.8,36.6z"
	/>
<path class="st2" d="M159.6,2.4c-6.1,1.5-12,3.6-17.6,6.4c-2.7,1.3-5.1,3-7.3,5.1c-1,1-1.8,2-2.5,3.2c-0.3,0.6-0.6,1.2-0.8,1.8
	c-0.2,0.6-0.3,1.2-0.4,1.8c0,0.3,0,0.6,0,0.9c0,0.3,0,0.6,0,0.9l0.2,0.9c0,0.3,0.1,0.6,0.2,0.9c0.4,1.3,0.9,2.6,1.6,3.8
	c1.5,2.5,3.2,4.8,5.3,6.9c2,2.2,4.2,4.2,6.6,6c2.1,1.7,4.6,3,7.2,3.7c2.2,0.6,4.5,0.1,6.2-1.3c1.9-1.8,3.2-4,3.9-6.5
	c0.8-2.7,1.2-5.5,1-8.4c-0.1-1.4-0.3-2.8-0.6-4.1c-0.3-1.3-0.8-2.5-1.4-3.7c-0.6-1-1.4-1.9-2.4-2.4c-1-0.5-2.2-0.7-3.4-0.6
	c-0.7,0.1-1.4,0.2-2.1,0.4c-0.7,0.2-1.4,0.4-2.1,0.6c-1.3,0.4-2.6,1.1-3.7,1.9c-1.1,0.7-1.8,1.8-2.3,3.1c-0.3,1.3-0.2,2.7,0.2,4
	c0.5,1.4,1.3,2.7,2.3,3.8c0.5,0.6,1.1,1,1.8,1.4c0.6,0.5,1.5,0.5,2.1,0c-0.2,0.3-0.6,0.5-1,0.6c-0.4,0-0.8,0-1.2-0.2
	c-0.8-0.3-1.5-0.7-2.2-1.2c-1.3-1-2.5-2.3-3.3-3.8c-2-3.3-1.3-7.5,1.6-10.1c1.3-1.2,2.8-2.2,4.4-2.9c0.8-0.4,1.6-0.7,2.4-1
	c0.8-0.3,1.7-0.6,2.5-0.8c2-0.4,4-0.2,5.9,0.6c1.8,0.9,3.4,2.2,4.6,3.9c2,3,3.2,6.5,3.5,10.1c0.3,3.5,0.1,7-0.8,10.4
	c-0.4,1.8-1.1,3.5-2,5.1c-0.9,1.7-2.1,3.2-3.6,4.5c-1.6,1.4-3.5,2.3-5.5,2.8c-2,0.4-4,0.4-6-0.1c-1.8-0.4-3.5-1.1-5.2-2
	c-1.5-0.8-3-1.8-4.4-2.9c-2.6-2.1-5.1-4.4-7.2-6.9c-2.3-2.5-4.2-5.4-5.8-8.4c-0.8-1.6-1.4-3.3-1.8-5.1c-0.1-0.5-0.2-0.9-0.2-1.4
	l-0.1-1.4c0-0.5,0-1,0.1-1.4c0-0.5,0.1-1,0.2-1.4c0.2-0.9,0.4-1.9,0.8-2.7c0.3-0.9,0.8-1.7,1.3-2.5c0.2-0.4,0.5-0.8,0.8-1.1
	c0.3-0.4,0.6-0.7,0.9-1c0.6-0.6,1.3-1.2,1.9-1.8c2.6-2.1,5.6-3.7,8.8-4.8C146.9,3.9,153.2,2.6,159.6,2.4z"/>
<path class="st2" d="M131.9,0c-6.1,1.5-12,3.6-17.6,6.4c-2.7,1.3-5.1,3-7.3,5.1c-1,1-1.8,2-2.5,3.2c-0.3,0.6-0.6,1.2-0.8,1.8
	c-0.2,0.6-0.3,1.2-0.4,1.8c0,0.3,0,0.6,0,0.9c0,0.3,0,0.6,0,0.9l0.2,0.9c0,0.3,0.1,0.6,0.2,0.9c0.4,1.3,0.9,2.6,1.6,3.8
	c1.5,2.5,3.2,4.8,5.3,6.9c2,2.2,4.2,4.2,6.6,6c2.1,1.7,4.6,3,7.2,3.7c2.2,0.6,4.5,0.1,6.2-1.3c1.9-1.8,3.3-4,3.9-6.5
	c0.8-2.7,1.2-5.5,1-8.4c-0.1-1.4-0.3-2.8-0.6-4.1c-0.3-1.3-0.8-2.5-1.4-3.7c-0.6-1-1.4-1.9-2.4-2.4c-1-0.5-2.2-0.7-3.4-0.6
	c-0.7,0.1-1.4,0.2-2.1,0.4c-0.7,0.2-1.4,0.4-2.1,0.6c-1.3,0.4-2.6,1.1-3.7,1.9c-1.1,0.7-1.8,1.8-2.3,3c-0.3,1.3-0.2,2.7,0.2,4
	c0.5,1.4,1.3,2.7,2.3,3.8c0.5,0.6,1.1,1,1.8,1.4c0.6,0.5,1.5,0.5,2.1,0c-0.2,0.3-0.6,0.5-1,0.6c-0.4,0-0.8,0-1.2-0.2
	c-0.8-0.3-1.5-0.7-2.2-1.2c-1.3-1-2.4-2.3-3.3-3.8c-0.9-1.6-1.2-3.4-1-5.2c0.3-1.9,1.2-3.6,2.6-4.9c1.3-1.2,2.8-2.2,4.4-2.9
	c0.8-0.4,1.6-0.7,2.4-1c0.8-0.3,1.7-0.5,2.5-0.7c2-0.4,4-0.2,5.9,0.6c1.8,0.8,3.4,2.1,4.6,3.8c2,3,3.2,6.5,3.5,10.1
	c0.3,3.5,0.1,7-0.8,10.4c-0.5,1.8-1.1,3.5-2,5.1c-0.9,1.7-2.1,3.2-3.6,4.5c-1.6,1.4-3.5,2.3-5.5,2.8c-2,0.4-4,0.4-6-0.1
	c-1.8-0.4-3.5-1.1-5.2-2c-1.5-0.8-3-1.8-4.4-2.9c-2.6-2.1-5.1-4.4-7.2-6.9c-2.3-2.5-4.2-5.3-5.8-8.4c-0.8-1.6-1.4-3.3-1.8-5.1
	c-0.1-0.5-0.2-0.9-0.2-1.4l-0.1-1.4c0-0.5,0-0.9,0.1-1.4c0-0.5,0.1-0.9,0.2-1.4c0.2-0.9,0.4-1.9,0.8-2.7c0.3-0.9,0.8-1.7,1.3-2.5
	c0.2-0.4,0.5-0.8,0.8-1.1c0.3-0.4,0.6-0.7,0.9-1c0.6-0.6,1.3-1.2,2-1.8c2.6-2.1,5.6-3.7,8.8-4.8C119.2,1.4,125.5,0.2,131.9,0z"/>
<path class="st2" d="M78.8,2.4C85.2,2.6,91.6,3.8,97.6,6c3.2,1.1,6.1,2.7,8.8,4.8c0.7,0.5,1.3,1.1,1.9,1.8c0.3,0.3,0.6,0.6,0.9,1
	c0.3,0.3,0.6,0.7,0.8,1.1c0.5,0.8,0.9,1.6,1.3,2.5c0.4,0.9,0.6,1.8,0.8,2.7c0.1,0.5,0.2,0.9,0.2,1.4c0,0.5,0.1,1,0.1,1.4l-0.1,1.4
	c0,0.5-0.1,0.9-0.2,1.4c-0.4,1.8-1,3.5-1.8,5.1c-1.6,3-3.5,5.9-5.8,8.4c-2.2,2.5-4.6,4.8-7.2,6.9c-1.4,1.1-2.8,2-4.4,2.9
	c-1.6,0.9-3.4,1.6-5.2,2c-2,0.5-4,0.5-6,0.1c-2.1-0.4-4-1.4-5.6-2.7c-1.5-1.3-2.7-2.8-3.6-4.5c-0.9-1.6-1.5-3.3-2-5.1
	c-0.9-3.4-1.2-6.9-0.8-10.4c0.3-3.6,1.5-7.1,3.5-10.1c1.1-1.7,2.7-3,4.5-3.8c1.9-0.8,3.9-1,5.9-0.6c0.9,0.2,1.7,0.4,2.5,0.8
	c0.8,0.3,1.6,0.6,2.4,1c1.6,0.7,3.1,1.7,4.4,2.9c2.9,2.5,3.5,6.8,1.6,10.1c-0.8,1.5-1.9,2.8-3.3,3.8c-0.7,0.5-1.4,0.9-2.2,1.2
	c-0.4,0.1-0.8,0.2-1.2,0.2c-0.4,0-0.8-0.3-1-0.6c0.6,0.5,1.5,0.5,2.1,0c0.7-0.4,1.2-0.9,1.8-1.4c1-1.1,1.8-2.4,2.3-3.8
	c0.5-1.3,0.6-2.7,0.2-4c-0.4-1.2-1.2-2.3-2.3-3.1c-1.1-0.8-2.4-1.5-3.7-1.9c-0.7-0.2-1.4-0.4-2.1-0.6c-0.7-0.2-1.4-0.3-2.1-0.4
	c-1.2-0.1-2.3,0.1-3.3,0.6c-1,0.6-1.9,1.4-2.4,2.4c-0.7,1.1-1.2,2.4-1.4,3.7c-0.3,1.4-0.5,2.7-0.6,4.1c-0.2,2.8,0.2,5.6,1,8.4
	c0.7,2.5,2,4.8,3.9,6.5c1.7,1.4,4.1,1.9,6.2,1.3c2.6-0.7,5.1-2,7.2-3.7c2.4-1.8,4.6-3.8,6.6-6c2-2.1,3.8-4.4,5.3-6.9
	c0.7-1.2,1.2-2.4,1.6-3.8c0.1-0.3,0.2-0.6,0.2-0.9l0.2-0.9c0-0.3,0-0.6,0-0.9c0-0.3,0-0.6,0-0.9c-0.1-0.6-0.2-1.2-0.4-1.8
	c-0.2-0.6-0.4-1.2-0.8-1.8c-0.7-1.2-1.5-2.3-2.5-3.2c-2.2-2.1-4.6-3.8-7.3-5.1C90.8,6,84.9,3.9,78.8,2.4z"/>
<path class="st2" d="M53.7,2.4C60.1,2.6,66.5,3.8,72.6,6c3.2,1.1,6.1,2.7,8.8,4.8c0.7,0.5,1.3,1.1,1.9,1.8c0.3,0.3,0.6,0.6,0.9,1
	c0.3,0.3,0.6,0.7,0.8,1.1c0.5,0.8,1,1.6,1.3,2.5c0.4,0.9,0.6,1.8,0.8,2.7c0.1,0.5,0.2,0.9,0.2,1.4c0,0.5,0.1,1,0.1,1.4l-0.1,1.4
	c0,0.5-0.1,0.9-0.2,1.4c-0.4,1.8-1,3.5-1.8,5.1c-1.6,3-3.5,5.9-5.8,8.4c-2.2,2.5-4.6,4.8-7.2,6.9c-1.4,1.1-2.8,2-4.4,2.9
	c-1.6,0.9-3.4,1.6-5.2,2c-2,0.5-4,0.5-6,0.1c-2-0.4-3.9-1.4-5.5-2.7c-1.5-1.3-2.7-2.8-3.6-4.5c-0.9-1.6-1.6-3.3-2-5.1
	c-0.9-3.4-1.1-6.9-0.8-10.4c0.2-3.6,1.4-7.1,3.4-10.1c1.1-1.7,2.7-3,4.6-3.8c1.9-0.8,3.9-1,5.9-0.6c0.9,0.2,1.7,0.4,2.5,0.8
	c0.8,0.3,1.6,0.6,2.4,1c1.6,0.7,3.1,1.7,4.4,2.9c1.4,1.3,2.3,3,2.6,4.9c0.2,1.8-0.1,3.6-1,5.2c-0.8,1.5-1.9,2.8-3.3,3.8
	c-0.7,0.5-1.4,0.9-2.2,1.2c-0.4,0.1-0.8,0.2-1.2,0.2c-0.4,0-0.8-0.3-1-0.6c0.6,0.5,1.5,0.5,2.1,0c0.7-0.4,1.2-0.9,1.8-1.4
	c1-1.1,1.8-2.4,2.3-3.8c0.5-1.3,0.6-2.7,0.2-4c-0.4-1.2-1.2-2.3-2.3-3.1c-1.1-0.8-2.4-1.5-3.7-1.9c-0.7-0.2-1.4-0.4-2.1-0.6
	c-0.7-0.2-1.4-0.3-2.1-0.4c-1.2-0.1-2.3,0.1-3.3,0.6c-1,0.6-1.9,1.4-2.4,2.4c-0.7,1.1-1.2,2.3-1.5,3.5c-0.3,1.4-0.5,2.7-0.6,4.1
	c-0.2,2.8,0.2,5.6,1,8.4c0.7,2.5,2,4.7,3.9,6.5c1.7,1.4,4.1,1.9,6.2,1.3c2.6-0.7,5.1-1.9,7.3-3.6c2.4-1.8,4.6-3.8,6.6-6
	c2.1-2.1,3.8-4.4,5.3-6.9c0.7-1.2,1.2-2.4,1.6-3.8c0.1-0.3,0.2-0.6,0.2-0.9l0.2-0.9c0-0.3,0-0.6,0-0.9c0-0.3,0-0.6,0-0.9
	c-0.1-0.6-0.2-1.2-0.4-1.8c-0.2-0.6-0.4-1.2-0.8-1.8c-0.7-1.2-1.5-2.3-2.5-3.2c-2.2-2.1-4.6-3.8-7.3-5.1C65.7,6,59.8,3.9,53.7,2.4z"
	/>
<path class="st2" d="M53.7,22.8c6.4,0.2,12.8,1.4,18.8,3.6c3.2,1.1,6.1,2.8,8.8,4.8c0.7,0.5,1.3,1.1,1.9,1.8
	c0.6,0.7,1.2,1.4,1.7,2.1c0.5,0.8,1,1.6,1.3,2.5c0.4,0.9,0.6,1.8,0.8,2.7c0.1,0.5,0.2,0.9,0.2,1.4c0,0.5,0.1,1,0.1,1.4l-0.1,1.4
	c0,0.5-0.1,0.9-0.2,1.4c-0.4,1.8-1,3.5-1.8,5.1c-1.6,3-3.5,5.8-5.8,8.4c-2.2,2.5-4.6,4.8-7.2,6.9c-1.4,1.1-2.8,2-4.4,2.9
	c-1.6,0.9-3.4,1.6-5.2,2c-2,0.5-4,0.5-6,0.1c-2-0.4-3.9-1.4-5.5-2.8c-1.5-1.3-2.7-2.8-3.6-4.5c-0.9-1.6-1.5-3.3-2-5
	c-0.9-3.4-1.2-6.9-0.8-10.4c0.3-3.6,1.5-7.1,3.5-10.1c1.1-1.7,2.7-3,4.5-3.8c1.9-0.8,3.9-1,5.9-0.6c0.9,0.2,1.7,0.5,2.5,0.8
	c0.8,0.3,1.6,0.6,2.4,1c1.6,0.7,3.1,1.7,4.4,2.9c1.4,1.3,2.3,3,2.6,4.9c0.2,1.8-0.1,3.6-1,5.2c-0.8,1.5-1.9,2.8-3.3,3.8
	c-0.7,0.5-1.4,0.9-2.2,1.2C63.7,54,63.2,54,62.8,54c-0.4,0-0.8-0.3-1-0.6c0.6,0.5,1.5,0.5,2.1,0c0.7-0.4,1.2-0.9,1.8-1.4
	c1-1.1,1.8-2.4,2.2-3.9c0.5-1.3,0.6-2.7,0.2-4c-0.4-1.2-1.2-2.3-2.3-3.1c-1.1-0.8-2.4-1.5-3.7-1.9c-0.7-0.2-1.4-0.4-2.1-0.6
	c-0.7-0.2-1.4-0.3-2.1-0.4c-1.2-0.1-2.3,0.1-3.3,0.6c-1,0.6-1.9,1.4-2.4,2.4c-0.7,1.1-1.2,2.4-1.5,3.6c-0.3,1.4-0.5,2.7-0.6,4.1
	c-0.2,2.8,0.2,5.6,1,8.4c0.7,2.5,2,4.7,3.9,6.5c1.7,1.4,4.1,1.9,6.2,1.3c2.6-0.7,5.1-2,7.2-3.7c2.4-1.8,4.6-3.8,6.6-6
	c2.1-2.1,3.8-4.4,5.3-6.9c0.7-1.2,1.2-2.4,1.6-3.8c0.1-0.3,0.2-0.6,0.2-0.9l0.2-0.9c0-0.3,0-0.6,0-0.9c0-0.3,0-0.6,0-0.9
	c-0.1-0.6-0.2-1.2-0.4-1.8c-0.2-0.6-0.4-1.2-0.8-1.8c-0.7-1.2-1.5-2.3-2.5-3.2c-2.2-2.1-4.6-3.8-7.3-5.1
	C65.7,26.4,59.8,24.3,53.7,22.8z"/>
<path class="st2" d="M22.9,25.2c6.4,0.2,12.8,1.4,18.8,3.6c3.2,1.1,6.1,2.8,8.8,4.8c0.7,0.5,1.3,1.1,1.9,1.8c0.3,0.3,0.6,0.6,0.9,1
	c0.3,0.3,0.6,0.7,0.8,1.1c0.5,0.8,0.9,1.6,1.3,2.5c0.4,0.9,0.6,1.8,0.8,2.7c0.1,0.5,0.2,0.9,0.2,1.4c0,0.5,0.1,1,0.1,1.4L56.3,47
	c0,0.5-0.1,0.9-0.2,1.4c-0.4,1.8-1,3.5-1.8,5.1c-1.6,3-3.5,5.8-5.8,8.4c-2.2,2.5-4.6,4.8-7.2,6.9c-1.4,1.1-2.8,2-4.4,2.9
	c-1.6,0.9-3.4,1.6-5.2,2c-2,0.5-4,0.5-6,0.1c-2-0.4-3.9-1.4-5.5-2.8c-1.5-1.3-2.7-2.8-3.6-4.5c-0.9-1.6-1.5-3.3-2-5
	c-0.9-3.4-1.1-6.9-0.8-10.4c0.3-3.6,1.5-7.1,3.5-10.1c1.1-1.7,2.7-3,4.5-3.8c1.9-0.8,3.9-1,5.9-0.6c0.9,0.2,1.7,0.5,2.5,0.8
	c0.8,0.3,1.6,0.6,2.4,0.9c1.6,0.7,3.1,1.7,4.4,2.9c2.9,2.5,3.5,6.8,1.6,10.1c-0.8,1.5-1.9,2.8-3.3,3.8c-0.7,0.5-1.4,0.9-2.2,1.2
	c-0.4,0.1-0.8,0.2-1.2,0.2c-0.4,0-0.8-0.3-1-0.6c0.6,0.5,1.5,0.5,2.1,0c0.6-0.4,1.2-0.9,1.7-1.4c1-1.1,1.8-2.4,2.3-3.8
	c0.5-1.3,0.6-2.7,0.2-4c-0.4-1.2-1.2-2.3-2.3-3.1c-1.1-0.8-2.4-1.5-3.7-1.9c-0.7-0.2-1.4-0.4-2.1-0.6c-0.7-0.2-1.4-0.3-2.1-0.4
	c-1.2-0.1-2.3,0.1-3.4,0.6c-1,0.6-1.9,1.4-2.4,2.4c-0.7,1.1-1.2,2.4-1.5,3.7c-0.3,1.4-0.5,2.7-0.6,4.1c-0.2,2.8,0.2,5.6,1,8.4
	c0.7,2.5,2,4.8,3.9,6.5c1.7,1.4,4.1,1.9,6.2,1.3c2.6-0.7,5.1-2,7.2-3.7c2.4-1.8,4.6-3.8,6.6-6c2-2.1,3.8-4.4,5.3-6.9
	c0.7-1.2,1.2-2.4,1.6-3.8c0.1-0.3,0.2-0.6,0.2-0.9l0.2-1c0-0.3,0-0.6,0-0.9c0-0.3,0-0.6,0-0.9c-0.1-0.6-0.2-1.2-0.4-1.8
	c-0.2-0.6-0.4-1.2-0.8-1.8c-0.7-1.2-1.5-2.3-2.5-3.2c-2.2-2.1-4.6-3.8-7.3-5.1C34.9,28.8,29,26.7,22.9,25.2z"/>
<path class="st2" d="M29.2,48.1c6.4,0.2,12.8,1.4,18.8,3.6c3.2,1.1,6.1,2.8,8.8,4.8c0.7,0.5,1.4,1.1,2,1.8c0.3,0.3,0.6,0.6,0.9,1
	c0.3,0.4,0.6,0.7,0.8,1.1c0.5,0.8,1,1.6,1.3,2.5c0.4,0.9,0.6,1.8,0.8,2.7c0.1,0.5,0.2,0.9,0.2,1.4c0,0.5,0.1,1,0.1,1.4l-0.1,1.4
	c0,0.5-0.1,0.9-0.2,1.4c-0.4,1.8-1,3.5-1.8,5.1c-1.5,3-3.5,5.9-5.8,8.4c-2.2,2.5-4.6,4.8-7.2,6.9c-1.4,1.1-2.8,2-4.4,2.9
	c-1.6,0.9-3.4,1.6-5.2,2c-2,0.5-4,0.5-6,0.1c-2-0.4-3.9-1.4-5.5-2.8c-1.5-1.3-2.7-2.8-3.6-4.5c-0.9-1.6-1.5-3.3-2-5
	c-0.9-3.4-1.2-6.9-0.8-10.4c0.3-3.6,1.5-7.1,3.5-10.1c1.1-1.6,2.7-3,4.5-3.8c1.9-0.8,3.9-1,5.9-0.6c0.9,0.2,1.7,0.5,2.5,0.8
	c0.8,0.3,1.6,0.6,2.4,0.9c1.6,0.7,3.1,1.7,4.4,2.9c1.4,1.3,2.3,3,2.6,4.9c0.2,1.8-0.1,3.6-1,5.2c-0.8,1.5-1.9,2.8-3.3,3.8
	c-0.7,0.5-1.4,0.9-2.2,1.2c-0.4,0.1-0.8,0.2-1.2,0.2c-0.4,0-0.8-0.3-1-0.6c0.6,0.5,1.5,0.5,2.1,0c0.6-0.4,1.2-0.9,1.6-1.5
	c1-1.1,1.8-2.4,2.3-3.8c0.5-1.3,0.6-2.7,0.2-4c-0.4-1.2-1.2-2.3-2.3-3.1c-1.1-0.8-2.4-1.5-3.7-1.9c-0.7-0.2-1.4-0.4-2.1-0.6
	c-0.7-0.2-1.4-0.3-2.1-0.4c-1.2-0.1-2.3,0.1-3.4,0.6c-1,0.6-1.8,1.4-2.4,2.4c-0.7,1.1-1.2,2.4-1.5,3.7c-0.3,1.4-0.5,2.7-0.6,4.1
	c-0.2,2.8,0.2,5.6,1,8.4c0.7,2.5,2,4.7,3.9,6.5c1.7,1.5,4.1,2,6.3,1.3c2.6-0.7,5.1-2,7.2-3.7c2.4-1.8,4.6-3.8,6.6-6
	c2.1-2.1,3.8-4.4,5.3-6.9c0.7-1.2,1.2-2.4,1.5-3.7c0.1-0.3,0.2-0.6,0.2-0.9l0.2-1c0-0.3,0-0.6,0-0.9c0-0.3,0-0.6,0-0.9
	c-0.1-0.6-0.2-1.2-0.4-1.8c-0.2-0.6-0.4-1.2-0.8-1.8c-0.7-1.2-1.5-2.3-2.5-3.2c-2.2-2-4.6-3.8-7.3-5.1
	C41.2,51.7,35.3,49.5,29.2,48.1z"/>
<path class="st2" d="M103,55.1c2.6,5.9,4.4,12.1,5.1,18.5c0.4,3.3,0.2,6.7-0.4,10c-0.2,0.9-0.4,1.7-0.7,2.5
	c-0.2,0.4-0.3,0.8-0.5,1.2c-0.2,0.4-0.4,0.8-0.6,1.2c-0.5,0.8-1,1.6-1.7,2.3c-0.6,0.7-1.3,1.4-2.1,1.9c-0.4,0.3-0.8,0.5-1.2,0.8
	c-0.4,0.2-0.8,0.5-1.3,0.7l-1.3,0.5c-0.4,0.2-0.9,0.3-1.3,0.4c-1.7,0.4-3.5,0.7-5.3,0.6c-3.4,0-6.8-0.5-10.1-1.5
	c-3.2-0.8-6.4-2-9.4-3.4c-1.6-0.8-3.1-1.6-4.5-2.7c-1.5-1.1-2.9-2.3-4.1-3.8c-1.3-1.6-2.2-3.4-2.7-5.4c-0.5-2-0.5-4.2,0-6.2
	c0.5-1.9,1.3-3.6,2.5-5.2c1-1.5,2.3-2.8,3.6-4c2.7-2.3,5.7-4.1,9-5.3c3.4-1.4,7-1.8,10.6-1.4c2,0.3,3.9,1.1,5.4,2.4
	c1.5,1.3,2.6,3.1,3.1,5c0.2,0.9,0.3,1.7,0.4,2.6c0.1,0.8,0.2,1.7,0.2,2.5c0.1,1.8-0.1,3.5-0.7,5.2c-1,3.7-4.5,6.1-8.3,5.9
	c-1.7-0.1-3.3-0.5-4.8-1.3c-0.7-0.4-1.4-0.9-2-1.4c-0.3-0.3-0.5-0.6-0.7-1c-0.2-0.4-0.1-0.8,0.1-1.2c-0.3,0.8,0.4,1.4,1,1.9
	c0.6,0.4,1.3,0.7,2,0.9c1.4,0.4,2.9,0.6,4.4,0.4c1.4-0.1,2.7-0.7,3.7-1.6c0.9-0.9,1.5-2.1,1.7-3.4c0.2-1.4,0.2-2.8,0-4.2
	c-0.1-0.7-0.2-1.4-0.4-2.1s-0.4-1.5-0.6-2c-0.4-1.1-1.1-2-2-2.7c-1-0.7-2.1-1-3.3-1.1c-1.3-0.1-2.6,0-3.9,0.3
	c-1.4,0.3-2.7,0.7-4,1.3c-2.6,1.1-5,2.7-7,4.6c-1.9,1.7-3.4,3.9-4.1,6.4c-0.5,2.2,0.1,4.5,1.6,6.2c1.8,2,4,3.7,6.5,4.8
	c2.7,1.3,5.4,2.4,8.3,3.3c2.8,0.9,5.6,1.4,8.5,1.6c1.3,0.1,2.7,0,4-0.3c0.3,0,0.6-0.1,0.9-0.2l0.9-0.3c0.3-0.1,0.6-0.2,0.8-0.4
	c0.3-0.1,0.6-0.3,0.8-0.4c0.5-0.3,1-0.7,1.5-1.2c0.5-0.4,0.9-0.9,1.3-1.4c0.8-1.1,1.4-2.4,1.8-3.7c0.9-2.8,1.3-5.8,1.3-8.8
	C105.1,67.4,104.4,61.2,103,55.1z"/>
<path class="st2" d="M124.6,45.7c2.7,5.9,4.4,12.1,5.1,18.5c0.4,3.3,0.2,6.7-0.4,10c-0.2,0.9-0.4,1.7-0.7,2.5
	c-0.2,0.4-0.3,0.8-0.6,1.2c-0.2,0.4-0.4,0.8-0.6,1.2c-0.5,0.8-1,1.6-1.6,2.3c-0.6,0.7-1.3,1.4-2.1,1.9c-0.4,0.3-0.8,0.6-1.2,0.8
	c-0.4,0.2-0.8,0.5-1.3,0.7l-1.3,0.5c-0.4,0.2-0.9,0.3-1.3,0.4c-1.7,0.4-3.5,0.7-5.3,0.6c-3.4-0.1-6.8-0.6-10.1-1.5
	c-3.2-0.8-6.4-2-9.4-3.4c-1.6-0.8-3.1-1.6-4.5-2.6c-1.5-1.1-2.9-2.3-4.1-3.7c-1.3-1.6-2.2-3.4-2.7-5.4c-0.5-2-0.5-4.2,0-6.2
	c0.5-1.9,1.3-3.6,2.5-5.2c1-1.5,2.3-2.8,3.6-4c2.7-2.3,5.7-4.1,9-5.3c3.4-1.4,7-1.8,10.6-1.3c2,0.3,3.9,1.1,5.4,2.4
	c1.5,1.3,2.6,3.1,3.1,5c0.2,0.9,0.3,1.7,0.4,2.6c0.1,0.8,0.2,1.7,0.2,2.5c0.1,1.8-0.1,3.5-0.7,5.2c-0.6,1.8-1.7,3.4-3.2,4.5
	c-1.5,1-3.3,1.5-5.1,1.4c-1.7-0.1-3.3-0.5-4.8-1.3c-0.7-0.4-1.4-0.9-2-1.4c-0.3-0.3-0.5-0.6-0.7-1c-0.2-0.4-0.1-0.8,0.1-1.2
	c-0.3,0.8,0.4,1.4,1,1.9c0.6,0.4,1.3,0.7,2,0.9c1.4,0.4,2.9,0.6,4.4,0.4c1.4-0.1,2.7-0.7,3.7-1.6c0.9-0.9,1.6-2.1,1.7-3.4
	c0.2-1.4,0.2-2.8,0-4.2c-0.1-0.7-0.2-1.4-0.4-2.1c-0.2-0.7-0.3-1.3-0.6-2c-0.4-1.1-1.1-2-2-2.7c-1-0.7-2.1-1-3.3-1.1
	c-1.3-0.1-2.6,0-3.9,0.3c-1.4,0.3-2.7,0.7-4,1.3c-2.6,1.1-5,2.7-7,4.6c-1.9,1.7-3.4,3.9-4.1,6.4c-0.5,2.2,0.1,4.5,1.6,6.1
	c1.8,2,4,3.7,6.5,4.8c2.7,1.3,5.4,2.4,8.3,3.3c2.8,0.9,5.6,1.5,8.6,1.7c1.3,0.1,2.7,0,4-0.3c0.3,0,0.6-0.1,0.9-0.2l0.9-0.3
	c0.3-0.1,0.6-0.2,0.8-0.4c0.3-0.1,0.6-0.3,0.8-0.4c0.5-0.3,1-0.7,1.5-1.2c0.5-0.4,0.9-0.9,1.3-1.4c0.8-1.1,1.4-2.4,1.8-3.7
	c0.9-2.8,1.3-5.8,1.3-8.8C126.6,58,126,51.8,124.6,45.7z"/>
<path class="st2" d="M152.5,49.5c2.6,5.9,4.4,12.1,5.1,18.5c0.4,3.3,0.2,6.7-0.4,10c-0.2,0.9-0.4,1.7-0.7,2.5
	c-0.2,0.4-0.3,0.8-0.5,1.2c-0.2,0.4-0.4,0.8-0.6,1.2c-0.5,0.8-1,1.6-1.7,2.3c-0.6,0.7-1.3,1.4-2.1,1.9c-0.4,0.3-0.8,0.6-1.2,0.8
	c-0.4,0.2-0.8,0.5-1.3,0.7l-1.3,0.5c-0.4,0.2-0.9,0.3-1.3,0.4c-1.7,0.4-3.5,0.7-5.3,0.6c-3.4-0.1-6.8-0.5-10.1-1.5
	c-3.2-0.8-6.4-2-9.4-3.4c-1.6-0.8-3.1-1.6-4.5-2.7c-1.5-1.1-2.9-2.3-4.1-3.8c-1.3-1.6-2.2-3.4-2.7-5.4c-0.5-2-0.5-4.2,0-6.2
	c0.5-1.9,1.3-3.6,2.5-5.2c1-1.5,2.3-2.8,3.6-4c2.7-2.3,5.7-4.1,9-5.3c3.4-1.4,7-1.8,10.6-1.4c2,0.3,3.8,1.1,5.4,2.4
	c1.5,1.3,2.6,3.1,3.1,5c0.2,0.9,0.3,1.7,0.4,2.6c0.1,0.8,0.2,1.7,0.2,2.5c0.1,1.8-0.1,3.5-0.6,5.2c-0.6,1.8-1.7,3.4-3.2,4.5
	c-1.5,1-3.3,1.5-5.1,1.4c-1.7-0.1-3.3-0.5-4.8-1.3c-0.7-0.4-1.4-0.9-2-1.4c-0.3-0.3-0.5-0.6-0.7-1c-0.2-0.4-0.1-0.8,0.1-1.2
	c-0.3,0.8,0.4,1.4,1,1.9c0.6,0.4,1.3,0.7,2.1,0.9c1.4,0.4,2.9,0.6,4.4,0.4c1.4-0.1,2.7-0.7,3.7-1.6c0.9-0.9,1.5-2.1,1.7-3.4
	c0.2-1.4,0.2-2.8,0-4.2c-0.1-0.7-0.2-1.4-0.4-2.2c-0.2-0.7-0.3-1.3-0.6-2c-0.4-1.1-1.1-2-2-2.7c-1-0.6-2.1-1-3.3-1.1
	c-1.3-0.1-2.6,0-3.9,0.3c-1.4,0.3-2.7,0.7-4,1.3c-2.6,1.1-5,2.7-7,4.6c-1.9,1.7-3.4,3.9-4.1,6.4c-0.5,2.2,0.1,4.5,1.6,6.2
	c1.8,2,4,3.7,6.5,4.8c2.7,1.3,5.4,2.4,8.3,3.3c2.8,0.9,5.6,1.5,8.5,1.7c1.3,0.1,2.7,0,4-0.3c0.3,0,0.7-0.1,1-0.2l0.9-0.3
	c0.3-0.1,0.6-0.3,0.9-0.4c0.3-0.1,0.6-0.3,0.8-0.4c0.5-0.3,1-0.7,1.5-1.2c0.5-0.4,0.9-0.9,1.3-1.5c0.8-1.1,1.4-2.4,1.8-3.7
	c0.9-2.8,1.3-5.8,1.3-8.8C154.6,61.9,153.9,55.6,152.5,49.5z"/>
<path class="st2" d="M205.4,70.1c2.6,5.9,4.4,12.1,5.1,18.5c0.4,3.3,0.2,6.7-0.4,10c-0.2,0.9-0.4,1.7-0.7,2.5
	c-0.2,0.4-0.3,0.8-0.6,1.2c-0.2,0.4-0.4,0.8-0.6,1.2c-0.5,0.8-1,1.6-1.6,2.3c-0.6,0.7-1.3,1.4-2.1,1.9c-0.4,0.3-0.8,0.6-1.2,0.8
	c-0.4,0.2-0.8,0.5-1.3,0.7l-1.3,0.5c-0.4,0.2-0.9,0.3-1.3,0.4c-1.7,0.4-3.5,0.6-5.3,0.6c-3.4-0.1-6.8-0.5-10.1-1.5
	c-3.2-0.8-6.4-2-9.4-3.4c-1.6-0.8-3.1-1.6-4.5-2.7c-1.5-1.1-2.9-2.3-4.1-3.8c-1.3-1.6-2.2-3.4-2.7-5.4c-0.5-2-0.5-4.2,0-6.2
	c0.5-1.9,1.3-3.6,2.5-5.2c1-1.5,2.3-2.8,3.6-4c2.7-2.3,5.7-4.1,9-5.3c3.4-1.4,7-1.8,10.6-1.4c2,0.3,3.9,1.1,5.4,2.4
	c1.5,1.3,2.6,3.1,3.1,5c0.2,0.9,0.3,1.7,0.4,2.6c0.1,0.8,0.2,1.7,0.2,2.5c0.1,1.8-0.1,3.5-0.6,5.2c-1,3.7-4.5,6.1-8.3,5.9
	c-1.7-0.1-3.3-0.5-4.8-1.3c-0.7-0.4-1.4-0.9-2-1.4c-0.3-0.3-0.5-0.6-0.7-1c-0.2-0.4-0.1-0.8,0.1-1.2c-0.3,0.8,0.4,1.4,1,1.9
	c0.6,0.4,1.3,0.7,2.1,0.9c1.4,0.4,2.9,0.6,4.4,0.4c1.4-0.1,2.7-0.7,3.7-1.6c0.9-0.9,1.6-2.1,1.7-3.4c0.2-1.4,0.2-2.8,0-4.2
	c-0.1-0.7-0.2-1.4-0.4-2.2c-0.2-0.7-0.3-1.3-0.6-2c-0.4-1.1-1.1-2-2-2.7c-1-0.7-2.1-1-3.3-1.1c-1.3-0.1-2.6,0-3.9,0.3
	c-1.4,0.3-2.7,0.7-4,1.3c-2.6,1.1-5,2.7-7,4.6c-1.9,1.7-3.4,3.9-4.1,6.4c-0.5,2.2,0.1,4.5,1.6,6.2c1.8,2,4,3.7,6.5,4.8
	c2.7,1.3,5.4,2.4,8.3,3.3c2.8,0.9,5.6,1.5,8.5,1.7c1.3,0.1,2.7,0,4-0.3c0.3,0,0.6-0.1,0.9-0.2l0.9-0.3c0.3-0.1,0.6-0.3,0.8-0.4
	c0.3-0.1,0.6-0.3,0.8-0.4c0.5-0.3,1-0.7,1.5-1.2c0.5-0.4,0.9-0.9,1.3-1.5c0.8-1.1,1.4-2.4,1.8-3.7c0.9-2.8,1.3-5.8,1.3-8.8
	C207.5,82.5,206.8,76.2,205.4,70.1z"/>
<path class="st2" d="M210.4,60.9c2.6,5.9,4.4,12.1,5.1,18.5c0.4,3.3,0.2,6.7-0.4,10c-0.2,0.9-0.4,1.7-0.7,2.5
	c-0.2,0.4-0.4,0.8-0.6,1.2c-0.2,0.4-0.4,0.8-0.6,1.2c-0.5,0.8-1,1.6-1.7,2.3c-0.6,0.7-1.3,1.4-2.1,1.9c-0.4,0.3-0.8,0.6-1.2,0.8
	c-0.4,0.2-0.8,0.5-1.3,0.7l-1.3,0.5c-0.4,0.2-0.9,0.3-1.3,0.4c-1.8,0.4-3.5,0.6-5.4,0.6c-3.4-0.1-6.8-0.6-10-1.5
	c-3.2-0.8-6.4-2-9.4-3.4c-1.6-0.8-3.1-1.6-4.5-2.7c-1.5-1.1-2.9-2.3-4.1-3.8c-1.3-1.6-2.2-3.4-2.7-5.4c-0.5-2-0.5-4.2,0-6.2
	c0.5-1.9,1.3-3.6,2.5-5.2c1-1.5,2.3-2.8,3.6-4c2.7-2.3,5.7-4.1,9-5.3c3.4-1.4,7-1.8,10.6-1.4c2,0.3,3.9,1.1,5.4,2.4
	c1.5,1.3,2.6,3.1,3.1,5c0.2,0.9,0.3,1.7,0.4,2.6c0.1,0.8,0.2,1.7,0.2,2.5c0.1,1.8-0.1,3.5-0.6,5.2c-0.6,1.8-1.7,3.4-3.2,4.5
	c-1.5,1-3.3,1.5-5.1,1.4c-1.7-0.1-3.3-0.5-4.8-1.3c-0.7-0.4-1.4-0.9-2-1.4c-0.3-0.3-0.5-0.6-0.7-1c-0.2-0.4-0.1-0.8,0.1-1.2
	c-0.3,0.8,0.4,1.4,1,1.9c0.6,0.4,1.3,0.7,2.1,0.9c1.4,0.4,2.9,0.6,4.4,0.4c1.4-0.1,2.7-0.7,3.7-1.6c0.9-0.9,1.5-2.1,1.7-3.4
	c0.2-1.4,0.2-2.8,0-4.2c-0.1-0.7-0.2-1.4-0.4-2.1c-0.2-0.7-0.3-1.3-0.6-2c-0.4-1.1-1.1-2-2-2.7c-1-0.7-2.1-1-3.3-1.1
	c-1.3-0.1-2.6,0-3.9,0.3c-1.4,0.3-2.7,0.7-4,1.3c-2.6,1.1-5,2.7-7,4.6c-1.9,1.7-3.4,3.9-4.1,6.4c-0.5,2.2,0.1,4.5,1.6,6.2
	c1.8,2,4,3.7,6.5,4.8c2.7,1.3,5.4,2.4,8.3,3.3c2.8,0.9,5.6,1.5,8.6,1.7c1.3,0.1,2.7,0,4-0.3c0.3,0,0.7-0.1,1-0.2l0.9-0.3
	c0.3-0.1,0.6-0.3,0.9-0.4c0.3-0.1,0.6-0.3,0.8-0.4c0.5-0.3,1-0.7,1.5-1.1c0.5-0.4,0.9-0.9,1.3-1.5c0.8-1.1,1.4-2.4,1.8-3.7
	c0.9-2.8,1.3-5.8,1.3-8.8C212.5,73.3,211.8,67,210.4,60.9z"/>
<path class="st2" d="M188.8,20.1c2.6,5.9,4.4,12.1,5.1,18.5c0.4,3.3,0.2,6.7-0.4,10c-0.2,0.9-0.4,1.7-0.7,2.5
	c-0.2,0.4-0.3,0.8-0.5,1.2c-0.2,0.4-0.4,0.8-0.6,1.2c-0.5,0.8-1,1.6-1.7,2.3c-0.6,0.7-1.3,1.4-2.1,1.9c-0.4,0.3-0.8,0.6-1.2,0.8
	c-0.4,0.2-0.8,0.5-1.3,0.7l-1.3,0.5c-0.4,0.2-0.9,0.3-1.3,0.4c-1.7,0.4-3.5,0.7-5.3,0.6c-3.4,0-6.8-0.5-10.1-1.5
	c-3.2-0.8-6.4-2-9.4-3.4c-1.6-0.8-3.1-1.6-4.5-2.7c-1.5-1.1-2.9-2.3-4.1-3.8c-1.3-1.6-2.2-3.4-2.7-5.4c-0.5-2-0.5-4.2,0-6.2
	c0.5-1.9,1.3-3.6,2.5-5.2c1-1.5,2.3-2.8,3.6-4c2.7-2.3,5.7-4.1,9-5.3c3.4-1.4,7-1.8,10.6-1.4c2,0.3,3.8,1.1,5.4,2.4
	c1.5,1.3,2.6,3.1,3.1,5c0.2,0.9,0.4,1.7,0.4,2.6c0.1,0.8,0.2,1.7,0.2,2.5c0.1,1.8-0.1,3.5-0.6,5.2c-0.6,1.8-1.7,3.4-3.2,4.5
	c-1.5,1-3.3,1.5-5.1,1.4c-1.7-0.1-3.3-0.5-4.8-1.3c-0.7-0.4-1.4-0.9-2-1.4c-0.3-0.3-0.5-0.6-0.7-1c-0.2-0.4-0.1-0.8,0.1-1.2
	c-0.3,0.8,0.4,1.4,1,1.9c0.6,0.4,1.3,0.7,2.1,0.9c1.4,0.4,2.9,0.6,4.4,0.4c1.4-0.1,2.7-0.7,3.7-1.6c0.9-0.9,1.5-2.1,1.7-3.4
	c0.2-1.4,0.2-2.8,0-4.2c-0.1-0.7-0.2-1.4-0.4-2.1c-0.2-0.7-0.3-1.3-0.6-2c-0.4-1.1-1.1-2-2-2.7c-1-0.7-2.1-1-3.3-1.1
	c-1.3-0.1-2.7,0-4,0.3c-1.4,0.3-2.7,0.7-4,1.3c-2.6,1.1-5,2.7-7,4.6c-1.9,1.7-3.4,3.9-4.1,6.4c-0.5,2.2,0.1,4.5,1.6,6.2
	c1.8,2,4,3.7,6.5,4.8c2.7,1.3,5.4,2.4,8.3,3.3c2.8,0.9,5.6,1.5,8.5,1.7c1.4,0.1,2.7,0,4.1-0.3c0.3,0,0.6-0.1,0.9-0.2l0.9-0.3
	c0.3-0.1,0.6-0.2,0.9-0.4c0.3-0.1,0.6-0.3,0.8-0.4c0.5-0.3,1-0.7,1.5-1.2c0.4-0.4,0.8-0.9,1.2-1.5c0.8-1.1,1.4-2.4,1.8-3.7
	c0.9-2.8,1.3-5.8,1.3-8.8C190.8,32.4,190.2,26.2,188.8,20.1z"/>
<path class="st2" d="M161.6,1.1c2.6,5.8,4.3,12.1,5.1,18.4c0.4,3.3,0.2,6.7-0.4,10c-0.2,0.9-0.4,1.7-0.7,2.5
	c-0.2,0.4-0.3,0.8-0.6,1.2c-0.2,0.4-0.4,0.8-0.6,1.2c-0.5,0.8-1,1.6-1.6,2.3c-0.6,0.7-1.3,1.4-2.1,1.9c-0.4,0.3-0.8,0.6-1.2,0.8
	c-0.4,0.2-0.8,0.5-1.3,0.7l-1.3,0.5c-0.4,0.2-0.9,0.3-1.3,0.4c-1.8,0.4-3.5,0.6-5.4,0.6c-3.4-0.1-6.8-0.5-10.1-1.5
	c-3.2-0.8-6.4-2-9.4-3.4c-1.6-0.8-3.1-1.7-4.5-2.7c-1.5-1.1-2.9-2.3-4.1-3.8c-1.3-1.6-2.2-3.4-2.7-5.3c-0.5-2-0.5-4.2,0-6.2
	c0.5-1.9,1.3-3.6,2.5-5.2c1-1.5,2.3-2.8,3.6-4c2.7-2.3,5.7-4.1,9-5.3c3.3-1.4,7-1.8,10.6-1.4c2,0.3,3.9,1.1,5.4,2.4
	c1.5,1.3,2.6,3.1,3.1,5c0.2,0.9,0.3,1.7,0.4,2.6c0.1,0.8,0.2,1.7,0.2,2.5c0.1,1.8-0.1,3.5-0.6,5.2c-0.5,1.8-1.7,3.4-3.2,4.5
	c-1.5,1-3.3,1.5-5.1,1.4c-1.7-0.1-3.3-0.5-4.8-1.3c-0.7-0.4-1.4-0.9-2-1.4c-0.3-0.3-0.5-0.6-0.7-1c-0.2-0.4-0.1-0.8,0.1-1.2
	c-0.1,0.8,0.3,1.5,1,1.9c0.6,0.4,1.3,0.7,2.1,0.9c1.4,0.4,2.9,0.6,4.4,0.4c1.4-0.1,2.7-0.7,3.7-1.6c0.9-0.9,1.6-2.1,1.7-3.4
	c0.2-1.4,0.2-2.8,0-4.2c-0.1-0.7-0.2-1.4-0.4-2.1c-0.2-0.7-0.3-1.3-0.6-2c-0.4-1.1-1.1-2-2-2.7c-1-0.7-2.1-1-3.3-1.1
	c-1.3-0.1-2.6,0-3.9,0.3c-1.4,0.3-2.7,0.7-4,1.3c-2.6,1.1-5,2.7-7,4.6c-1.9,1.7-3.4,3.9-4.1,6.4c-0.5,2.2,0.1,4.5,1.6,6.2
	c1.8,2,4,3.7,6.5,4.8c2.7,1.3,5.4,2.4,8.3,3.3c2.8,0.9,5.6,1.5,8.6,1.7c1.3,0.1,2.7,0,4-0.3c0.3,0,0.6-0.1,0.9-0.2l0.9-0.3
	c0.3-0.1,0.6-0.3,0.9-0.4c0.3-0.1,0.6-0.3,0.8-0.4c0.5-0.3,1-0.7,1.5-1.1c0.5-0.4,0.9-0.9,1.3-1.5c0.8-1.1,1.4-2.4,1.8-3.7
	c0.9-2.8,1.3-5.8,1.3-8.8C163.7,13.5,163,7.2,161.6,1.1z"/>
<path class="st2" d="M124.6,1.1c2.7,5.8,4.4,12.1,5.1,18.4c0.4,3.3,0.2,6.7-0.4,10c-0.2,0.9-0.4,1.7-0.7,2.5
	c-0.2,0.4-0.3,0.8-0.6,1.2c-0.2,0.4-0.4,0.8-0.6,1.2c-0.5,0.8-1,1.6-1.6,2.3c-0.6,0.7-1.3,1.4-2.1,1.9c-0.4,0.3-0.8,0.6-1.2,0.8
	c-0.4,0.2-0.8,0.5-1.3,0.7l-1.3,0.5c-0.4,0.2-0.9,0.3-1.3,0.4c-1.8,0.4-3.5,0.6-5.3,0.6c-3.4-0.1-6.8-0.5-10.1-1.5
	c-3.2-0.8-6.4-2-9.4-3.4c-1.6-0.8-3.1-1.7-4.5-2.7c-1.5-1.1-2.9-2.3-4.1-3.8c-1.3-1.6-2.3-3.4-2.8-5.3c-0.5-2-0.5-4.2,0-6.2
	c0.5-1.9,1.3-3.6,2.5-5.2c1-1.5,2.3-2.8,3.6-4c2.7-2.3,5.7-4.1,9-5.3c3.3-1.4,7-1.8,10.6-1.4c2,0.3,3.9,1.1,5.4,2.4
	c1.5,1.3,2.6,3.1,3.1,5c0.2,0.9,0.3,1.7,0.4,2.6c0.1,0.8,0.2,1.7,0.2,2.5c0.1,1.8-0.1,3.5-0.7,5.2c-0.5,1.8-1.7,3.4-3.2,4.5
	c-1.5,1-3.3,1.5-5.1,1.4c-1.7-0.1-3.3-0.5-4.8-1.3c-0.7-0.4-1.4-0.9-2-1.4c-0.3-0.3-0.5-0.6-0.7-1c-0.2-0.4-0.1-0.8,0.1-1.2
	c-0.3,0.8,0.4,1.4,1,1.9c0.6,0.4,1.3,0.7,2.1,0.9c1.4,0.4,2.9,0.6,4.4,0.4c1.4-0.1,2.7-0.7,3.7-1.6c0.9-0.9,1.6-2.1,1.7-3.4
	c0.2-1.4,0.2-2.8,0-4.2c-0.1-0.7-0.2-1.4-0.4-2.1c-0.2-0.7-0.3-1.3-0.6-2c-0.4-1.1-1.1-2-2-2.7c-1-0.7-2.1-1-3.3-1.1
	c-1.3-0.1-2.6,0-3.9,0.3c-1.4,0.3-2.7,0.7-4,1.3c-2.6,1.1-5,2.7-7,4.6c-1.9,1.7-3.4,3.9-4.1,6.4c-0.5,2.2,0.1,4.5,1.6,6.2
	c1.8,2,4,3.7,6.5,4.8c2.7,1.3,5.4,2.4,8.3,3.3c2.8,0.9,5.6,1.5,8.6,1.7c1.3,0.1,2.7,0,4-0.3c0.3,0,0.6-0.1,0.9-0.2l0.9-0.3
	c0.3-0.1,0.6-0.3,0.8-0.4c0.3-0.1,0.6-0.3,0.8-0.4c0.5-0.3,1-0.7,1.5-1.1c0.5-0.4,0.9-0.9,1.3-1.5c0.8-1.1,1.4-2.4,1.8-3.7
	c0.9-2.8,1.3-5.8,1.3-8.8C126.7,13.5,126,7.2,124.6,1.1z"/>
<path class="st2" d="M235.2,93.8c2.6,5.9,4.4,12.1,5.1,18.5c0.4,3.3,0.2,6.7-0.4,10c-0.2,0.9-0.4,1.7-0.7,2.5
	c-0.2,0.4-0.3,0.8-0.5,1.2c-0.2,0.4-0.4,0.8-0.6,1.2c-0.5,0.8-1,1.6-1.6,2.3c-0.6,0.7-1.3,1.4-2.1,1.9c-0.4,0.3-0.8,0.6-1.2,0.8
	c-0.4,0.2-0.8,0.5-1.3,0.7l-1.3,0.5c-0.4,0.2-0.9,0.3-1.3,0.4c-1.8,0.4-3.5,0.6-5.4,0.6c-3.4-0.1-6.8-0.6-10.1-1.5
	c-3.2-0.8-6.4-2-9.4-3.4c-1.6-0.8-3.1-1.6-4.5-2.7c-1.5-1.1-2.9-2.3-4.1-3.8c-1.3-1.6-2.2-3.4-2.7-5.4c-0.5-2-0.5-4.2,0-6.2
	c0.5-1.9,1.3-3.6,2.5-5.2c1-1.5,2.3-2.8,3.6-4c2.7-2.3,5.7-4.1,9-5.3c3.4-1.4,7-1.8,10.6-1.4c2,0.3,3.9,1.1,5.4,2.4
	c1.5,1.3,2.6,3.1,3.1,5c0.2,0.9,0.3,1.7,0.4,2.6c0.1,0.8,0.2,1.7,0.2,2.5c0.1,1.8-0.1,3.5-0.6,5.2c-1,3.7-4.5,6.1-8.3,5.9
	c-1.7-0.1-3.3-0.5-4.8-1.3c-0.7-0.4-1.4-0.9-2-1.5c-0.3-0.3-0.5-0.6-0.7-1c-0.2-0.4-0.1-0.8,0.1-1.2c-0.3,0.8,0.4,1.4,1,1.9
	c0.6,0.4,1.3,0.7,2.1,0.9c1.4,0.4,2.9,0.6,4.4,0.4c1.4-0.1,2.7-0.7,3.7-1.6c0.9-0.9,1.5-2.1,1.7-3.4c0.2-1.4,0.2-2.8,0-4.2
	c-0.2-1.4-0.5-2.8-1-4.2c-0.4-1.1-1.1-2-2-2.7c-1-0.7-2.1-1-3.3-1.1c-1.3-0.1-2.6,0-3.9,0.3c-1.4,0.3-2.7,0.7-4,1.3
	c-2.6,1.1-5,2.7-7,4.6c-1.9,1.7-3.4,3.9-4.1,6.4c-0.5,2.2,0.1,4.5,1.6,6.2c1.8,2,4,3.7,6.5,4.8c2.7,1.3,5.4,2.4,8.3,3.3
	c2.8,0.9,5.6,1.5,8.6,1.7c1.3,0.1,2.7,0,4-0.3c0.3,0,0.6-0.1,0.9-0.2l0.9-0.3c0.3-0.1,0.6-0.3,0.9-0.4c0.3-0.1,0.6-0.3,0.8-0.4
	c0.5-0.3,1-0.7,1.5-1.2c0.5-0.4,0.9-0.9,1.3-1.5c0.8-1.1,1.4-2.4,1.8-3.7c0.9-2.8,1.3-5.8,1.3-8.8
	C237.3,106.1,236.6,99.9,235.2,93.8z"/>
<path class="st2" d="M220.7,118.8c2.6,5.9,4.4,12.1,5.1,18.5c0.4,3.3,0.2,6.7-0.4,10c-0.2,0.9-0.4,1.7-0.7,2.5
	c-0.2,0.4-0.3,0.8-0.5,1.2c-0.2,0.4-0.4,0.8-0.6,1.2c-0.5,0.8-1,1.6-1.7,2.3c-0.6,0.7-1.3,1.4-2.1,1.9c-0.4,0.3-0.8,0.6-1.2,0.8
	c-0.4,0.2-0.8,0.5-1.3,0.7l-1.3,0.5c-0.4,0.2-0.9,0.3-1.3,0.4c-1.7,0.4-3.5,0.7-5.3,0.6c-3.4-0.1-6.8-0.6-10.1-1.5
	c-3.2-0.8-6.4-2-9.4-3.4c-1.6-0.8-3.1-1.6-4.5-2.6c-1.5-1.1-2.9-2.3-4.1-3.8c-1.3-1.6-2.2-3.4-2.7-5.4c-0.5-2-0.5-4.2,0-6.2
	c0.5-1.9,1.3-3.6,2.5-5.2c1-1.5,2.3-2.8,3.6-4c2.7-2.3,5.7-4.1,9-5.3c3.4-1.4,7-1.8,10.6-1.3c2,0.3,3.9,1.1,5.4,2.4
	c1.5,1.3,2.6,3.1,3.1,5c0.2,0.9,0.3,1.7,0.4,2.6c0.1,0.8,0.2,1.7,0.2,2.5c0.1,1.8-0.1,3.5-0.6,5.2c-0.6,1.8-1.7,3.4-3.2,4.5
	c-1.5,1-3.3,1.5-5.1,1.4c-1.7-0.1-3.3-0.5-4.8-1.3c-0.7-0.4-1.4-0.9-2-1.4c-0.3-0.3-0.5-0.6-0.7-1c-0.2-0.4-0.1-0.8,0.1-1.2
	c-0.3,0.8,0.4,1.5,1,1.9c0.6,0.4,1.3,0.7,2.1,0.9c1.4,0.4,2.9,0.6,4.4,0.4c1.4-0.1,2.7-0.7,3.7-1.6c0.9-0.9,1.5-2.1,1.7-3.4
	c0.2-1.4,0.2-2.8,0-4.2c-0.1-0.7-0.2-1.4-0.4-2.1c-0.2-0.7-0.3-1.3-0.6-2c-0.4-1.1-1.1-2-2-2.7c-1-0.7-2.1-1-3.3-1.1
	c-1.3-0.1-2.6,0-3.9,0.3c-1.4,0.3-2.7,0.7-4,1.3c-2.6,1.1-5,2.7-7,4.6c-1.9,1.7-3.4,3.9-4.1,6.4c-0.5,2.2,0.1,4.5,1.6,6.2
	c1.8,2,4,3.7,6.5,4.8c2.7,1.3,5.4,2.4,8.3,3.3c2.8,0.9,5.6,1.5,8.5,1.7c1.4,0.1,2.7,0,4.1-0.3c0.3,0,0.6-0.1,0.9-0.2l0.9-0.3
	c0.3-0.1,0.6-0.2,0.9-0.4c0.3-0.1,0.6-0.3,0.8-0.4c0.5-0.3,1-0.7,1.5-1.2c0.5-0.4,0.9-0.9,1.3-1.5c0.8-1.1,1.4-2.4,1.8-3.7
	c0.9-2.8,1.3-5.8,1.3-8.8C222.9,131.2,222.1,124.9,220.7,118.8z"/>
<path class="st2" d="M222.9,156.1c-2.7,3.6-6,6.8-9.7,9.4c-1.9,1.4-4.1,2.4-6.3,3.1c-1.2,0.4-2.5,0.5-3.7,0.5c-0.7,0-1.3-0.1-2-0.3
	c-0.7-0.1-1.3-0.4-1.9-0.6c-2.3-1.2-4.2-3.1-5.4-5.4c-1.1-2.1-2-4.4-2.5-6.7c-0.3-1.1-0.5-2.3-0.7-3.4c-0.1-0.6-0.2-1.2-0.2-1.8
	l-0.1-1.8c-0.2-2.5,0.2-5.1,1.1-7.5l0.4-0.9c0.2-0.3,0.4-0.6,0.6-0.9c0.2-0.3,0.4-0.6,0.6-0.9l0.8-0.8c1.1-1,2.4-1.7,3.8-2
	c0.7-0.2,1.4-0.3,2.1-0.3c0.7,0,1.3,0,2,0.1c0.6,0.1,1.3,0.2,1.9,0.3c0.6,0.1,1.2,0.3,1.8,0.5c2.3,0.9,4.5,2.1,6.4,3.8
	c2,1.6,3.5,3.7,4.4,6.1c0.2,0.6,0.4,1.3,0.5,2c0.1,0.7,0,1.4-0.1,2.1c-0.3,1.4-1,2.7-2.1,3.6c-0.4,0.4-0.9,0.8-1.4,1.2
	c-0.5,0.3-1,0.7-1.5,1c-1.1,0.6-2.2,1.1-3.4,1.4c-2.6,0.6-5.3-0.7-6.4-3.2c-0.5-1.1-0.8-2.2-0.9-3.4c0-0.6,0.1-1.2,0.2-1.7
	c0.1-0.3,0.2-0.6,0.4-0.8c0.2-0.2,0.5-0.4,0.8-0.4c-0.6,0.1-0.8,0.7-0.8,1.2c0,0.5,0,1.1,0.1,1.6c0.2,1,0.6,2,1.2,2.9
	c0.5,0.8,1.3,1.4,2.2,1.8c0.9,0.3,1.8,0.3,2.7-0.1c0.9-0.3,1.8-0.8,2.6-1.4c0.4-0.3,0.8-0.6,1.2-1c0.4-0.3,0.7-0.7,1-1
	c0.6-0.6,0.9-1.4,1-2.2c0.1-0.8,0-1.6-0.4-2.4c-0.9-1.7-2.1-3.2-3.6-4.4c-1.6-1.2-3.3-2.2-5.2-2.8c-1.7-0.6-3.5-0.8-5.3-0.4
	c-1.5,0.4-2.8,1.6-3.3,3.1c-0.7,1.8-0.9,3.7-0.8,5.6l0.1,1.5c0,0.5,0.1,1,0.2,1.6c0.1,1,0.3,2.1,0.5,3.1c0.4,2,1,4,1.9,5.9
	c0.7,1.7,2,3.2,3.6,4.1c0.4,0.2,0.8,0.4,1.2,0.5c0.4,0.1,0.9,0.2,1.3,0.3c1,0.1,1.9,0,2.9-0.1c2.1-0.4,4.1-1.1,5.9-2.1
	C215.9,161.5,219.6,159,222.9,156.1z"/>
<path class="st2" d="M13.9,58.6c6.3,1.2,12.4,3.4,18,6.5c3,1.6,5.6,3.6,8,6.1c0.6,0.6,1.2,1.3,1.7,2.1c0.3,0.4,0.5,0.8,0.7,1.2
	c0.2,0.4,0.5,0.8,0.6,1.2c0.4,0.9,0.7,1.7,0.9,2.7c0.2,0.9,0.4,1.9,0.4,2.8c0,0.5,0,0.9,0,1.4c0,0.5-0.1,1-0.2,1.4l-0.3,1.4
	c-0.1,0.5-0.2,0.9-0.4,1.3c-0.6,1.7-1.5,3.3-2.5,4.8c-2,2.8-4.4,5.2-7,7.4c-2.5,2.2-5.3,4.1-8.2,5.7c-1.5,0.9-3.1,1.6-4.8,2.1
	c-1.7,0.6-3.6,1-5.4,1.2c-2,0.2-4.1-0.1-6-0.9c-1.9-0.8-3.7-2-5-3.6c-1.2-1.5-2.2-3.2-2.8-5c-0.6-1.7-1-3.5-1.2-5.3
	c-0.3-3.5-0.1-7,0.8-10.4c0.8-3.5,2.5-6.8,5-9.4c1.4-1.4,3.1-2.5,5.1-3c2-0.5,4-0.4,5.9,0.4c0.8,0.3,1.6,0.7,2.4,1.1
	c0.7,0.4,1.5,0.8,2.2,1.3c1.5,0.9,2.8,2.1,3.9,3.5c1.2,1.5,1.8,3.3,1.8,5.2c-0.1,1.8-0.7,3.6-1.8,5c-1,1.3-2.3,2.4-3.8,3.2
	c-0.7,0.4-1.5,0.7-2.3,0.8c-0.4,0.1-0.8,0.1-1.3,0c-0.4-0.1-0.8-0.4-0.9-0.7c0.6,0.5,1.4,0.7,2.1,0.3c0.7-0.3,1.3-0.7,1.9-1.2
	c1.2-0.9,2.2-2.1,2.9-3.4c0.7-1.2,1-2.6,0.9-3.9c-0.2-1.3-0.8-2.5-1.8-3.4c-1-1-2.1-1.8-3.4-2.4c-0.6-0.3-1.3-0.6-2-0.9
	c-0.7-0.3-1.3-0.5-2-0.7c-1.1-0.3-2.3-0.3-3.4,0.1c-1.1,0.4-2,1.1-2.8,2c-0.8,1-1.5,2.2-2,3.4c-0.5,1.3-1,2.6-1.3,4
	c-0.6,2.8-0.7,5.6-0.3,8.4c0.3,2.6,1.3,5,2.8,7c1.5,1.7,3.7,2.6,6,2.3c2.7-0.3,5.3-1.2,7.7-2.5c2.6-1.4,5.1-3,7.4-4.9
	c2.3-1.7,4.5-3.7,6.3-6c0.8-1.1,1.5-2.2,2.1-3.5c0.2-0.3,0.3-0.6,0.4-0.9l0.3-0.9c0.1-0.3,0.1-0.6,0.2-0.9c0.1-0.3,0.1-0.6,0.1-0.9
	c0-0.6,0-1.2-0.1-1.9c-0.1-0.6-0.2-1.3-0.5-1.9c-0.5-1.3-1.2-2.5-2-3.6c-1.8-2.4-4-4.4-6.4-6.1C25.2,64,19.7,60.9,13.9,58.6z"/>
<path class="st2" d="M19.5,81.6c6.3,1.2,12.4,3.4,18.1,6.5c2.9,1.6,5.6,3.7,7.9,6.1c0.6,0.6,1.1,1.3,1.6,2.1
	c0.3,0.4,0.5,0.8,0.7,1.2c0.2,0.4,0.5,0.8,0.6,1.2c0.4,0.9,0.7,1.7,0.9,2.6c0.2,0.9,0.4,1.9,0.4,2.8c0,0.5,0,1,0,1.4
	c0,0.5-0.1,1-0.2,1.4l-0.3,1.4c-0.1,0.5-0.2,0.9-0.4,1.3c-0.6,1.7-1.5,3.3-2.5,4.7c-2,2.8-4.4,5.2-7,7.4c-2.6,2.2-5.3,4.1-8.2,5.7
	c-1.5,0.9-3.1,1.6-4.8,2.1c-1.7,0.6-3.6,1-5.4,1.2c-2,0.2-4.1-0.1-6-0.8c-1.9-0.8-3.7-2-5-3.6c-1.2-1.5-2.2-3.2-2.9-5
	c-0.6-1.7-1-3.5-1.2-5.3c-0.3-3.5-0.1-7,0.8-10.4c0.8-3.5,2.5-6.8,5-9.4c1.4-1.4,3.1-2.5,5.1-3c2-0.5,4-0.4,5.9,0.4
	c0.8,0.3,1.6,0.7,2.4,1.1c0.7,0.4,1.5,0.8,2.2,1.3c1.5,1,2.8,2.2,3.9,3.5c1.2,1.5,1.8,3.3,1.8,5.2c-0.1,1.8-0.7,3.6-1.8,5
	c-1,1.3-2.3,2.4-3.8,3.2c-0.7,0.4-1.5,0.7-2.3,0.8c-0.4,0.1-0.8,0.1-1.3,0c-0.4-0.1-0.8-0.4-0.9-0.8c0.6,0.5,1.4,0.7,2.1,0.3
	c0.7-0.3,1.4-0.7,2-1.1c1.2-0.9,2.1-2.1,2.9-3.4c0.7-1.2,1-2.6,0.9-3.9c-0.2-1.3-0.8-2.6-1.8-3.5c-1-1-2.1-1.8-3.4-2.4
	c-0.6-0.3-1.3-0.6-2-0.9s-1.4-0.6-2-0.7c-1.1-0.3-2.3-0.3-3.4,0.1c-1.1,0.4-2,1.1-2.8,2c-0.8,1-1.5,2.2-2,3.4c-0.5,1.3-1,2.6-1.2,4
	c-0.6,2.8-0.7,5.6-0.3,8.4c0.3,2.6,1.3,5,2.9,7c1.5,1.7,3.7,2.5,6,2.3c2.7-0.3,5.3-1.2,7.7-2.5c2.6-1.4,5.1-3,7.4-4.9
	c2.3-1.7,4.5-3.7,6.3-6c0.8-1.1,1.5-2.2,2.1-3.5c0.2-0.3,0.3-0.6,0.4-0.9l0.3-0.9c0.1-0.3,0.1-0.6,0.2-0.9c0.1-0.3,0.1-0.6,0.1-0.9
	c0-0.6,0-1.3-0.1-1.9c-0.1-0.6-0.2-1.3-0.5-1.9c-0.5-1.3-1.2-2.5-2-3.6c-1.8-2.4-4-4.4-6.4-6.1C30.8,87.1,25.3,84,19.5,81.6z"/>
<path class="st2" d="M39,137c4,0.8,7.9,2.1,11.5,4.1c1.9,1,3.5,2.3,5,3.9c1.6,1.7,2.6,4,2.7,6.3c0,2.4-0.8,4.7-2.2,6.6
	c-1.3,1.8-2.8,3.3-4.5,4.7c-0.8,0.7-1.7,1.3-2.5,1.9c-0.4,0.3-0.9,0.6-1.3,0.9l-1.4,0.8c-2,1.1-4.2,1.9-6.5,2.1
	c-0.6,0.1-1.3,0-1.9-0.1c-0.7-0.1-1.3-0.2-1.9-0.5c-1.2-0.5-2.3-1.3-3.2-2.3c-0.4-0.5-0.8-1-1.1-1.5c-0.3-0.5-0.5-1.1-0.8-1.6
	c-0.2-0.5-0.4-1.1-0.5-1.7c-0.1-0.6-0.2-1.1-0.3-1.7c-0.2-2.2-0.1-4.5,0.5-6.6c0.5-2.2,1.6-4.3,3.2-6c0.4-0.4,0.9-0.8,1.4-1.2
	c0.6-0.3,1.2-0.6,1.8-0.8c1.2-0.3,2.6-0.2,3.8,0.2c0.5,0.2,1,0.4,1.5,0.7c0.5,0.3,1,0.5,1.4,0.8c1,0.6,1.8,1.4,2.5,2.3
	c0.7,1,1.2,2.1,1.2,3.3c0,1.2-0.4,2.3-1.2,3.2c-0.6,0.9-1.5,1.6-2.4,2.1c-0.5,0.2-1,0.4-1.5,0.5c-0.3,0-0.5,0-0.8,0
	c-0.3-0.1-0.5-0.2-0.6-0.5c0.3,0.4,0.9,0.4,1.3,0.2c0.4-0.2,0.9-0.4,1.2-0.7c0.8-0.6,1.4-1.3,1.8-2.2c0.4-0.8,0.6-1.6,0.5-2.5
	c-0.1-0.8-0.5-1.6-1.1-2.1c-0.6-0.6-1.3-1.2-2.1-1.6c-0.4-0.2-0.8-0.4-1.3-0.6c-0.4-0.2-0.8-0.3-1.3-0.4c-0.7-0.2-1.5-0.2-2.2,0
	c-0.7,0.3-1.3,0.7-1.8,1.3c-1.1,1.4-1.8,3-2.1,4.7c-0.4,1.8-0.4,3.6-0.2,5.4c0.2,1.6,0.8,3.2,1.8,4.5c1,1.1,2.4,1.6,3.8,1.4
	c1.7-0.2,3.4-0.7,4.9-1.6l1.2-0.7c0.4-0.3,0.8-0.5,1.2-0.8c0.8-0.5,1.5-1.1,2.3-1.7c1.5-1.1,2.8-2.4,4-3.8c1.1-1.3,1.8-2.9,2-4.5
	c0-0.8-0.1-1.6-0.4-2.4c-0.3-0.8-0.7-1.6-1.3-2.3c-1.2-1.5-2.5-2.8-4.1-3.9C46.3,140.4,42.7,138.5,39,137z"/>
<path class="st2" d="M21.2,130.2c4,0.8,7.9,2.2,11.5,4.1c1.9,1,3.5,2.3,5,3.9c1.6,1.7,2.6,4,2.7,6.3c0,2.4-0.8,4.7-2.2,6.6
	c-1.3,1.8-2.8,3.3-4.5,4.7c-0.8,0.7-1.7,1.3-2.5,1.9c-0.4,0.3-0.9,0.6-1.3,0.9l-1.4,0.8c-2,1.1-4.2,1.9-6.5,2.1
	c-0.6,0.1-1.3,0-1.9-0.1c-0.7-0.1-1.3-0.2-1.9-0.5c-1.2-0.5-2.3-1.3-3.2-2.3c-0.4-0.5-0.8-1-1.1-1.5c-0.3-0.5-0.5-1.1-0.8-1.6
	c-0.2-0.5-0.4-1.1-0.5-1.7c-0.1-0.6-0.2-1.1-0.3-1.7c-0.2-2.2-0.1-4.5,0.5-6.6c0.5-2.2,1.6-4.3,3.2-6c0.4-0.4,0.9-0.8,1.4-1.2
	c0.6-0.3,1.2-0.6,1.8-0.8c1.2-0.3,2.6-0.2,3.8,0.2c0.5,0.2,1,0.4,1.5,0.7c0.5,0.3,0.9,0.5,1.4,0.8c1,0.6,1.8,1.4,2.5,2.3
	c1.5,1.9,1.5,4.6,0,6.5c-0.7,0.9-1.5,1.6-2.4,2.1c-0.5,0.2-1,0.4-1.5,0.5c-0.3,0.1-0.5,0.1-0.8,0c-0.3-0.1-0.5-0.2-0.6-0.5
	c0.3,0.4,0.9,0.4,1.3,0.2c0.4-0.2,0.9-0.4,1.2-0.7c0.8-0.6,1.4-1.3,1.8-2.2c0.4-0.8,0.6-1.6,0.5-2.5c-0.1-0.8-0.5-1.6-1.1-2.1
	c-0.6-0.6-1.4-1.1-2.2-1.5c-0.4-0.2-0.8-0.4-1.3-0.6c-0.4-0.2-0.8-0.3-1.3-0.4c-0.7-0.2-1.5-0.2-2.2,0c-0.7,0.3-1.3,0.7-1.8,1.3
	c-1.1,1.4-1.8,3-2.1,4.7c-0.4,1.8-0.4,3.6-0.2,5.4c0.2,1.6,0.8,3.2,1.8,4.5c0.9,1.1,2.4,1.6,3.8,1.4c1.7-0.2,3.4-0.7,4.9-1.6
	l1.2-0.7c0.4-0.3,0.8-0.5,1.2-0.8c0.8-0.5,1.5-1.1,2.3-1.7c1.5-1.1,2.8-2.4,4-3.8c1.1-1.3,1.8-2.9,2-4.5c0-0.8-0.1-1.6-0.4-2.4
	c-0.3-0.8-0.8-1.6-1.3-2.3c-1.2-1.5-2.5-2.8-4.1-3.9C28.4,133.6,24.9,131.7,21.2,130.2z"/>
<path class="st2" d="M45.7,139.3c-3.9,1.3-7.9,2-12,2.1c-2.1,0-4.3-0.3-6.3-0.9c-2.3-0.7-4.2-2.2-5.5-4.2c-1.2-2.1-1.6-4.5-1.3-6.8
	c0.2-2.2,0.8-4.3,1.6-6.3c0.4-1,0.8-2,1.3-2.9c0.2-0.5,0.5-1,0.7-1.4l0.8-1.4c1.2-2,2.7-3.7,4.6-5c0.5-0.4,1.1-0.7,1.7-0.9
	c0.6-0.3,1.2-0.4,1.9-0.5c1.3-0.2,2.7-0.1,3.9,0.4c0.6,0.2,1.2,0.5,1.7,0.8c0.5,0.3,1,0.7,1.5,1.1c0.4,0.4,0.9,0.8,1.3,1.2
	c0.4,0.4,0.7,0.9,1.1,1.3c1.3,1.8,2.2,3.8,2.8,6c0.7,2.2,0.7,4.6,0.2,6.8c-0.2,0.6-0.4,1.2-0.7,1.7c-0.3,0.6-0.7,1.1-1.2,1.5
	c-0.9,0.9-2.1,1.5-3.4,1.6c-0.6,0.1-1.1,0.1-1.7,0.1c-0.5,0-1.1,0-1.6,0c-1.1-0.1-2.2-0.3-3.3-0.7c-1.1-0.5-2-1.3-2.7-2.3
	c-0.5-1-0.7-2.2-0.5-3.3c0.1-1.1,0.5-2.1,1.1-3c0.3-0.4,0.6-0.8,1-1.2c0.2-0.2,0.4-0.3,0.7-0.4c0.3-0.1,0.5,0,0.8,0.1
	c-0.5-0.1-1,0.1-1.2,0.5c-0.3,0.4-0.6,0.8-0.7,1.2c-0.4,0.9-0.5,1.8-0.5,2.8c0,0.9,0.3,1.7,0.8,2.5c0.5,0.6,1.2,1.1,2,1.3
	c0.9,0.2,1.8,0.3,2.6,0.3c0.5,0,0.9,0,1.4-0.1c0.5-0.1,0.9-0.2,1.4-0.3c0.7-0.2,1.4-0.5,1.9-1.1c0.5-0.6,0.8-1.3,0.9-2
	c0.2-1.7,0.1-3.5-0.5-5.1c-0.5-1.7-1.4-3.4-2.5-4.8c-0.9-1.3-2.2-2.4-3.8-3c-1.4-0.5-2.9-0.2-4,0.6c-1.4,1-2.6,2.3-3.5,3.8l-0.7,1.2
	c-0.2,0.4-0.4,0.9-0.7,1.3c-0.5,0.8-0.8,1.7-1.2,2.6c-0.8,1.7-1.3,3.5-1.6,5.3c-0.3,1.7-0.1,3.4,0.5,4.9c0.4,0.7,0.9,1.4,1.5,1.9
	c0.7,0.6,1.4,1,2.2,1.4c1.7,0.7,3.6,1.2,5.5,1.4C37.7,139.9,41.7,139.8,45.7,139.3z"/>
<path class="st2" d="M53.3,139.3c-3.9,1.3-7.9,2-12,2.1c-2.1,0-4.3-0.3-6.3-0.9c-2.3-0.7-4.2-2.2-5.5-4.2c-1.2-2.1-1.6-4.5-1.3-6.8
	c0.2-2.2,0.7-4.3,1.5-6.3c0.4-1,0.8-2,1.3-2.9c0.2-0.5,0.5-1,0.7-1.4l0.8-1.4c1.2-2,2.7-3.7,4.6-5c0.5-0.4,1.1-0.7,1.7-0.9
	c0.6-0.3,1.2-0.4,1.9-0.5c1.3-0.2,2.7-0.1,3.9,0.4c0.6,0.2,1.2,0.5,1.7,0.8c0.5,0.3,1,0.7,1.5,1.1c0.4,0.4,0.9,0.8,1.3,1.2
	c0.4,0.4,0.8,0.9,1.1,1.3c1.3,1.8,2.2,3.8,2.8,6c0.7,2.2,0.7,4.6,0.2,6.8c-0.2,0.6-0.4,1.2-0.7,1.7c-0.3,0.6-0.7,1.1-1.2,1.5
	c-0.9,0.9-2.1,1.5-3.4,1.6c-0.6,0.1-1.1,0.1-1.7,0.1c-0.5,0-1.1,0-1.6,0c-1.1-0.1-2.2-0.3-3.3-0.7c-1.1-0.5-2-1.3-2.6-2.3
	c-0.5-1-0.7-2.2-0.5-3.3c0.1-1.1,0.5-2.1,1.1-3c0.3-0.4,0.6-0.8,1-1.2c0.2-0.2,0.4-0.3,0.7-0.4c0.3-0.1,0.5,0,0.8,0.1
	c-0.5-0.1-1,0.1-1.3,0.5c-0.3,0.4-0.5,0.8-0.7,1.2c-0.4,0.9-0.6,1.8-0.5,2.8c0,0.9,0.3,1.7,0.8,2.5c0.5,0.6,1.2,1.1,2,1.3
	c0.9,0.2,1.8,0.3,2.7,0.3c0.5,0,0.9,0,1.4-0.1c0.4,0,0.9-0.1,1.3-0.3c0.7-0.2,1.4-0.5,1.9-1.1c0.5-0.6,0.8-1.3,0.9-2
	c0.2-1.7,0.1-3.5-0.5-5.1c-0.5-1.7-1.3-3.4-2.4-4.8c-0.9-1.3-2.3-2.4-3.8-3c-1.4-0.5-2.9-0.2-4,0.6c-1.4,1-2.6,2.3-3.5,3.8l-0.7,1.2
	c-0.2,0.4-0.4,0.9-0.7,1.3c-0.5,0.8-0.8,1.7-1.2,2.6c-0.8,1.7-1.3,3.5-1.6,5.3c-0.3,1.7-0.1,3.4,0.5,4.9c0.4,0.7,0.9,1.4,1.5,1.9
	c0.7,0.6,1.4,1,2.2,1.4c1.7,0.7,3.6,1.2,5.5,1.4C45.3,139.9,49.3,139.8,53.3,139.3z"/>
<path class="st2" d="M28.2,125.5c-3.9,1.3-7.9,2-12,2.1c-2.1,0-4.3-0.3-6.3-0.9c-2.3-0.7-4.2-2.2-5.5-4.2c-1.2-2.1-1.6-4.5-1.3-6.8
	c0.2-2.2,0.8-4.3,1.5-6.3c0.4-1,0.8-2,1.3-2.9c0.2-0.5,0.5-0.9,0.7-1.4l0.8-1.4c1.2-2,2.7-3.7,4.6-5c0.5-0.4,1.1-0.7,1.7-0.9
	c0.6-0.3,1.2-0.4,1.9-0.5c1.3-0.2,2.7,0,3.9,0.4c0.6,0.2,1.2,0.5,1.7,0.8c0.5,0.3,1,0.7,1.4,1c0.4,0.4,0.9,0.8,1.3,1.2
	c0.4,0.4,0.8,0.9,1.1,1.4c1.3,1.8,2.2,3.8,2.8,6c0.7,2.2,0.7,4.6,0.2,6.8c-0.2,0.6-0.4,1.2-0.7,1.7c-0.3,0.6-0.7,1.1-1.2,1.5
	c-0.9,0.9-2.1,1.5-3.4,1.6c-0.6,0.1-1.1,0.1-1.7,0.1c-0.5,0-1.1,0-1.6,0c-1.1-0.1-2.2-0.3-3.3-0.7c-1.1-0.5-2-1.3-2.6-2.3
	c-0.5-1-0.7-2.2-0.5-3.3c0.1-1.1,0.5-2.1,1.1-3c0.3-0.4,0.6-0.8,1-1.2c0.2-0.2,0.4-0.3,0.7-0.4c0.3-0.1,0.5,0,0.8,0.1
	c-0.5-0.1-1,0.1-1.2,0.5c-0.3,0.4-0.5,0.8-0.7,1.2c-0.4,0.9-0.6,1.8-0.5,2.8c0,0.9,0.3,1.7,0.8,2.5c0.5,0.6,1.2,1.1,2,1.3
	c0.9,0.2,1.8,0.3,2.6,0.3c0.5,0,0.9-0.1,1.4-0.1c0.4,0,0.9-0.1,1.3-0.3c0.7-0.2,1.4-0.5,1.9-1.1c0.5-0.6,0.8-1.3,0.9-2
	c0.2-1.7,0.1-3.5-0.5-5.1c-0.5-1.7-1.4-3.3-2.5-4.8c-0.9-1.3-2.3-2.4-3.8-3c-1.4-0.5-2.9-0.2-4,0.6c-1.4,1-2.6,2.3-3.5,3.8L10,107
	c-0.2,0.4-0.4,0.9-0.6,1.3c-0.5,0.8-0.8,1.7-1.2,2.6c-0.7,1.7-1.3,3.5-1.6,5.3c-0.3,1.7-0.1,3.4,0.5,4.9c0.4,0.7,0.9,1.4,1.5,1.9
	c0.7,0.6,1.4,1,2.2,1.4c1.7,0.7,3.6,1.2,5.5,1.4C20.3,126.1,24.3,126,28.2,125.5z"/>
<path class="st2" d="M65.5,60.9c4.5,4.6,8.3,9.8,11.3,15.5c1.5,3,2.5,6.2,3,9.5c0.1,0.9,0.2,1.8,0.2,2.6c0,0.5,0,0.9-0.1,1.4
	c0,0.5-0.1,0.9-0.2,1.4c-0.2,0.9-0.4,1.8-0.8,2.7c-0.3,0.9-0.8,1.7-1.3,2.6c-0.3,0.4-0.5,0.8-0.9,1.1c-0.3,0.4-0.6,0.8-0.9,1.1
	l-1.1,0.9c-0.3,0.3-0.7,0.6-1.1,0.9c-1.5,1-3.1,1.9-4.7,2.5c-3.2,1.1-6.6,1.9-10,2.1c-3.3,0.3-6.7,0.4-10,0.1
	c-1.7-0.2-3.5-0.5-5.1-0.9c-1.8-0.5-3.5-1.2-5.1-2.1c-1.8-1-3.3-2.5-4.4-4.2c-1.2-1.7-1.9-3.7-2.1-5.8c-0.2-1.9,0-3.9,0.5-5.8
	c0.5-1.7,1.1-3.4,2-5c1.7-3.1,3.9-5.8,6.5-8.1c2.7-2.5,5.9-4.2,9.5-5c2-0.4,4-0.3,5.9,0.4c1.9,0.7,3.5,2,4.7,3.6
	c0.5,0.7,0.9,1.5,1.3,2.3c0.4,0.7,0.8,1.5,1.1,2.3c0.7,1.6,1.1,3.4,1.2,5.1c0.1,1.9-0.4,3.8-1.5,5.3c-1.1,1.5-2.6,2.5-4.3,3.1
	c-1.6,0.5-3.3,0.7-5,0.5c-0.8-0.1-1.6-0.3-2.4-0.6c-0.4-0.2-0.7-0.4-1-0.7c-0.3-0.3-0.4-0.7-0.3-1.1c0,0.9,0.8,1.2,1.5,1.4
	c0.7,0.2,1.5,0.2,2.3,0.2c1.5-0.1,2.9-0.5,4.3-1.2c1.2-0.6,2.3-1.6,2.9-2.8c0.6-1.2,0.7-2.5,0.5-3.8c-0.3-1.4-0.7-2.7-1.4-3.9
	c-0.3-0.6-0.7-1.3-1.1-1.9s-0.8-1.3-1.2-1.7c-0.8-0.9-1.7-1.5-2.8-1.8c-1.1-0.3-2.3-0.2-3.4,0.1c-1.3,0.4-2.5,0.9-3.6,1.7
	c-1.2,0.7-2.3,1.6-3.3,2.6c-2.1,2-3.7,4.2-5,6.8c-1.2,2.3-1.8,4.8-1.6,7.4c0.3,2.2,1.6,4.2,3.6,5.2c2.4,1.3,5.1,2,7.8,2.2
	c3,0.3,5.9,0.4,8.9,0.2c2.9-0.1,5.8-0.6,8.6-1.4c1.3-0.4,2.5-1,3.7-1.7c0.3-0.1,0.6-0.3,0.8-0.5l0.8-0.6c0.2-0.2,0.4-0.4,0.7-0.7
	c0.2-0.2,0.4-0.4,0.6-0.7c0.4-0.5,0.7-1,1-1.6c0.3-0.6,0.5-1.2,0.7-1.8c0.3-1.3,0.4-2.7,0.4-4.1c-0.2-3-0.8-5.9-1.8-8.7
	C71.7,71.7,68.9,66.1,65.5,60.9z"/>
</svg>
