<svg id="Layer_1" data-name="Layer 1" xmlns="http://www.w3.org/2000/svg" viewBox="0 0 200 35.11"><defs><style>.cls-1{fill:#fff;}</style></defs><path class="cls-1" d="M2-41.82c-4.25,1.31-8.54,2.33-12.82,3.24s-8.58,1.63-12.87,2.22-8.6,1-12.89,1.34-8.59.47-12.87.47A189.85,189.85,0,0,1-75-36.18c-2.1-.33-4.22-.55-6.31-1l-3.14-.53-3.12-.63c-4.17-.8-8.3-1.82-12.41-2.92-2-.54-4.08-1.17-6.13-1.75l-3.3-.94c-1.11-.31-2.21-.65-3.34-.93a112.85,112.85,0,0,0-13.64-2.52c-1.16-.12-2.31-.28-3.47-.37l-3.49-.21c-.59,0-1.16-.09-1.75-.09h-5.26a82.67,82.67,0,0,0-13.93,1.67,70,70,0,0,0-25.54,10.87,65.47,65.47,0,0,0-5.45,4.22,61.24,61.24,0,0,0-4.91,4.76,51.49,51.49,0,0,0-4.31,5.24,37.46,37.46,0,0,0-3.5,5.79v2.56H2Z" transform="translate(198 48.02)"/></svg>